<?xml version="1.0" encoding="UTF-8" standalone="no"?>
<!-- Created with Inkscape (http://www.inkscape.org/) -->

<svg
   xmlns:dc="http://purl.org/dc/elements/1.1/"
   xmlns:cc="http://creativecommons.org/ns#"
   xmlns:rdf="http://www.w3.org/1999/02/22-rdf-syntax-ns#"
   xmlns:svg="http://www.w3.org/2000/svg"
   xmlns="http://www.w3.org/2000/svg"
   xmlns:sodipodi="http://sodipodi.sourceforge.net/DTD/sodipodi-0.dtd"
   xmlns:inkscape="http://www.inkscape.org/namespaces/inkscape"
   width="13.557023in"
   height="6.3579421in"
   id="svg2"
   sodipodi:version="0.32"
   inkscape:version="0.92.2 5c3e80d, 2017-08-06"
   sodipodi:docname="formal_russian.svg"
   inkscape:output_extension="org.inkscape.output.svg.inkscape"
   version="1.0"
   inkscape:export-filename="/home/danila/Documents/Identity/Rod_of_Asclepius.png"
   inkscape:export-xdpi="70.031807"
   inkscape:export-ydpi="70.031807"
   viewBox="0 0 3253.6856 1525.9062">
  <defs
     id="defs4">
    <inkscape:path-effect
       effect="simplify"
       id="path-effect4542"
       is_visible="true"
       steps="1"
       threshold="0.00741464"
       smooth_angles="360"
       helper_size="0"
       simplify_individual_paths="false"
       simplify_just_coalesce="false"
       simplifyindividualpaths="false"
       simplifyJustCoalesce="false" />
    <inkscape:path-effect
       effect="simplify"
       id="path-effect4538"
       is_visible="true"
       steps="1"
       threshold="0.00741464"
       smooth_angles="360"
       helper_size="0"
       simplify_individual_paths="false"
       simplify_just_coalesce="false"
       simplifyindividualpaths="false"
       simplifyJustCoalesce="false" />
    <inkscape:path-effect
       effect="spiro"
       id="path-effect4534"
       is_visible="true" />
    <inkscape:perspective
       sodipodi:type="inkscape:persp3d"
       inkscape:vp_x="0 : 1403.1498 : 1"
       inkscape:vp_y="0 : 2666.6673 : 0"
       inkscape:vp_z="1984.2522 : 1403.1498 : 1"
       inkscape:persp3d-origin="992.126 : 935.43309 : 1"
       id="perspective10" />
    <inkscape:perspective
       id="perspective2390"
       inkscape:persp3d-origin="992.126 : 935.43309 : 1"
       inkscape:vp_z="1984.2522 : 1403.1498 : 1"
       inkscape:vp_y="0 : 2666.6673 : 0"
       inkscape:vp_x="0 : 1403.1498 : 1"
       sodipodi:type="inkscape:persp3d" />
  </defs>
  <sodipodi:namedview
     id="base"
     pagecolor="#ffffff"
     bordercolor="#000000"
     borderopacity="1"
     gridtolerance="10000"
     guidetolerance="10"
     objecttolerance="10"
     inkscape:pageopacity="0"
     inkscape:pageshadow="2"
     inkscape:zoom="0.98994949"
     inkscape:cx="708.03936"
     inkscape:cy="160.71929"
     inkscape:document-units="px"
     inkscape:current-layer="layer1"
     showgrid="false"
     inkscape:window-width="1920"
     inkscape:window-height="1024"
     inkscape:window-x="0"
     inkscape:window-y="30"
     showguides="false"
     inkscape:guide-bbox="true"
     inkscape:snap-bbox="true"
     inkscape:snap-smooth-nodes="true"
     inkscape:window-maximized="1"
     fit-margin-top="1"
     units="in"
     fit-margin-left="3"
     fit-margin-bottom="1"
     fit-margin-right="3"
     inkscape:object-paths="false"
     inkscape:pagecheckerboard="false"
     showborder="true"
     inkscape:showpageshadow="false"
     scale-x="2.5">
    <sodipodi:guide
       position="1414.302,-53.067693"
       orientation="1,0"
       id="guide3707"
       inkscape:locked="false" />
    <sodipodi:guide
       position="1628.5967,51.79241"
       orientation="1,0"
       id="guide3709"
       inkscape:locked="false" />
    <sodipodi:guide
       position="1772.9061,17.643009"
       orientation="1,0"
       id="guide3711"
       inkscape:locked="false" />
    <sodipodi:guide
       position="1267.8298,-477.33176"
       orientation="1,0"
       id="guide3713"
       inkscape:locked="false" />
    <sodipodi:guide
       position="1567.1697,-251.23055"
       orientation="0,1"
       id="guide4563"
       inkscape:locked="false"
       inkscape:label=""
       inkscape:color="rgb(0,0,255)" />
    <sodipodi:guide
       position="1628.5967,-351.23055"
       orientation="0,1"
       id="guide4565"
       inkscape:locked="false"
       inkscape:label=""
       inkscape:color="rgb(0,0,255)" />
    <sodipodi:guide
       position="1476.0983,-451.23056"
       orientation="0,1"
       id="guide4567"
       inkscape:locked="false"
       inkscape:label=""
       inkscape:color="rgb(0,0,255)" />
    <sodipodi:guide
       position="1542.1697,-551.23056"
       orientation="0,1"
       id="guide4569"
       inkscape:locked="false"
       inkscape:label=""
       inkscape:color="rgb(0,0,255)" />
    <sodipodi:guide
       position="1560.0269,-651.23056"
       orientation="0,1"
       id="guide4571"
       inkscape:locked="false"
       inkscape:label=""
       inkscape:color="rgb(0,0,255)" />
    <sodipodi:guide
       position="1538.5983,-751.23057"
       orientation="0,1"
       id="guide4573"
       inkscape:locked="false"
       inkscape:label=""
       inkscape:color="rgb(0,0,255)" />
    <sodipodi:guide
       position="1554.6697,-851.23057"
       orientation="0,1"
       id="guide4575"
       inkscape:locked="false"
       inkscape:label=""
       inkscape:color="rgb(0,0,255)" />
    <inkscape:grid
       type="xygrid"
       id="grid4591"
       originx="1197.5268"
       originy="-971.23063" />
    <sodipodi:guide
       position="1519.0796,393.4468"
       orientation="0,1"
       id="guide852"
       inkscape:locked="false" />
    <sodipodi:guide
       position="737.68768,315.99813"
       orientation="1,0"
       id="guide4562"
       inkscape:locked="false"
       inkscape:label=""
       inkscape:color="rgb(0,0,255)" />
    <sodipodi:guide
       position="5619.1164,751.71245"
       orientation="1,0"
       id="guide4564"
       inkscape:locked="false" />
  </sodipodi:namedview>
  <metadata
     id="metadata7">
    <rdf:RDF>
      <cc:Work
         rdf:about="">
        <dc:format>image/svg+xml</dc:format>
        <dc:type
           rdf:resource="http://purl.org/dc/dcmitype/StillImage" />
        <dc:title></dc:title>
      </cc:Work>
    </rdf:RDF>
  </metadata>
  <g
     inkscape:label="Layer 1"
     inkscape:groupmode="layer"
     id="layer1"
     transform="translate(709.36657,305.49684)">
    <path
       style="color:#000000;font-style:normal;font-variant:normal;font-weight:normal;font-stretch:normal;font-size:medium;line-height:normal;font-family:sans-serif;font-variant-ligatures:normal;font-variant-position:normal;font-variant-caps:normal;font-variant-numeric:normal;font-variant-alternates:normal;font-feature-settings:normal;text-indent:0;text-align:start;text-decoration:none;text-decoration-line:none;text-decoration-style:solid;text-decoration-color:#000000;letter-spacing:normal;word-spacing:normal;text-transform:none;writing-mode:lr-tb;direction:ltr;text-orientation:mixed;dominant-baseline:auto;baseline-shift:baseline;text-anchor:start;white-space:normal;shape-padding:0;clip-rule:nonzero;display:inline;overflow:visible;visibility:visible;opacity:1;isolation:auto;mix-blend-mode:normal;color-interpolation:sRGB;color-interpolation-filters:linearRGB;solid-color:#000000;solid-opacity:1;vector-effect:none;fill:#000000;fill-opacity:1;fill-rule:nonzero;stroke:none;stroke-width:14.30065918;stroke-linecap:round;stroke-linejoin:round;stroke-miterlimit:4;stroke-dasharray:none;stroke-dashoffset:0;stroke-opacity:1;color-rendering:auto;image-rendering:auto;shape-rendering:auto;text-rendering:auto;enable-background:accumulate"
       d="m 196.60791,63.074618 c -1.2263,0 -8.29785,3.41705 -15.71328,7.59372 -9.10347,5.12747 -17.13612,6.86856 -24.73147,5.36065 -6.43572,-1.27765 -11.24921,-0.65447 -11.24921,1.45591 0,2.02883 3.60391,3.71003 8.00851,3.73717 4.4046,0.0272 12.64151,1.03263 18.30457,2.23308 6.4038,1.3575 10.29815,0.57496 10.29815,-2.07178 0,-2.34057 -2.37734,-3.09431 -5.28314,-1.67376 -3.19924,1.56399 -4.04545,0.9957 -2.14301,-1.43914 1.72794,-2.21156 6.16556,-3.10321 9.86034,-1.98171 3.85998,1.17165 6.74701,-0.0496 6.78723,-2.872 0.0541,-3.7902 1.083,-3.67221 4.50596,0.51742 6.29019,7.69912 5.61404,10.94756 -1.81202,8.69351 -3.51422,-1.06669 -9.28514,1.33008 -12.8245,5.32715 -7.17356,8.10117 -16.82674,8.19893 -29.52026,0.29955 -7.59815,-4.72844 -7.88404,-4.67724 -2.78821,0.49229 5.83284,5.9172 3.47791,10.56806 -5.29991,10.46992 -2.72666,-0.0305 -2.21034,-1.43321 1.14798,-3.1171 4.70501,-2.35916 3.35916,-4.7704 -5.8718,-10.51392 -6.97359,-4.33897 -10.00334,-8.42014 -7.25019,-9.76606 2.60126,-1.27166 4.76075,-0.1803 4.79925,2.4258 0.0523,3.53954 1.13294,3.40733 4.27344,-0.51951 8.34705,-10.43701 -1.33168,-13.97437 -15.31945,-5.59947 -6.26012,3.74813 -7.37606,6.49735 -3.99273,9.83939 2.58234,2.55083 6.00877,8.03685 7.61469,12.19187 2.47932,6.414782 0.10231,8.222252 -15.75517,11.980302 -27.339372,6.47915 -72.174672,35.23054 -73.255982,51.28965 -2.85557,42.40955 26.19345,68.67463 74.561062,84.6602 9.13084,3.01776 17.51966,6.73446 18.64183,8.25779 1.12216,1.52334 3.42789,23.94388 5.12393,49.82537 l 3.08358,47.05811 -17.39541,8.84016 c -54.371622,27.63674 -74.714602,62.33959 -60.418902,103.0674 7.08384,20.18155 20.73375,33.20206 55.506542,51.90344 4.86827,2.71753 10.46939,6.18681 14.95076,8.55526 -3.38814,0.30805 -6.67437,-0.82441 -10.16409,-1.29879 -3.94132,-0.53576 -7.22295,3.17207 -7.22295,7.14963 0,3.97757 3.25791,7.46719 7.22295,7.15173 11.83491,-0.94158 23.02891,-3.02212 37.58951,-1.48733 18.78617,8.82629 37.36525,17.0696 53.04931,25.3264 1.09707,0.57758 5.55788,2.97125 8.39186,4.98568 3.55861,2.52956 7.52846,5.25193 -0.82117,4.83277 l -27.34164,0.92591 -70.59763,-3.54446 c -3.97738,-0.0402 -7.22296,3.1721 -7.22296,7.14969 0,3.9775 3.24558,7.19178 7.22296,7.1517 l 70.56202,-3.06469 50.77014,3.06469 c 4.37814,5.06645 5.20045,10.13377 -0.50695,13.32517 -12.52152,6.81724 -21.50712,12.59793 -27.95541,15.3341 -0.30755,-0.0376 -8.20145,3.18991 -8.51546,3.19253 l -31.78894,0.80854 -46.06517,-3.5172 c -3.97737,-0.0402 -13.72319,2.62954 -13.72319,6.60713 0,3.97762 3.24558,7.19182 7.22296,7.15172 l 53.14147,-2.6814 c 2.45463,-0.1239 5.65448,2.5212 3.87124,3.4334 -10.41441,5.3277 -45.3775,18.5287 -58.26751,23.3636 -11.15904,4.1855 -18.52074,9.5151 -31.923022,17.8688 -13.40227,8.3537 -24.65608,20.2686 -24.65608,37.0449 v 30.4671 c 0,6.1936 2.93821,11.8929 7.30256,16.9513 4.36435,5.0584 10.23411,9.6212 16.81724,13.7776 13.166292,8.313 20.647182,14.9716 33.263712,19.2976 31.61853,10.8413 88.72918,40.8934 92.38589,36.2907 2.06633,-2.6009 2.52823,-14.3557 2.12625,-24.5053 2.94628,-0.882 5.0988,-3.6136 5.0988,-6.8521 0,-3.7529 -2.88969,-6.822 -5.95977,-8.7249 -5.06795,1.4746 -65.61038,-23.425 -68.41274,-25.8921 -2.80236,-2.467 -0.6027,-2.9175 1.52503,-3.4816 2.12772,-0.564 65.62453,2.3484 65.62453,2.3484 3.97737,0.04 7.22295,-3.1742 7.22295,-7.1518 0,-3.9775 -3.24558,-7.1897 -7.22295,-7.1496 l -63.15055,4.8579 -34.3153,-0.8359 c -11.97777,-5.7096 -18.850302,-15.8423 -28.782872,-24.2895 -0.79452,-4.8438 -1.8167,-5.1957 1.51037,-7.2899 0.60155,-0.3787 1.22065,-0.7555 1.84554,-1.1312 6.65289,-1.3042 8.057842,-5.0665 11.762432,-2.7861 l 54.103,-1.0852 57.02738,3.9592 c 3.97737,0.04 7.22295,-3.1741 7.22295,-7.1517 0,-3.9776 -3.24558,-7.1897 -7.22295,-7.1496 0,0 -29.74496,2.343 -57.01062,3.1192 -14.85329,0.4228 -28.70073,0.1106 -37.22501,-0.6766 -7.68386,-0.7097 -6.34006,-4.1045 3.73507,-7.8074 26.70349,-9.8145 39.58526,-17.0853 54.60576,-23.4998 2.41226,0.4808 8.60355,-3.0019 11.12979,-2.9872 18.99791,0.1105 15.97985,3.2458 24.76501,3.2511 3.97737,0.04 7.22295,-3.172 7.22295,-7.1496 0,-3.4803 -0.63092,-5.6529 -4.62956,-5.4465 -0.57122,0.03 -6.30252,0.7068 -6.9255,0.7311 -1.53548,0.06 0.16315,-1.3899 1.46221,-2.8091 1.49278,-0.6651 2.73815,-1.2119 4.32789,-1.9231 10.89722,-4.875 22.19906,-11.6875 35.2496,-19.5845 6.52527,-3.9485 12.42808,-8.1557 16.87171,-12.7156 4.44365,-4.55992 7.61678,-9.63449 7.61678,-15.33204 v -28.48331 c 0,-9.38269 -6.04285,-17.25927 -13.34822,-23.65892 -7.30537,-6.39963 -16.17566,-11.52862 -23.2274,-15.25449 -10.88657,-5.75207 -65.51739,-36.16206 -114.89896,-61.12694 -20.37881,-19.529 -19.84195,-46.13248 1.35953,-62.1995 l 12.84546,-9.73464 0.40431,8.47565 c 0.19579,4.10396 2.50439,7.99884 3.83351,16.71878 4.13479,2.09674 7.22724,12.7267 15.62948,6.58404 -1.60043,-6.84563 -4.41829,-17.46141 -5.4193,-23.8349 -2.58943,-16.4869 8.71005,-14.89714 15.03454,-12.97743 11.67431,-13.33788 3.71718,16.38133 3.74137,19.65572 0.0207,2.79962 -2.14438,11.15165 2.9914,18.78428 9.74959,9.69747 8.04263,0.97127 11.56761,1.4559 l 1.18358,-56.63773 20.5942,-9.0287 c 24.60253,-10.78721 52.97403,-28.20605 61.88318,-41.65765 8.31868,-12.55992 8.30936,-41.99255 -0.0168,-57.65373 -3.56921,-6.71352 -12.32065,-16.46827 -19.44834,-21.67933 -17.15402,-12.54135 -58.40716,-29.15979 -62.30004,-26.08054 -1.69759,1.34279 -1.7626,-16.9861 -0.14454,-40.72966 1.61806,-23.74357 3.01028,-45.01524 3.09406,-47.26968 0.10596,-2.85205 4.4358,-3.12525 14.23222,-0.90288 17.55467,3.98238 83.73381,4.21546 86.78853,0.30585 4.12028,-5.27341 -3.90637,-10.98129 -17.77248,-12.63807 -7.52876,-0.89957 -1.43519,-0.91527 13.54303,-0.0335 14.97823,0.88175 31.18679,3.27757 36.01839,5.32294 5.8449,2.47427 7.82453,2.49114 5.9158,0.0482 -1.57788,-2.01948 -0.28144,-4.49897 2.88038,-5.50729 3.16183,-1.00833 -3.00326,-1.9607 -13.70015,-2.11787 -14.40984,-0.21173 -19.44833,-1.74926 -19.44833,-5.93044 0,-3.10381 -2.04462,-4.64362 -4.54159,-3.42294 -2.497,1.22069 -8.15907,0.38037 -12.5836,-1.86858 -7.60698,-3.86656 -7.6083,-3.98241 -0.0356,-2.11996 4.40461,1.08327 8.00642,0.39079 8.00642,-1.5376 0,-1.92842 -2.43859,-3.506742 -5.41931,-3.506742 -2.98072,0 -14.44835,-3.45614 -25.48353,-7.68172 -14.24167,-5.45336 -25.2396,-7.13348 -37.90164,-5.79009 -9.81122,1.04094 -17.5697,0.83398 -17.2404,-0.46086 0.96289,-3.78679 -6.25686,-22.26378 -8.69983,-22.26378 z m 42.858,25.43325 c 2.23899,-0.0254 0.21214,1.32212 -5.31457,4.79085 -6.39112,4.01126 -7.19797,5.77888 -2.67091,5.85923 3.56563,0.0633 5.28752,1.061672 3.82515,2.218412 -1.46238,1.15673 -6.90696,0.30455 -12.09969,-1.893722 -7.40885,-3.13639 -8.94657,-2.9775 -7.14336,0.739472 1.5629,3.22164 -2.49601,5.00357 -12.68834,5.57223 l -14.98636,0.83584 14.81877,-7.218762 c 8.14931,-3.97039 20.50466,-8.26189 27.45686,-9.53774 4.57974,-0.84045 7.45905,-1.35055 8.80245,-1.36581 z m 8.60134,12.156262 c 1.62356,0.0376 3.17972,0.681 4.07653,1.82878 1.43486,1.83644 7.24146,2.43899 12.90202,1.33649 5.66055,-1.1025 9.13699,-0.9888 7.7257,0.25556 -1.41129,1.2444 -7.59002,2.93044 -13.72947,3.74555 -6.13946,0.81511 -10.72811,3.10424 -10.1976,5.08623 0.53054,1.982 -1.52974,3.53796 -4.57719,3.45855 -14.22721,-0.37073 -21.55783,1.32981 -21.55783,5.00245 0,2.20388 3.02331,3.09063 6.7181,1.96913 3.69477,-1.12148 7.96788,-0.44254 9.49374,1.51037 1.63826,2.09676 12.47319,2.57352 26.45972,1.16263 13.02701,-1.31413 22.36174,-1.25902 20.74503,0.12359 -5.03014,4.3018 -44.08475,6.33 -47.11887,2.44676 -1.57381,-2.01429 -5.72595,-2.79323 -9.22769,-1.73033 -7.28247,2.21048 -18.56243,-11.53611 -12.07037,-14.70985 2.29659,-1.12273 7.78694,-0.94641 12.20234,0.39382 5.9495,1.80588 7.04832,1.18321 4.23993,-2.41113 -2.7923,-3.57377 -1.72439,-4.22404 4.06185,-2.46771 4.34293,1.31823 6.69198,0.89588 5.25383,-0.94476 -1.43024,-1.83052 -0.64954,-4.28106 1.73451,-5.44654 0.89402,-0.43705 1.89158,-0.63222 2.86572,-0.60959 z m -65.34174,3.09824 c 1.01649,0.19564 2.86435,2.11138 6.1923,5.86969 5.59954,6.3236 6.11005,9.36479 2.09902,12.53753 -4.01102,3.17271 -6.11361,3.1459 -8.66,-0.11313 -2.21519,-2.83514 -5.66267,-3.15248 -10.10543,-0.93011 -5.62938,2.81595 -5.67161,3.38299 -0.25976,3.42924 10.06292,0.086 1.77244,4.7027 -9.85614,5.48843 -5.69559,0.38485 -16.15251,2.57717 -23.23788,4.87256 -7.08536,2.29541 -14.55659,4.17289 -16.60147,4.17289 -2.04491,0 -6.26196,2.42557 -9.37224,5.38998 -3.11027,2.9644 -7.26599,4.60288 -9.23398,3.6408 -3.66519,-1.79179 -7.311052,3.63971 -13.681302,20.37844 -2.84114,7.46552 -1.30017,11.47426 7.19782,18.72353 5.947382,5.07348 15.026342,10.28125 20.175242,11.57391 5.14891,1.29265 8.09391,3.97278 6.54633,5.95348 -1.5711,2.01079 0.92602,3.0935 5.65393,2.45305 7.18008,-0.97264 8.46937,1.28324 8.46937,14.83971 0,15.17477 -7.16733,23.18019 -13.49904,15.07645 -1.59337,-2.03929 -11.56432,-6.78987 -22.15695,-10.55791 -10.592652,-3.76802 -32.987742,-11.40777 -39.280042,-16.97644 -6.29228,-5.56868 -9.05973,-9.04704 -6.14831,-7.72782 3.52212,1.59594 4.49283,-0.0251 2.89924,-4.84532 -1.31729,-3.98452 -3.77554,-7.24389 -5.4633,-7.24389 -1.68776,0 -3.38322,-3.29453 -3.7665,-7.31932 -0.4052,-4.25495 1.30281,-6.33849 4.07863,-4.98148 2.62566,1.28358 0.95573,-2.28377 -3.70994,-7.92682 -5.57965,-6.7485 -1.40357,-17.85369 2.83302,-15.78781 11.53187,-1.56918 -1.93507,-8.55862 5.0142,-13.00553 2.46935,-1.20719 3.92389,-0.23386 3.23231,2.16185 2.54716,0.99572 5.84541,-1.14341 7.50365,-3.3182 1.82126,-2.33097 13.76095,-3.32417 16.04425,-2.20795 4.93923,2.41462 29.537022,-7.17149 29.537022,-11.51105 0,-1.66095 2.57482,-2.55318 5.72096,-1.9817 3.14615,0.57149 5.71888,-0.83433 5.71888,-3.12548 0,-2.29116 3.08935,-3.2303 6.86473,-2.08435 4.41031,1.3387 6.97859,-0.14027 7.18524,-4.13728 0.26832,-5.18956 0.97375,-5.01906 4.25458,1.02019 2.16312,3.98176 4.07769,5.31047 4.25459,2.95369 0.19979,-2.66187 5.08866,-3.61325 12.90621,-2.51168 12.16452,1.71407 12.28036,1.58419 3.43341,-3.86914 -8.58285,-5.29057 -8.6078,-5.48963 -0.39383,-3.20718 6.62293,1.84034 7.93592,1.18194 5.3816,-2.70442 -1.85799,-2.82692 -0.13686,-1.97922 3.82516,1.88534 7.05148,6.87803 7.20409,6.87906 7.20409,0.0985 0,-3.11778 0.18384,-4.64085 1.20033,-4.4452 z m -48.98534,3.96759 c 1.21779,0.0954 2.0215,0.87136 2.0215,2.1891 0,2.10837 -2.05817,3.83142 -4.57509,3.83142 -2.51691,0 -4.57718,-0.7183 -4.57718,-1.59625 0,-0.87795 2.06027,-2.601 4.57718,-3.83143 0.94385,-0.46143 1.82291,-0.65005 2.55359,-0.59284 z m 69.14174,11.24501 c 0.83489,-0.0338 2.04659,0.17118 3.57376,0.63473 3.90611,1.18564 7.10146,2.79761 7.10146,3.58006 0,2.93172 -8.71888,1.28398 -11.40632,-2.15557 -1.002,-1.28245 -0.6604,-2.00287 0.7311,-2.05922 z m -110.594112,5.63507 c 3.77538,0 6.86474,1.5349 6.86474,3.40829 0,4.56446 -7.14694,7.83154 -10.803,4.93959 -5.15367,-4.07655 -3.13844,-8.34788 3.93826,-8.34788 z m 41.094152,19.90293 c 5.76781,0.0418 6.95692,7.87363 6.95692,25.45839 0,30.41996 -5.1803,34.12702 -25.3767,18.15164 -14.00545,-11.07832 -14.36311,-23.82319 -0.93639,-33.3831 9.32044,-6.63623 15.40977,-10.25551 19.35617,-10.22693 z m 34.41376,5.43606 c 2.51691,0 4.57719,4.07242 4.57719,9.04964 0,4.97721 2.05817,9.04964 4.57508,9.04964 5.77807,0 6.04602,16.95527 0.31215,19.75837 -2.34562,1.14668 -5.15439,-1.60784 -6.24048,-6.12107 -1.08609,-4.51324 -0.97964,3.19528 0.2367,17.13146 1.21633,13.9362 4.24418,26.35694 6.72858,27.60139 2.51293,1.25875 3.16262,7.14678 1.46219,13.27071 -3.92584,14.13856 1.96942,42.08403 6.65106,31.52709 2.94308,-6.63658 4.12821,-6.34648 17.59651,4.30696 7.94191,6.28207 14.43963,15.12365 14.43962,19.64734 0,7.85718 -20.51605,28.52731 -28.31362,28.52731 -2.04603,0 -3.72041,-9.05344 -3.72041,-20.12076 0,-11.42676 -1.83055,-19.22795 -4.23782,-18.05111 -2.33157,1.13983 -5.54885,-7.3161 -7.14755,-18.79056 -4.1687,-29.92032 -5.80894,-33.99659 -6.20696,-15.43047 -0.19208,8.95898 2.38179,28.50453 5.71887,43.43615 3.33709,14.93164 4.59354,27.96132 2.7924,28.95675 -1.80112,0.99546 -4.61934,4.25339 -6.26352,7.23971 -1.64418,2.98632 -2.20224,-2.33293 -1.24014,-11.82108 0.9621,-9.48816 -0.0607,-18.13643 -2.27288,-19.21792 -2.21223,-1.08146 -4.02206,6.99439 -4.02206,17.94426 0,10.94985 -2.06026,20.91604 -4.57719,22.14647 -5.06835,2.47775 -6.57613,-12.63427 -4.78458,-47.96307 0.631,-12.44303 -0.60867,-22.62403 -2.75469,-22.6241 -2.14604,-6e-5 -3.90056,-23.21081 -3.90056,-51.58083 0,-28.37001 0.65111,-47.10326 1.44752,-41.62832 0.79642,5.47492 3.23256,9.95459 5.41511,9.95459 2.18256,0 4.943,4.47967 6.13365,9.9546 1.19066,5.47494 2.01952,1.80975 1.84135,-8.14467 -0.51713,-28.89234 0.86284,-38.00848 5.75448,-38.00848 z m -11.76662,58.56289 c -1.07772,-0.006 -1.7619,1.98586 -1.60045,5.08623 0.21958,4.21683 1.30433,5.07461 2.76517,2.187 1.32195,-2.61304 1.15818,-5.73523 -0.36241,-6.93807 -0.28511,-0.22552 -0.5536,-0.33357 -0.80231,-0.33516 z m 9.15228,3.61985 c -1.07772,-0.006 -1.7619,1.98584 -1.60045,5.08623 0.21958,4.21684 1.30434,5.07462 2.76517,2.187 1.32195,-2.61304 1.15823,-5.73524 -0.3624,-6.93806 -0.28512,-0.22552 -0.55362,-0.33358 -0.80232,-0.33517 z m 24.37746,15.63995 c 1.68645,-0.0328 5.18925,0.65981 10.99782,1.97751 8.37645,1.90025 16.07669,3.45436 17.11261,3.45436 1.03595,0 -1.84414,3.25794 -6.39968,7.23972 -7.99636,6.98918 -7.98918,7.49643 0.19901,14.65328 4.66482,4.07728 8.88937,9.37143 9.3869,11.76454 0.49754,2.39308 2.37165,8.83061 4.16452,14.30554 3.89684,11.89992 -0.32645,13.47334 -4.8579,1.80992 -3.9677,-10.21235 -17.7233,-20.81416 -27.00647,-20.81416 -8.38257,0 -9.61575,-14.62346 -1.75756,-20.83929 4.01254,-3.17393 3.91846,-5.50493 -0.38754,-9.60896 -2.78768,-2.65694 -3.62001,-3.90025 -1.45171,-3.94246 z m 18.24592,10.18923 c -1.23679,0.0419 -3.32784,0.45687 -5.68745,1.17309 -3.77537,1.14596 -6.86474,3.73911 -6.86474,5.76076 0,2.11868 2.90818,1.76783 6.86474,-0.82954 3.77537,-2.47844 6.86473,-5.07157 6.86473,-5.76077 0,-0.25845 -0.43522,-0.36871 -1.17728,-0.34354 z m 16.48625,0.70176 c 4.15448,0.15481 14.41838,6.29681 31.31133,23.87679 9.28528,9.66289 10.66266,19.21352 2.28754,15.85782 -3.14614,-1.26057 -1.99325,0.11558 2.56197,3.05845 5.35846,3.46173 6.54422,6.20158 3.358,7.75921 -2.70858,1.32413 -3.82921,3.8104 -2.48864,5.52614 1.34057,1.71575 0.34583,4.14367 -2.21214,5.39417 -2.55797,1.25051 -4.6505,5.43465 -4.6505,9.29893 0,3.86427 -1.83665,7.02603 -4.08072,7.02603 -2.24406,0 -5.37136,4.07243 -6.95062,9.04964 -1.57927,4.9772 -10.21155,9.04964 -13.93896,9.04964 -3.72743,0 -6.77885,1.93976 -6.77885,4.31115 -10.78301,-2.79442 -3.7564,6.42548 -17.77038,6.54841 -5.32739,0 -9.71698,2.03413 -9.7556,4.52273 -0.0506,3.26682 -1.18431,3.13454 -4.07652,-0.47762 -7.70642,-7.10753 -8.44332,13.78268 -14.06255,6.93806 -2.53901,-3.24958 -6.11481,-2.21913 -13.22882,3.82096 -6.75915,5.73878 -9.79114,6.68135 -9.88756,3.071 -1.37181,-6.35823 -8.09649,7.22812 -15.36972,7.46176 -3.24633,0 -8.24818,4.07243 -11.11513,9.04964 -6.27224,10.88896 -4.06418,11.49082 7.17267,1.95028 4.68491,-3.97766 17.00014,-7.96067 27.99941,-9.05383 l 19.63688,-1.95028 -30.71639,16.29145 c -16.89324,8.96057 -32.00602,16.29144 -33.58421,16.29144 -4.24716,0 -15.48808,14.62998 -21.555742,28.05387 -2.92466,6.47038 -3.50027,11.76453 -1.27994,11.76453 2.22034,0 3.69965,1.21962 3.28678,2.7128 2.310642,36.21576 40.861132,38.21774 50.288332,47.64048 2.40993,2.45316 6.6491,0.0514 8.35626,0.90496 1.7702,0.8851 2.328,4.08371 4.51014,5.93882 3.79986,3.23039 10.81682,2.10451 15.73778,3.40505 6.75364,1.78486 13.01644,5.72341 16.31721,12.32497 0.5359,1.07179 0.75664,3.80458 2.14741,4.61165 1.11926,0.6495 2.34028,-0.88289 3.47509,-0.34868 5.65362,2.66144 13.83333,4.62866 17.40171,8.19705 0.45726,0.45726 0.86888,1.40564 1.701,1.92304 3.52463,2.19162 11.95526,6.33657 13.51788,7.1622 6.83269,3.61013 20.21749,9.37712 26.77605,15.12253 6.55854,5.7454 7.0754,6.92796 4.96892,9.85407 -2.1065,2.9261 -11.48625,2.4176 -15.75936,2.03407 -14.80209,-1.37171 -25.74458,-12.48658 -27.61606,-13.47179 -9.46383,-4.98227 -19.40048,-8.55738 -29.2123,-16.16998 -0.46474,0.11368 -1.10524,0.11645 -1.86859,0.0419 3.97544,0.0378 7.21876,-3.17556 7.21876,-7.15172 0,-3.97756 -3.24559,-7.18968 -7.22296,-7.14964 -15.99812,2.04956 -25.80584,1.44508 -37.04694,1.45591 -9.10745,-4.13192 -22.00401,-11.23505 -28.53568,-14.20499 -30.413032,-13.82877 -51.845882,-46.1301 -51.857372,-65.77746 -0.005,-8.73941 18.69011,-40.0209 26.04495,-43.57862 3.291302,-1.59209 5.984902,-4.53895 5.984902,-6.54842 0,-2.00944 -2.06028,-2.64653 -4.577182,-1.41609 -2.51692,1.23043 -4.5751,0.46149 -4.5751,-1.70938 0,-2.17086 3.08727,-4.88502 6.862642,-6.031 3.77538,-1.14595 6.8782,-3.94391 6.89407,-6.21952 0.0255,-3.65554 6.369,-7.49135 37.01553,-22.379 4.25828,-2.06861 10.72432,-5.71965 14.37048,-8.11325 3.64615,-2.3936 7.98427,-3.28122 9.64039,-1.97123 1.6561,1.30998 3.01235,0.20984 3.01235,-2.44467 0,-2.65454 1.27411,-3.81536 2.8322,-2.58291 1.5581,1.23244 5.4621,0.28012 8.67466,-2.11368 3.21261,-2.39379 12.23359,-8.40752 20.04746,-13.36287 7.81388,-4.95536 14.20711,-10.86368 14.20709,-13.13036 0,-2.26669 3.1179,-6.16743 6.92759,-8.66838 8.48712,-5.57157 8.24521,-39.56468 -0.29956,-42.15831 -3.1912,-0.96865 -4.53491,-4.97459 -3.11291,-9.27588 1.92199,-5.81364 1.00719,-6.85951 -3.93827,-4.50178 -5.25548,2.50552 -5.21214,1.87268 0.2409,-3.4376 2.48613,-2.42107 4.16278,-3.98375 6.33894,-3.90266 z m -77.21729,44.64697 c 0.29647,-0.0809 0.63535,0.38809 0.99504,1.47685 1.15106,3.48403 1.15106,9.18544 0,12.66949 -1.15103,3.48406 -2.09272,0.63335 -2.09272,-6.33475 0,-4.79056 0.44545,-7.63382 1.09768,-7.81159 z m 46.09241,81.41322 c 3.66466,0 6.66363,1.35747 6.66363,3.01654 0,1.65908 -1.93859,3.01654 -4.30696,3.01654 -2.36839,0 -5.36737,-1.35746 -6.66363,-3.01654 -1.29628,-1.65907 0.64232,-3.01654 4.30696,-3.01654 z m -79.94684,17.41007 c -1.32324,-0.0307 -2.92506,0.31949 -4.68403,1.17939 -2.72541,1.33236 -3.65956,4.08172 -2.07597,6.10849 1.93171,2.47234 4.49154,2.41114 7.77808,-0.18852 4.40515,-3.48446 2.95159,-7.00759 -1.01808,-7.09936 z m 35.93041,58.34922 c -1.9194,0.0615 -3.58092,1.3736 -5.14489,2.75049 0.12925,2.74728 0.17703,5.52926 0.10893,8.19077 -0.0852,18.46304 3.35754,19.63746 10.49507,2.7086 0.37254,-3.4188 0.78724,-6.38017 1.23594,-8.89671 -2.59837,-3.62554 -4.77565,-4.81466 -6.69505,-4.75315 z m 33.18618,4.96682 c -1.71457,-0.0667 -3.15004,0.93589 -4.49758,2.32735 -0.009,2.9686 -0.55126,4.58997 -1.64443,4.05557 -2.10146,-1.02734 -3.82096,-0.23752 -3.82096,1.75337 0,1.99089 2.05817,4.62461 4.57508,5.85503 0.43923,0.21472 2.73156,6.7119 3.10664,7.0009 l 6.68039,-4.01369 c 0.032,-4.26383 0.10563,-9.23299 0.19901,-14.5632 -1.76238,-1.6642 -3.26457,-2.36341 -4.59815,-2.41533 z m 55.27193,98.20741 c -0.61154,-0.0136 -1.11518,0.0443 -1.47057,0.18645 -1.85036,0.22672 -0.4857,2.05474 -1.51665,2.74208 -1.70191,3.02303 15.88252,13.8975 13.61425,4.03051 -1.06517,-3.23139 -6.34632,-6.86351 -10.62703,-6.95904 z m 7.51203,55.85005 c 1.37984,15.17813 -39.18348,11.00712 0,0 z m -5.40045,24.90753 c 3.38632,-0.1397 6.44152,2.0349 -1.55646,6.7809 -12.44455,7.5303 -13.18248,4.5258 -24.12817,9.4225 -40.465,18.1027 -41.72399,20.3062 -85.5484,39.544 -15.78868,6.9308 -29.381112,13.8217 -41.538262,21.4741 -5.58243,3.5138 -8.61391,11.8564 -14.07511,11.6493 -2.44781,-4.4718 -0.006,-8.9435 0,-13.4153 0.0192,-13.6146 8.90371,-23.2579 21.28969,-30.9783 12.385982,-7.7203 17.250532,-15.4152 28.617382,-19.6787 18.6892,-7.0101 61.18806,-20.0275 65.94086,-19.4316 1.83943,0.2628 -1.14732,4.2867 -3.88381,6.473 -2.55638,2.0424 3.98415,1.4952 5.501,0.7688 8.5722,-4.1051 10.53666,-2.361 13.5158,-3.2218 4.88683,-1.4121 10.93407,-5.7104 14.90468,-6.3787 3.36029,-0.5656 5.97485,2.9399 9.96927,1.3972 7.21708,-2.7875 8.35773,-4.2968 10.99153,-4.4054 z M 85.741478,729.727 c 1.30447,-0.1618 10.47982,3.7506 11.98868,6.5526 1.50884,2.8021 -3.46065,3.516 -3.46065,6.1148 0,3.9776 3.24557,7.1918 7.222942,7.1518 l 20.56698,-0.9574 c 18.90413,8.2706 57.65583,16.6532 76.14265,28.2634 1.78063,1.1182 3.27435,3.6356 0.32888,3.6659 -2.98375,0.03 -8.94375,-1.3264 -14.75384,-2.3713 -5.87339,1.0433 -7.22295,3.1721 -7.22295,7.1496 0,3.9775 3.24558,7.1918 7.22295,7.1517 0,0 10.65148,-2.6121 16.0652,-2.4384 3.81079,0.1224 11.17589,2.4384 11.17589,2.4384 0.94168,2.9618 0.79029,6.8902 -2.08855,11.4084 -2.48021,3.8926 -51.60033,-16.7672 -83.63791,-27.7522 -12.23973,-4.1968 -19.2374,-13.2609 -31.631842,-21.0865 -6.19723,-3.9128 -11.55358,-8.1508 -15.22099,-12.4013 -3.66741,-4.2506 11.10121,4.9831 9.74513,1.3134 -1.02193,-2.7653 -11.59536,-10.2861 -6.48768,-9.8562 3.02821,0.255 1.74668,-4.0617 4.04511,-4.3467 z"
       id="path4589"
       inkscape:connector-curvature="0"
       sodipodi:nodetypes="sscsccsccscccssscccsccsccsssscccsccsscccscccsccccccccscccsssssssccscsscscccccccccscssscscscscsscssssccccccsccccccccscssscssccccscscsscscsccsccccccscccsccccssccccscccscccccscccscsscscscssccsccsscsccccsscsccsccccsssccsssscsccsscsssscscccsssccscscccsscsscccscscscssscssccccccccccccscsccsssscscscsscccccccsssscccccccccscccscsccsssssssscssccccsccscsscscccscsccsccsscccccscscssscsccccccccccccccsccccccccccccscsssccsccscscsscssccsccscccssssssc"
       inkscape:label="Logo Rod" />
    <text
       xml:space="preserve"
       style="font-style:normal;font-variant:normal;font-weight:normal;font-stretch:normal;font-size:373.33334351px;line-height:1;font-family:P052;-inkscape-font-specification:P052;letter-spacing:0px;word-spacing:0px;fill:#000000;fill-opacity:1;stroke:none"
       x="419.07468"
       y="402.86279"
       id="text846"
       inkscape:label="Logo Text"><tspan
         sodipodi:role="line"
         x="419.07468"
         y="402.86279"
         id="tspan850"
         style="font-style:normal;font-variant:normal;font-weight:normal;font-stretch:normal;font-family:P052;-inkscape-font-specification:P052">ИХБФМ</tspan><tspan
         sodipodi:role="line"
         x="419.07468"
         y="776.19617"
         id="tspan838"
         style="font-style:normal;font-variant:normal;font-weight:normal;font-stretch:normal;font-family:P052;-inkscape-font-specification:P052">СО РАН</tspan></text>
  </g>
</svg>
