<?xml version="1.0" encoding="UTF-8" standalone="no"?>
<!-- Created with Inkscape (http://www.inkscape.org/) -->

<svg
   xmlns:dc="http://purl.org/dc/elements/1.1/"
   xmlns:cc="http://creativecommons.org/ns#"
   xmlns:rdf="http://www.w3.org/1999/02/22-rdf-syntax-ns#"
   xmlns:svg="http://www.w3.org/2000/svg"
   xmlns="http://www.w3.org/2000/svg"
   xmlns:sodipodi="http://sodipodi.sourceforge.net/DTD/sodipodi-0.dtd"
   xmlns:inkscape="http://www.inkscape.org/namespaces/inkscape"
   width="1490.741pt"
   height="547.02673pt"
   id="svg2"
   sodipodi:version="0.32"
   inkscape:version="0.92.2 5c3e80d, 2017-08-06"
   sodipodi:docname="Rod_of_Asclepius2.svg"
   inkscape:output_extension="org.inkscape.output.svg.inkscape"
   version="1.0">
  <defs
     id="defs4">
    <inkscape:path-effect
       effect="simplify"
       id="path-effect4542"
       is_visible="true"
       steps="1"
       threshold="0.00741464"
       smooth_angles="360"
       helper_size="0"
       simplify_individual_paths="false"
       simplify_just_coalesce="false"
       simplifyindividualpaths="false"
       simplifyJustCoalesce="false" />
    <inkscape:path-effect
       effect="simplify"
       id="path-effect4538"
       is_visible="true"
       steps="1"
       threshold="0.00741464"
       smooth_angles="360"
       helper_size="0"
       simplify_individual_paths="false"
       simplify_just_coalesce="false"
       simplifyindividualpaths="false"
       simplifyJustCoalesce="false" />
    <inkscape:path-effect
       effect="spiro"
       id="path-effect4534"
       is_visible="true" />
    <inkscape:perspective
       sodipodi:type="inkscape:persp3d"
       inkscape:vp_x="0 : 561.25983 : 1"
       inkscape:vp_y="0 : 1066.6667 : 0"
       inkscape:vp_z="793.70078 : 561.25983 : 1"
       inkscape:persp3d-origin="396.85039 : 374.17322 : 1"
       id="perspective10" />
    <inkscape:perspective
       id="perspective2390"
       inkscape:persp3d-origin="396.85039 : 374.17322 : 1"
       inkscape:vp_z="793.70078 : 561.25983 : 1"
       inkscape:vp_y="0 : 1066.6667 : 0"
       inkscape:vp_x="0 : 561.25983 : 1"
       sodipodi:type="inkscape:persp3d" />
  </defs>
  <sodipodi:namedview
     id="base"
     pagecolor="#ffffff"
     bordercolor="#666666"
     borderopacity="1.0"
     gridtolerance="10000"
     guidetolerance="10"
     objecttolerance="10"
     inkscape:pageopacity="0.0"
     inkscape:pageshadow="2"
     inkscape:zoom="0.175"
     inkscape:cx="1065.0145"
     inkscape:cy="282.35342"
     inkscape:document-units="px"
     inkscape:current-layer="layer1"
     showgrid="false"
     inkscape:window-width="1920"
     inkscape:window-height="1024"
     inkscape:window-x="0"
     inkscape:window-y="30"
     showguides="false"
     inkscape:guide-bbox="true"
     inkscape:snap-bbox="true"
     inkscape:snap-smooth-nodes="true"
     inkscape:window-maximized="1"
     fit-margin-top="6"
     units="pt"
     fit-margin-left="12"
     fit-margin-bottom="6"
     fit-margin-right="12"
     inkscape:object-paths="false">
    <sodipodi:guide
       position="86.710038,367.26514"
       orientation="1,0"
       id="guide3707"
       inkscape:locked="false" />
    <sodipodi:guide
       position="172.42793,409.20918"
       orientation="1,0"
       id="guide3709"
       inkscape:locked="false" />
    <sodipodi:guide
       position="230.1517,395.54942"
       orientation="1,0"
       id="guide3711"
       inkscape:locked="false" />
    <sodipodi:guide
       position="28.121188,197.55952"
       orientation="1,0"
       id="guide3713"
       inkscape:locked="false" />
    <sodipodi:guide
       position="147.85714,288"
       orientation="0,1"
       id="guide4563"
       inkscape:locked="false"
       inkscape:label=""
       inkscape:color="rgb(0,0,255)" />
    <sodipodi:guide
       position="172.42793,248"
       orientation="0,1"
       id="guide4565"
       inkscape:locked="false"
       inkscape:label=""
       inkscape:color="rgb(0,0,255)" />
    <sodipodi:guide
       position="111.42857,208"
       orientation="0,1"
       id="guide4567"
       inkscape:locked="false"
       inkscape:label=""
       inkscape:color="rgb(0,0,255)" />
    <sodipodi:guide
       position="137.85714,168"
       orientation="0,1"
       id="guide4569"
       inkscape:locked="false"
       inkscape:label=""
       inkscape:color="rgb(0,0,255)" />
    <sodipodi:guide
       position="145,128"
       orientation="0,1"
       id="guide4571"
       inkscape:locked="false"
       inkscape:label=""
       inkscape:color="rgb(0,0,255)" />
    <sodipodi:guide
       position="136.42857,88"
       orientation="0,1"
       id="guide4573"
       inkscape:locked="false"
       inkscape:label=""
       inkscape:color="rgb(0,0,255)" />
    <sodipodi:guide
       position="142.85714,48"
       orientation="0,1"
       id="guide4575"
       inkscape:locked="false"
       inkscape:label=""
       inkscape:color="rgb(0,0,255)" />
    <inkscape:grid
       type="xygrid"
       id="grid4591" />
    <sodipodi:guide
       position="128.62109,545.87093"
       orientation="0,1"
       id="guide852"
       inkscape:locked="false" />
  </sodipodi:namedview>
  <metadata
     id="metadata7">
    <rdf:RDF>
      <cc:Work
         rdf:about="">
        <dc:format>image/svg+xml</dc:format>
        <dc:type
           rdf:resource="http://purl.org/dc/dcmitype/StillImage" />
        <dc:title />
      </cc:Work>
    </rdf:RDF>
  </metadata>
  <g
     inkscape:label="Layer 1"
     inkscape:groupmode="layer"
     id="layer1"
     transform="translate(-68.256722,-92.21748)">
    <path
       style="color:#000000;font-style:normal;font-variant:normal;font-weight:normal;font-stretch:normal;font-size:medium;line-height:normal;font-family:sans-serif;font-variant-ligatures:normal;font-variant-position:normal;font-variant-caps:normal;font-variant-numeric:normal;font-variant-alternates:normal;font-feature-settings:normal;text-indent:0;text-align:start;text-decoration:none;text-decoration-line:none;text-decoration-style:solid;text-decoration-color:#000000;letter-spacing:normal;word-spacing:normal;text-transform:none;writing-mode:lr-tb;direction:ltr;text-orientation:mixed;dominant-baseline:auto;baseline-shift:baseline;text-anchor:start;white-space:normal;shape-padding:0;clip-rule:nonzero;display:inline;overflow:visible;visibility:visible;opacity:1;isolation:auto;mix-blend-mode:normal;color-interpolation:sRGB;color-interpolation-filters:linearRGB;solid-color:#000000;solid-opacity:1;vector-effect:none;fill:#000000;fill-opacity:1;fill-rule:nonzero;stroke:none;stroke-width:13.33333302;stroke-linecap:round;stroke-linejoin:round;stroke-miterlimit:4;stroke-dasharray:none;stroke-dashoffset:0;stroke-opacity:1;color-rendering:auto;image-rendering:auto;shape-rendering:auto;text-rendering:auto;enable-background:accumulate"
       d="m 154.82031,8 c -1.14335,0 -7.73656,3.185918 -14.65039,7.080078 -8.4877,4.78063 -15.97701,6.403947 -23.05859,4.998047 -6.0004,-1.19124 -10.48828,-0.610218 -10.48828,1.357422 0,1.89159 3.36012,3.459065 7.46679,3.484375 4.10667,0.0254 11.78641,0.962781 17.06641,2.082031 5.97063,1.26567 9.60156,0.536061 9.60156,-1.931641 0,-2.182248 -2.21654,-2.885006 -4.92578,-1.560546 -2.98284,1.4582 -3.77181,0.928353 -1.99805,-1.341797 1.61106,-2.06196 5.74851,-2.893294 9.19336,-1.847657 3.59888,1.092391 6.29063,-0.04623 6.32813,-2.677734 0.0504,-3.53382 1.00975,-3.423808 4.20117,0.482422 5.86471,7.17834 5.23429,10.207049 -1.68945,8.105469 -3.27652,-0.99454 -8.65707,1.240107 -11.95703,4.966797 -6.68832,7.5532 -15.68854,7.644346 -27.52344,0.279296 -7.08419,-4.408598 -7.35074,-4.360865 -2.59961,0.458985 5.43829,5.51695 3.24265,9.853219 -4.94141,9.761719 -2.54222,-0.0284 -2.06083,-1.33626 1.07032,-2.90625 4.38676,-2.19958 3.13195,-4.447725 -5.47461,-9.802735 -6.501886,-4.04547 -9.326699,-7.850589 -6.759769,-9.105469 2.42529,-1.185639 4.438709,-0.168101 4.474609,2.261719 0.0488,3.30012 1.05631,3.176845 3.98437,-0.484375 7.78244,-9.73102 -1.2416,-13.0291126 -14.283198,-5.220703 -5.83667,3.4946 -6.877126,6.057848 -3.722656,9.173828 2.40766,2.37829 5.602319,7.493218 7.099609,11.367188 2.31162,5.98087 0.0954,7.666072 -14.689453,11.169922 -25.49007,6.04089 -67.29261,32.847462 -68.300781,47.820312 -2.662411,39.540877 24.421668,64.029327 69.517578,78.933597 8.51322,2.81363 16.334599,6.27893 17.380859,7.69922 1.04626,1.42029 3.196024,22.32426 4.777344,46.45507 l 2.874998,43.875 -16.218748,8.24219 c -50.69381,25.76734 -69.660735,58.12281 -56.332031,96.0957 6.60467,18.81643 19.331273,30.9562 51.751953,48.39258 4.538968,2.53371 9.761222,5.76832 13.939453,7.97656 -3.158947,0.28722 -6.222897,-0.76864 -9.476563,-1.21093 -3.674726,-0.49953 -6.734374,2.9575 -6.734375,6.66601 0,3.70852 3.037534,6.96209 6.734375,6.66797 11.034367,-0.87788 21.471186,-2.81769 35.046876,-1.38672 17.51544,8.22926 34.83778,15.91496 49.46094,23.61328 1.02286,0.53849 5.18193,2.77026 7.82422,4.64844 3.3179,2.35841 7.01921,4.89669 -0.76563,4.50586 l -25.49219,0.86328 -65.822262,-3.30469 c -3.708334,-0.0374 -6.734373,2.95751 -6.734376,6.66602 0,3.70852 3.026042,6.70532 6.734376,6.66797 L 152.5,485.17969 l 47.33594,2.85742 c 4.08199,4.72376 4.84868,9.44829 -0.47266,12.42383 -11.67454,6.35615 -20.05234,11.74582 -26.06445,14.29687 -0.28675,-0.0353 -7.64668,2.97415 -7.93945,2.97657 l -29.63868,0.7539 -42.949216,-3.2793 c -3.708334,-0.0374 -12.79492,2.45165 -12.794922,6.16016 0,3.70852 3.026042,6.70532 6.734376,6.66797 l 49.546872,-2.5 c 2.2886,-0.11548 5.272,2.35064 3.60938,3.20117 -9.70996,4.96725 -42.308062,17.27541 -54.326174,21.7832 -10.404207,3.90244 -17.267952,8.87148 -29.763672,16.66016 -12.49571,7.78868 -22.988282,18.8976 -22.988282,34.53906 v 28.40625 c 0,5.77469 2.739456,11.08849 6.808594,15.80469 4.069134,4.7162 9.541848,8.97041 15.679688,12.8457 12.27569,7.75059 19.250552,13.95884 31.013672,17.99219 29.479794,10.10804 82.727354,38.12731 86.136714,33.83594 1.92656,-2.42496 2.35722,-13.38468 1.98243,-22.84766 2.74698,-0.82232 4.7539,-3.36921 4.7539,-6.38867 0,-3.49911 -2.69423,-6.36057 -5.55664,-8.13476 -4.72514,1.37489 -61.17235,-21.84045 -63.78515,-24.14063 -2.6128,-2.30018 -0.56193,-2.72019 1.42187,-3.24609 1.9838,-0.5259 61.18555,2.18945 61.18555,2.18945 3.70833,0.0374 6.73437,-2.95945 6.73437,-6.66797 0,-3.70851 -3.02604,-6.70336 -6.73437,-6.66602 l -58.87891,4.5293 -31.994139,-0.7793 c -11.167572,-5.3234 -17.57522,-14.77074 -26.835938,-22.64648 -0.74077,-4.51626 -1.693807,-4.84431 1.408203,-6.79687 0.560867,-0.35304 1.138086,-0.70436 1.720703,-1.05469 6.202877,-1.21602 7.512796,-4.72372 10.966797,-2.59766 l 50.443364,-1.01172 53.16992,3.69141 c 3.70833,0.0374 6.73437,-2.95945 6.73437,-6.66797 0,-3.70851 -3.02604,-6.70335 -6.73437,-6.66602 0,0 -27.73295,2.18456 -53.1543,2.90821 -13.84858,0.39422 -26.759349,0.10315 -34.707031,-0.63086 -7.164109,-0.66164 -5.911201,-3.82684 3.482422,-7.2793 24.897209,-9.15052 36.907629,-15.92951 50.912109,-21.91015 2.24909,0.44821 8.02159,-2.79886 10.37695,-2.78516 17.71285,0.10304 14.89893,3.02625 23.08985,3.03125 3.70833,0.0374 6.73437,-2.95751 6.73437,-6.66602 0,-3.24495 -0.58824,-5.27054 -4.3164,-5.07812 -0.53259,0.0275 -5.87621,0.65896 -6.45704,0.68164 -1.43162,0.0559 0.15211,-1.29585 1.36329,-2.61914 1.39181,-0.62005 2.55294,-1.12988 4.03515,-1.79297 10.1601,-4.54528 20.69747,-10.89692 32.86524,-18.25977 6.08388,-3.68142 11.58741,-7.60398 15.73047,-11.85546 4.14307,-4.25147 7.10156,-8.98282 7.10156,-14.29493 V 481.5957 c 0,-8.74808 -5.6341,-16.09183 -12.44531,-22.05859 -6.81122,-5.96676 -15.0815,-10.74881 -21.65625,-14.22266 C 185.23459,439.95147 134.29911,411.59847 88.257812,388.32227 69.257483,370.11426 69.758021,345.3103 89.525391,330.33008 l 11.976559,-9.07617 0.37696,7.90234 c 0.18255,3.82636 2.33499,7.45778 3.57421,15.58789 3.8551,1.95491 6.73837,11.86584 14.57227,6.13867 -1.49218,-6.38256 -4.11943,-16.28028 -5.05273,-22.22265 -2.41427,-15.37169 8.12088,-13.88947 14.01757,-12.09961 10.88464,-12.43567 3.46574,15.27327 3.48829,18.32617 0.0193,2.61025 -1.99932,10.39733 2.78906,17.51367 9.09011,9.04151 7.49861,0.90557 10.78515,1.35742 l 1.10352,-52.80664 19.20117,-8.41797 c 22.93836,-10.05754 49.39075,-26.29813 57.69727,-38.83984 7.75598,-11.71034 7.74729,-39.15209 -0.0156,-53.75391 -3.32779,-6.2594 -11.48727,-15.35432 -18.13281,-20.21289 -15.9937,-11.69303 -54.45639,-27.18736 -58.08594,-24.3164 -1.58276,1.25197 -1.64337,-15.83712 -0.13476,-37.97461 1.50861,-22.137512 2.80666,-41.970309 2.88476,-44.072269 0.0988,-2.65912 4.13576,-2.913847 13.26953,-0.841797 16.36723,3.713 78.06988,3.930307 80.91797,0.285157 3.84157,-4.9167 -3.64214,-10.238493 -16.57031,-11.783203 -7.0195,-0.838721 -1.33811,-0.853354 12.62695,-0.03125 13.96507,0.82211 29.07724,3.05587 33.58203,4.96289 5.44953,2.30691 7.29526,2.322638 5.51563,0.04492 -1.47114,-1.88288 -0.26239,-4.194656 2.68555,-5.134766 2.94796,-0.94012 -2.80011,-1.828079 -12.77344,-1.974609 -13.43513,-0.19741 -18.13281,-1.630947 -18.13281,-5.529297 0,-2.89386 -1.90631,-4.329516 -4.23438,-3.191406 -2.32809,1.13813 -7.60717,0.354642 -11.73242,-1.742188 -7.09242,-3.60501 -7.09366,-3.713032 -0.0332,-1.976562 4.10667,1.01 7.46484,0.364356 7.46484,-1.433594 0,-1.79797 -2.27363,-3.269531 -5.05273,-3.269531 -2.77909,0 -13.47103,-3.222359 -23.75977,-7.162109 -13.27833,-5.08448 -23.53234,-6.650958 -35.33789,-5.398438 -9.14757,0.97052 -16.38124,0.777573 -16.07422,-0.429688 C 163.82942,25.227162 157.09803,8 154.82031,8 Z m 39.95899,23.712891 c 2.08754,-0.0237 0.1978,1.232684 -4.95508,4.466797 -5.95881,3.739929 -6.71108,5.38798 -2.49024,5.46289 3.32444,0.059 4.92986,0.98986 3.56641,2.06836 -1.36346,1.078488 -6.43976,0.283944 -11.28125,-1.765626 -6.9077,-2.924239 -8.3414,-2.776106 -6.66016,0.689454 1.45718,3.00372 -2.32718,4.665112 -11.83007,5.195312 l -13.97266,0.779297 13.81641,-6.730469 c 7.59806,-3.70182 19.11767,-7.703028 25.59961,-8.892578 4.26996,-0.78361 6.9545,-1.259207 8.20703,-1.273437 z m 8.01953,11.333984 c 1.51374,0.0351 2.96464,0.634938 3.80078,1.705078 1.33781,1.71223 6.75164,2.274014 12.0293,1.246094 5.27766,-1.02792 8.51895,-0.921919 7.20312,0.238281 -1.31583,1.16022 -7.07661,2.732208 -12.80078,3.492188 -5.72417,0.75997 -10.00244,2.894257 -9.50781,4.742187 0.49465,1.84793 -1.42627,3.298639 -4.26758,3.224609 -13.26485,-0.34566 -20.09961,1.239853 -20.09961,4.664063 0,2.05481 2.81881,2.881569 6.26367,1.835937 3.44484,-1.045628 7.42892,-0.412606 8.85156,1.408204 1.52745,1.95493 11.62948,2.399444 24.66993,1.083984 12.14583,-1.22524 20.84915,-1.173856 19.34179,0.115234 -4.68988,4.01081 -41.10276,5.90183 -43.93164,2.28125 -1.46736,-1.87804 -5.33864,-2.604281 -8.60351,-1.613281 -6.78987,2.06096 -17.30683,-10.755784 -11.25391,-13.714844 2.14125,-1.04679 7.26022,-0.882392 11.37695,0.367188 5.54706,1.68372 6.57156,1.103173 3.95313,-2.248047 -2.60342,-3.33203 -1.60774,-3.938311 3.78711,-2.300781 4.04915,1.22906 6.23932,0.83528 4.89844,-0.88086 -1.3335,-1.7067 -0.60561,-3.991475 1.61718,-5.078125 0.83355,-0.40749 1.76363,-0.589449 2.67188,-0.568359 z m -60.92188,2.888672 c 0.94773,0.18241 2.67059,1.968566 5.77344,5.472656 5.22077,5.89586 5.69674,8.731333 1.95703,11.689453 -3.7397,2.95811 -5.70007,2.93311 -8.07422,-0.105468 -2.06535,-2.643372 -5.27964,-2.939238 -9.42187,-0.867188 -5.2486,2.62547 -5.28798,3.154146 -0.24219,3.197266 9.38224,0.0802 1.65255,4.384597 -9.18945,5.117187 -5.31033,0.35882 -15.05992,2.402839 -21.66602,4.542969 -6.606092,2.14014 -13.571954,3.890625 -15.478514,3.890625 -1.90658,0 -5.838381,2.2615 -8.738281,5.025391 -2.89989,2.76388 -6.774495,4.291531 -8.609375,3.394531 -3.41727,-1.67059 -6.816509,3.393507 -12.755859,19.000001 -2.64896,6.96053 -1.212223,10.69811 6.710937,17.45703 5.54509,4.7303 14.009927,9.5858 18.810547,10.79102 4.80062,1.20522 7.546416,3.70406 6.103516,5.55078 -1.46482,1.87477 0.863384,2.88424 5.271484,2.28711 6.69441,-0.90684 7.896485,1.19644 7.896485,13.83593 0,14.14831 -6.682518,21.61223 -12.585938,14.05664 -1.48558,-1.90135 -10.782073,-6.33059 -20.658203,-9.84375 -9.87614,-3.51314 -30.756377,-10.63612 -36.623047,-15.82812 -5.86666,-5.192 -8.446908,-8.43507 -5.732422,-7.20508 3.28387,1.48798 4.188915,-0.0233 2.703125,-4.51758 -1.22818,-3.715 -3.520154,-6.7539 -5.09375,-6.7539 -1.57359,0 -3.154365,-3.07167 -3.511719,-6.82422 -0.377792,-3.96714 1.214682,-5.90975 3.802735,-4.64453 2.44805,1.19676 0.891085,-2.12929 -3.458985,-7.39063 -5.20224,-6.29202 -1.308637,-16.64603 2.641389,-14.71989 10.751823,-1.463025 -1.804183,-7.979697 4.675017,-12.125811 2.30233,-1.12553 3.658472,-0.218035 3.013672,2.015625 2.374865,0.928365 5.450016,-1.066069 6.996094,-3.09375 1.69806,-2.1733 12.830124,-3.099324 14.958984,-2.058594 4.60512,2.25129 27.539063,-6.686402 27.539063,-10.732422 0,-1.5486 2.400654,-2.380476 5.333984,-1.847656 2.93334,0.53283 5.332032,-0.777893 5.332032,-2.914063 0,-2.13618 2.88039,-3.011799 6.40039,-1.943359 4.111999,1.24815 6.506549,-0.130782 6.699219,-3.857422 0.25017,-4.83853 0.90788,-4.679568 3.9668,0.951172 2.01679,3.71243 3.80185,4.951256 3.96679,2.753906 0.18628,-2.48182 4.74445,-3.368847 12.03321,-2.341797 11.34169,1.59813 11.44968,1.477036 3.20117,-3.607421 -8.00229,-4.932702 -8.02556,-5.118295 -0.36719,-2.990235 6.17493,1.71586 7.39911,1.101996 5.01758,-2.521484 -1.73232,-2.63571 -0.12761,-1.845348 3.56641,1.757812 6.5745,6.41278 6.71679,6.413738 6.71679,0.0918 0,-2.90689 0.17141,-4.326941 1.11914,-4.144531 z m -45.671872,3.699219 c 1.13542,0.0889 1.884766,0.812415 1.884766,2.041015 0,1.96576 -1.918955,3.572266 -4.265625,3.572266 -2.34666,0 -4.267578,-0.669721 -4.267578,-1.488281 0,-0.81856 1.920918,-2.425066 4.267578,-3.572266 0.88,-0.43021 1.699609,-0.606074 2.380859,-0.552734 z m 64.464842,10.484375 c 0.77843,-0.0315 1.90815,0.159594 3.33203,0.591797 3.64188,1.105437 6.6211,2.60837 6.6211,3.33789 0,2.73341 -8.12912,1.197125 -10.63477,-2.009766 -0.93423,-1.195689 -0.61573,-1.867391 0.68164,-1.919921 z M 57.556641,65.373047 c 3.52,0 6.40039,1.431064 6.40039,3.177734 0,4.25572 -6.663505,7.301799 -10.072265,4.605469 -4.80506,-3.80081 -2.926145,-7.783203 3.671875,-7.783203 z m 38.314453,18.556641 c 5.377666,0.039 6.486326,7.341046 6.486326,23.736332 0,28.36229 -4.829884,31.8186 -23.660154,16.92382 -13.05809,-10.32895 -13.391557,-22.21173 -0.873047,-31.124996 8.68998,-6.18734 14.367415,-9.561797 18.046875,-9.535156 z m 32.085936,5.068359 c 2.34666,0 4.26758,3.79695 4.26758,8.4375 0,4.640543 1.91895,8.437503 4.26562,8.437503 5.38722,0 5.63705,15.80838 0.29102,18.42187 -2.18696,1.06912 -4.80573,-1.49908 -5.81836,-5.70703 -1.01262,-4.20795 -0.91337,2.97915 0.2207,15.97266 1.13406,12.99352 3.95709,24.57409 6.27344,25.73437 2.34295,1.1736 2.94869,6.66335 1.36328,12.37305 -3.66029,13.1822 1.83621,39.23737 6.20117,29.39453 2.74401,-6.18767 3.84897,-5.91719 16.40625,4.01562 7.4047,5.85714 13.4629,14.10066 13.46289,18.31836 0,7.3257 -19.1283,26.59766 -26.39843,26.59766 -1.90763,0 -3.46875,-8.44104 -3.46875,-18.75976 0,-10.65382 -1.70673,-17.92732 -3.95117,-16.83008 -2.17385,1.06272 -5.17351,-6.82123 -6.66407,-17.51953 -3.88672,-27.89644 -5.41601,-31.69699 -5.78711,-14.38672 -0.17908,8.35297 2.22069,26.57642 5.33203,40.49804 3.11137,13.92162 4.28283,26.06995 2.60352,26.99805 -1.67929,0.92812 -4.30688,3.96568 -5.83984,6.75 -1.53297,2.78432 -2.05327,-2.17513 -1.15625,-11.02148 0.89702,-8.84636 -0.0566,-16.90964 -2.11914,-17.91797 -2.06259,-1.00832 -3.75,6.52127 -3.75,16.73047 0,10.20918 -1.92091,19.50123 -4.26758,20.64843 -4.72551,2.31015 -6.13131,-11.77965 -4.46094,-44.71875 0.58832,-11.60135 -0.5675,-21.09368 -2.56836,-21.09375 -2.00087,-6e-5 -3.63672,-21.64078 -3.63672,-48.09179 0,-26.451 0.60707,-43.9171 1.34961,-38.8125 0.74254,5.10459 3.0139,9.28125 5.04883,9.28125 2.03492,0 4.60864,4.17666 5.71875,9.28125 1.11012,5.1046 1.88292,1.68733 1.7168,-7.59375 -0.48215,-26.937992 0.80447,-35.437503 5.36523,-35.437503 z m -10.9707,54.601563 c -1.00482,-0.006 -1.64272,1.85153 -1.49219,4.74219 0.20473,3.9316 1.2161,4.73135 2.57813,2.03906 1.23252,-2.43628 1.07983,-5.34728 -0.33789,-6.46875 -0.26584,-0.21028 -0.51617,-0.31101 -0.74805,-0.3125 z m 8.5332,3.375 c -1.00482,-0.006 -1.64272,1.85152 -1.49219,4.74219 0.20473,3.9316 1.21611,4.73136 2.57813,2.03906 1.23253,-2.43628 1.07988,-5.34729 -0.33789,-6.46875 -0.26584,-0.21027 -0.51617,-0.31102 -0.74805,-0.3125 z m 22.72852,14.58203 c 1.57237,-0.0306 4.83824,0.61517 10.2539,1.84375 7.80985,1.77171 14.98922,3.2207 15.95508,3.2207 0.96587,0 -1.7194,3.03757 -5.9668,6.75 -7.45547,6.51642 -7.44877,6.98936 0.18555,13.66211 4.34929,3.80148 8.28807,8.73752 8.75195,10.96875 0.46388,2.23121 2.21122,8.23329 3.88282,13.33789 3.63325,11.09498 -0.30437,12.56197 -4.5293,1.6875 -3.69931,-9.52157 -16.52445,-19.40625 -25.17969,-19.40625 -7.81555,0 -8.96532,-13.63429 -1.63867,-19.42968 3.74112,-2.95923 3.6534,-5.13257 -0.36133,-8.95899 -2.59912,-2.47721 -3.37514,-3.63643 -1.35351,-3.67578 z m 17.01172,9.5 c -1.15313,0.0391 -3.10274,0.42597 -5.30274,1.09375 -3.52,1.06844 -6.40039,3.48618 -6.40039,5.37109 0,1.97536 2.71146,1.64824 6.40039,-0.77343 3.52,-2.3108 6.40039,-4.72852 6.40039,-5.3711 0,-0.24097 -0.40578,-0.34377 -1.09765,-0.32031 z m 15.37109,0.6543 c 3.87346,0.14434 13.44308,5.87088 29.19336,22.26172 8.6572,9.00926 9.94142,17.91386 2.13281,14.78515 -2.93334,-1.1753 -1.85843,0.10776 2.38867,2.85157 4.99601,3.22758 6.10155,5.78209 3.13086,7.23437 -2.52537,1.23456 -3.5702,3.55264 -2.32031,5.15234 1.24989,1.59969 0.32244,3.86338 -2.0625,5.0293 -2.38495,1.16592 -4.33594,5.06703 -4.33594,8.66992 0,3.60288 -1.71241,6.55078 -3.80469,6.55078 -2.09226,0 -5.00802,3.79696 -6.48046,8.4375 -1.47244,4.64053 -9.52082,8.4375 -12.9961,8.4375 -3.47529,0 -6.32031,1.80855 -6.32031,4.01953 -10.05363,-2.60539 -3.50232,5.99086 -16.56836,6.10547 -4.96703,0 -9.0597,1.89653 -9.0957,4.2168 -0.0472,3.04585 -1.10421,2.92251 -3.80078,-0.44531 -7.18514,-6.62676 -7.8722,12.85039 -13.11133,6.46875 -2.36726,-3.02977 -5.70119,-2.06902 -12.33399,3.5625 -6.30195,5.3506 -9.12885,6.22941 -9.21875,2.86328 -1.27902,-5.92815 -7.54882,6.73919 -14.33007,6.95703 -3.026746,0 -7.690256,3.79695 -10.363286,8.4375 -5.84797,10.15241 -3.78927,10.71356 6.6875,1.81836 4.368006,-3.70861 15.850216,-7.42219 26.105466,-8.44141 l 18.3086,-1.81836 -28.63867,15.18946 c -15.75055,8.35445 -29.841065,15.18945 -31.312505,15.18945 -3.95987,0 -14.440426,13.64038 -20.097656,26.15625 -2.72683,6.0327 -3.2635,10.96875 -1.19336,10.96875 2.07015,0 3.449394,1.13713 3.064453,2.5293 2.154343,33.76605 38.097188,35.63261 46.886718,44.41797 2.24691,2.28723 6.19934,0.0479 7.79102,0.84375 1.65046,0.82523 2.17053,3.80748 4.20507,5.53711 3.54283,3.01188 10.08514,1.96216 14.67324,3.17472 6.29681,1.66413 12.13598,5.33627 15.21348,11.49129 0.49965,0.99929 0.70546,3.54723 2.00216,4.2997 1.04355,0.60557 2.18197,-0.82317 3.24003,-0.32509 5.27119,2.48141 12.89761,4.31557 16.22461,7.64258 0.42633,0.42633 0.81011,1.31056 1.58594,1.79297 3.28622,2.04337 11.14658,5.90794 12.60351,6.67773 6.3705,3.36593 18.84993,8.74282 24.96485,14.09961 6.11491,5.35678 6.59681,6.45931 4.63281,9.1875 -1.964,2.72819 -10.70929,2.25405 -14.69336,1.89649 -13.80084,-1.27888 -24.00316,-11.64197 -25.74805,-12.56055 -8.82367,-4.64522 -18.08819,-7.97852 -27.23632,-15.07617 -0.4333,0.10599 -1.03047,0.10856 -1.74219,0.0391 3.70653,0.0352 6.73047,-2.96076 6.73047,-6.66797 0,-3.70851 -3.02605,-6.70335 -6.73438,-6.66602 -14.91598,1.91092 -24.06028,1.34733 -34.54101,1.35743 C 104.825,432.20816 92.800801,425.5855 86.710938,422.81645 58.355125,409.92309 38.372028,379.8067 38.361328,361.48832 c -0.005,-8.14825 17.425863,-37.31379 24.283203,-40.63086 3.06868,-1.4844 5.580078,-4.23193 5.580078,-6.10547 0,-1.87352 -1.920918,-2.46752 -4.267578,-1.32031 -2.34667,1.1472 -4.265625,0.43027 -4.265625,-1.59375 0,-2.02402 2.878438,-4.55459 6.398438,-5.62305 3.52,-1.06844 6.412934,-3.67714 6.427734,-5.79882 0.0238,-3.40827 5.93819,-6.98462 34.511722,-20.86524 3.97024,-1.92868 9.9989,-5.33275 13.39843,-7.56445 3.39952,-2.23169 7.4442,-3.05926 8.98829,-1.83789 1.54408,1.22137 2.80859,0.19565 2.80859,-2.2793 0,-2.47498 1.18792,-3.55729 2.64062,-2.4082 1.4527,1.14907 5.09264,0.26117 8.08789,-1.97071 2.9953,-2.23187 11.40608,-7.83882 18.69141,-12.45898 7.28533,-4.62017 13.24611,-10.12883 13.24609,-12.24219 0,-2.11336 2.907,-5.75025 6.45899,-8.08203 7.91303,-5.1947 7.68748,-36.88844 -0.2793,-39.30664 -2.97534,-0.90312 -4.22816,-4.63809 -2.90234,-8.64844 1.79198,-5.42038 0.93906,-6.39551 -3.67188,-4.19726 -4.89999,2.33604 -4.85957,1.746 0.22461,-3.20508 2.31797,-2.2573 3.8812,-3.71428 5.91016,-3.63867 z m -71.99414,41.62695 c 0.27641,-0.0754 0.59236,0.36184 0.92773,1.37695 1.07319,3.24837 1.07319,8.56412 0,11.8125 -1.07318,3.24839 -1.95117,0.59051 -1.95117,-5.90625 0,-4.46652 0.41532,-7.11745 1.02344,-7.2832 z m 42.97461,75.90625 c 3.41678,0 6.21289,1.26565 6.21289,2.8125 0,1.54685 -1.80746,2.8125 -4.01563,2.8125 -2.20819,0 -5.0043,-1.26565 -6.21289,-2.8125 -1.2086,-1.54685 0.59887,-2.8125 4.01563,-2.8125 z m -74.539064,16.23242 c -1.23373,-0.0286 -2.727208,0.29789 -4.367188,1.09961 -2.54106,1.24224 -3.412017,3.80563 -1.935547,5.69531 1.80104,2.3051 4.187723,2.24804 7.251953,-0.17578 4.10717,-3.24876 2.751932,-6.53357 -0.949218,-6.61914 z m 33.500004,54.40235 c -1.78957,0.0573 -3.3387,1.28069 -4.79688,2.56445 0.1205,2.56144 0.16506,5.15525 0.10156,7.63672 -0.0795,17.21416 3.13043,18.30915 9.78516,2.52539 0.34734,-3.18755 0.73399,-5.94861 1.15234,-8.29492 -2.42261,-3.3803 -4.45262,-4.48898 -6.24218,-4.43164 z m 30.9414,4.63086 c -1.5986,-0.0622 -2.93697,0.87258 -4.19336,2.16992 -0.008,2.76779 -0.51398,4.2795 -1.5332,3.78125 -1.95931,-0.95785 -3.5625,-0.22146 -3.5625,1.63476 0,1.85622 1.91895,4.31179 4.26562,5.45899 0.40951,0.20019 2.54678,6.25789 2.89649,6.52734 l 6.22851,-3.74219 c 0.0298,-3.97542 0.0985,-8.60845 0.18555,-13.57812 -1.64317,-1.55163 -3.04375,-2.20355 -4.28711,-2.25195 z m 51.53321,91.56445 c -0.57017,-0.0127 -1.03975,0.0413 -1.3711,0.17383 -1.7252,0.21139 -0.45285,1.91578 -1.41406,2.55664 -1.58679,2.8185 14.80819,12.95742 12.69336,3.75781 -0.99312,-3.01281 -5.91705,-6.39921 -9.9082,-6.48828 z m 7.0039,52.07226 c 1.2865,14.15145 -36.53303,10.26255 0,0 z m -5.03516,23.22266 c 3.15727,-0.13028 6.0058,1.89734 -1.45117,6.32227 -11.60277,7.02096 -12.29079,4.21965 -22.49609,8.78515 -37.72786,16.87814 -38.90169,18.93265 -79.761719,36.86914 -14.72071,6.46202 -27.393706,12.88681 -38.728516,20.02149 -5.20483,3.27618 -8.031245,11.05451 -13.123047,10.86133 -2.282236,-4.16927 -0.0059,-8.33855 0,-12.50782 0.01795,-12.69367 8.301438,-21.68474 19.84961,-28.88281 11.548169,-7.19807 16.08367,-14.37255 26.68164,-18.34766 17.425022,-6.53584 57.049162,-18.67281 61.480472,-18.11718 1.71502,0.245 -1.0697,3.99678 -3.6211,6.03515 -2.38346,1.9042 3.71466,1.39407 5.12891,0.7168 7.99236,-3.82749 9.82393,-2.20129 12.60156,-3.00391 4.55627,-1.31657 10.19447,-5.32417 13.89649,-5.94726 3.13299,-0.52732 5.5707,2.74117 9.29492,1.30273 6.72891,-2.59897 7.7924,-4.00609 10.24804,-4.10742 z M 51.453125,629.55859 c 1.216231,-0.15081 9.770947,3.49686 11.177734,6.10938 1.406787,2.61252 -3.226562,3.27815 -3.226562,5.70117 0,3.70852 3.026041,6.70532 6.734375,6.66797 l 19.175781,-0.89258 c 17.625407,7.7112 53.755857,15.52674 70.992187,26.35156 1.66019,1.04264 3.05288,3.38973 0.30664,3.41797 -2.78192,0.0286 -8.33878,-1.23672 -13.75586,-2.21094 -5.4761,0.97276 -6.73437,2.95751 -6.73437,6.66602 0,3.70852 3.02604,6.70532 6.73437,6.66797 0,0 9.931,-2.43548 14.97852,-2.27344 3.55302,0.11405 10.41992,2.27344 10.41992,2.27344 0.87799,2.76143 0.73684,6.4241 -1.94727,10.63672 -2.31244,3.6293 -48.10997,-15.633 -77.980465,-25.875 -11.4118,-3.91289 -17.936128,-12.36392 -29.492187,-19.66016 -5.778042,-3.64812 -10.772067,-7.59943 -14.191407,-11.5625 -3.41934,-3.96307 10.350302,4.64604 9.085938,1.22461 -0.952795,-2.57831 -10.811017,-9.59028 -6.048828,-9.18945 2.823371,0.23764 1.628529,-3.78701 3.771484,-4.05274 z"
       id="path4589"
       inkscape:connector-curvature="0"
       sodipodi:nodetypes="sscsccsccscccssscccsccsccsssscccsccsscccscccsccccccccscccsssssssccscsscscccccccccscssscscscscsscssssccccccsccccccccscssscssccccscscsscscsccsccccccscccsccccssccccscccscccccscccscsscscscssccsccsscsccccsscsccsccccsssccsssscsccsscsssscscccsssccscscccsscsscccscscscssscssccccccccccccscsccsssscscscsscccccccsssscccccccccscccscsccsssssssscssccccsccscsscscccscsccsccsscccccscscssscsccccccccccccccsccccccccccccscsssccsccscscsscssccsccscccssssssc"
       transform="translate(68.256722,92.21748)" />
    <text
       xml:space="preserve"
       style="font-style:normal;font-variant:normal;font-weight:normal;font-stretch:normal;font-size:373.33334351px;line-height:1;font-family:P052;-inkscape-font-specification:P052;letter-spacing:0px;word-spacing:0px;fill:#000000;fill-opacity:1;stroke:none"
       x="419.07468"
       y="402.86279"
       id="text846"><tspan
         sodipodi:role="line"
         id="tspan844"
         x="419.07468"
         y="402.86279">ICBFM</tspan><tspan
         sodipodi:role="line"
         x="419.07468"
         y="776.19617"
         id="tspan850">SB RAS</tspan></text>
  </g>
</svg>
