<?xml version="1.0" encoding="UTF-8" standalone="no"?>
<!-- Created with Inkscape (http://www.inkscape.org/) -->

<svg
   xmlns:dc="http://purl.org/dc/elements/1.1/"
   xmlns:cc="http://creativecommons.org/ns#"
   xmlns:rdf="http://www.w3.org/1999/02/22-rdf-syntax-ns#"
   xmlns:svg="http://www.w3.org/2000/svg"
   xmlns="http://www.w3.org/2000/svg"
   xmlns:sodipodi="http://sodipodi.sourceforge.net/DTD/sodipodi-0.dtd"
   xmlns:inkscape="http://www.inkscape.org/namespaces/inkscape"
   width="123.29293mm"
   height="227.18056mm"
   viewBox="0 0 123.29293 227.18056"
   version="1.1"
   id="svg846"
   inkscape:version="0.92.2 5c3e80d, 2017-08-06"
   sodipodi:docname="simple.svg">
  <defs
     id="defs840">
    <inkscape:path-effect
       simplifyJustCoalesce="false"
       simplifyindividualpaths="false"
       simplify_just_coalesce="false"
       simplify_individual_paths="false"
       helper_size="0"
       smooth_angles="360"
       threshold="0.00741464"
       steps="1"
       is_visible="true"
       id="path-effect4542"
       effect="simplify" />
    <inkscape:path-effect
       simplifyJustCoalesce="false"
       simplifyindividualpaths="false"
       simplify_just_coalesce="false"
       simplify_individual_paths="false"
       helper_size="0"
       smooth_angles="360"
       threshold="0.00741464"
       steps="1"
       is_visible="true"
       id="path-effect4538"
       effect="simplify" />
    <inkscape:path-effect
       is_visible="true"
       id="path-effect4534"
       effect="spiro" />
    <inkscape:perspective
       id="perspective10"
       inkscape:persp3d-origin="396.85038 : 374.17322 : 1"
       inkscape:vp_z="793.70075 : 561.25983 : 1"
       inkscape:vp_y="0 : 1066.6667 : 0"
       inkscape:vp_x="0 : 561.25983 : 1"
       sodipodi:type="inkscape:persp3d" />
    <inkscape:perspective
       sodipodi:type="inkscape:persp3d"
       inkscape:vp_x="0 : 561.25983 : 1"
       inkscape:vp_y="0 : 1066.6667 : 0"
       inkscape:vp_z="793.70075 : 561.25983 : 1"
       inkscape:persp3d-origin="396.85038 : 374.17322 : 1"
       id="perspective2390" />
  </defs>
  <sodipodi:namedview
     id="base"
     pagecolor="#ffffff"
     bordercolor="#666666"
     borderopacity="1.0"
     inkscape:pageopacity="0.0"
     inkscape:pageshadow="2"
     inkscape:zoom="0.98994949"
     inkscape:cx="184.55668"
     inkscape:cy="453.62234"
     inkscape:document-units="mm"
     inkscape:current-layer="layer1"
     showgrid="false"
     inkscape:snap-nodes="true"
     inkscape:snap-page="true"
     inkscape:snap-bbox="true"
     inkscape:object-nodes="true"
     showguides="false"
     inkscape:guide-bbox="true"
     inkscape:window-width="1920"
     inkscape:window-height="1024"
     inkscape:window-x="0"
     inkscape:window-y="30"
     inkscape:window-maximized="1"
     inkscape:object-paths="true"
     inkscape:snap-intersection-paths="true"
     inkscape:snap-smooth-nodes="true"
     inkscape:snap-midpoints="true"
     inkscape:snap-global="true"
     fit-margin-top="20"
     fit-margin-bottom="20"
     fit-margin-left="30"
     fit-margin-right="30"
     inkscape:snap-to-guides="true">
    <sodipodi:guide
       position="50.362548,181.41125"
       orientation="0,1"
       id="guide1425"
       inkscape:locked="false"
       inkscape:label=""
       inkscape:color="rgb(0,0,255)" />
    <sodipodi:guide
       position="69.605951,151.41125"
       orientation="0,1"
       id="guide1427"
       inkscape:locked="false"
       inkscape:label=""
       inkscape:color="rgb(0,0,255)" />
    <sodipodi:guide
       position="63.191484,121.41125"
       orientation="0,1"
       id="guide1429"
       inkscape:locked="false"
       inkscape:label=""
       inkscape:color="rgb(0,0,255)" />
    <sodipodi:guide
       position="54.638859,81.411251"
       orientation="0,1"
       id="guide1431"
       inkscape:locked="false"
       inkscape:label=""
       inkscape:color="rgb(0,0,255)" />
    <sodipodi:guide
       position="76.554959,51.411253"
       orientation="0,1"
       id="guide1433"
       inkscape:locked="false"
       inkscape:label=""
       inkscape:color="rgb(0,0,255)" />
    <sodipodi:guide
       position="66.398718,21.411253"
       orientation="0,1"
       id="guide1435"
       inkscape:locked="false"
       inkscape:label=""
       inkscape:color="rgb(0,0,255)" />
    <sodipodi:guide
       position="31.410275,94.955586"
       orientation="1,0"
       id="guide1437"
       inkscape:locked="false"
       inkscape:label=""
       inkscape:color="rgb(0,0,255)" />
    <sodipodi:guide
       position="87.410272,93.351969"
       orientation="1,0"
       id="guide1439"
       inkscape:locked="false"
       inkscape:label=""
       inkscape:color="rgb(0,0,255)" />
    <sodipodi:guide
       position="41.410275,64.48686"
       orientation="1,0"
       id="guide1441"
       inkscape:locked="false"
       inkscape:label=""
       inkscape:color="rgb(0,0,255)" />
    <sodipodi:guide
       position="77.410273,61.814165"
       orientation="1,0"
       id="guide1443"
       inkscape:locked="false"
       inkscape:label=""
       inkscape:color="rgb(0,0,255)" />
    <sodipodi:guide
       position="59.910274,217.89957"
       orientation="1,0"
       id="guide1445"
       inkscape:locked="false"
       inkscape:label=""
       inkscape:color="rgb(0,0,255)" />
    <sodipodi:guide
       position="143.37235,166.41125"
       orientation="0,1"
       id="guide1447"
       inkscape:locked="false"
       inkscape:label=""
       inkscape:color="rgb(0,0,255)" />
    <sodipodi:guide
       position="203.77525,136.41125"
       orientation="0,1"
       id="guide1449"
       inkscape:locked="false"
       inkscape:label=""
       inkscape:color="rgb(0,0,255)" />
    <sodipodi:guide
       position="195.22263,101.41125"
       orientation="0,1"
       id="guide1451"
       inkscape:locked="false"
       inkscape:label=""
       inkscape:color="rgb(0,0,255)" />
    <sodipodi:guide
       position="190.94631,66.411252"
       orientation="0,1"
       id="guide1453"
       inkscape:locked="false"
       inkscape:label=""
       inkscape:color="rgb(0,0,255)" />
    <sodipodi:guide
       position="214.46603,36.411253"
       orientation="0,1"
       id="guide1455"
       inkscape:locked="false"
       inkscape:label=""
       inkscape:color="rgb(0,0,255)" />
    <sodipodi:guide
       position="54.365631,73.911251"
       orientation="0,1"
       id="guide1467"
       inkscape:locked="false"
       inkscape:label=""
       inkscape:color="rgb(0,0,255)" />
    <sodipodi:guide
       position="59.910274,58.911253"
       orientation="0,1"
       id="guide1469"
       inkscape:locked="false"
       inkscape:label=""
       inkscape:color="rgb(0,0,255)" />
    <sodipodi:guide
       position="67.594797,88.911251"
       orientation="0,1"
       id="guide1471"
       inkscape:locked="false"
       inkscape:label=""
       inkscape:color="rgb(0,0,255)" />
    <sodipodi:guide
       position="72.130511,96.411251"
       orientation="0,1"
       id="guide1492"
       inkscape:locked="false"
       inkscape:label=""
       inkscape:color="rgb(0,0,255)" />
    <sodipodi:guide
       position="64.661466,43.911253"
       orientation="0,1"
       id="guide1508"
       inkscape:locked="false"
       inkscape:label=""
       inkscape:color="rgb(0,0,255)" />
    <sodipodi:guide
       position="83.503967,28.911253"
       orientation="0,1"
       id="guide1510"
       inkscape:locked="false"
       inkscape:label=""
       inkscape:color="rgb(0,0,255)" />
    <sodipodi:guide
       position="77.410273,106.41125"
       orientation="0,1"
       id="guide1518"
       inkscape:locked="false"
       inkscape:label=""
       inkscape:color="rgb(0,0,255)" />
    <sodipodi:guide
       position="55.351835,179.12271"
       orientation="1,0"
       id="guide1567"
       inkscape:locked="false"
       inkscape:label=""
       inkscape:color="rgb(0,0,255)" />
    <sodipodi:guide
       position="65.351835,184.55909"
       orientation="1,0"
       id="guide1569"
       inkscape:locked="false"
       inkscape:label=""
       inkscape:color="rgb(0,0,255)" />
    <sodipodi:guide
       position="82.938117,129.44399"
       orientation="1,0"
       id="guide1577"
       inkscape:locked="false" />
  </sodipodi:namedview>
  <metadata
     id="metadata843">
    <rdf:RDF>
      <cc:Work
         rdf:about="">
        <dc:format>image/svg+xml</dc:format>
        <dc:type
           rdf:resource="http://purl.org/dc/dcmitype/StillImage" />
        <dc:title></dc:title>
      </cc:Work>
    </rdf:RDF>
  </metadata>
  <g
     inkscape:label="Layer 1"
     inkscape:groupmode="layer"
     id="layer1"
     transform="translate(12.410275,-71.230695)"
     style="display:inline">
    <g
       id="g1611"
       inkscape:label="DNA"
       style="display:inline;fill:#000000;fill-opacity:1;stroke:#2c89a0">
      <path
         inkscape:connector-curvature="0"
         id="path1516"
         d="m 17.58988,196.99995 c 0,3.88748 0.636789,8.99177 2.298568,13.30255 0.830889,2.1554 1.917432,4.12195 3.404444,5.61567 1.487008,1.49372 3.447872,2.49184 5.707144,2.49184 h 35.999869 c 2.300881,0 4.426686,1.78864 6.035292,4.54701 0.22257,0.38166 0.430897,0.7806 0.627351,1.18959 H 29.000036 c -0.479287,-0.008 -0.479287,0.715 0,0.70694 h 42.983422 c 0.968034,2.24906 1.539142,4.74531 1.598869,6.79286 H 29.000036 c -0.463046,0.008 -0.463046,0.69876 0,0.70693 h 44.582291 c -0.05967,2.04762 -0.63078,4.54419 -1.598869,6.79339 H 29.000036 c -0.479674,-0.008 -0.479674,0.71539 0,0.70693 h 42.662512 c -0.196454,0.409 -0.404781,0.80742 -0.627351,1.18908 -1.608606,2.75837 -3.734411,4.54701 -6.035292,4.54701 H 29.000036 c -3.708371,0 -6.583786,2.70605 -8.472868,5.94537 -1.889083,3.23932 -2.937288,7.14799 -2.937288,10.465 0,3.317 1.048205,7.22515 2.937288,10.46447 1.889082,3.23932 4.764497,5.94538 8.472868,5.94538 h 45.999775 c 1.961076,0.0828 1.961076,-2.90282 0,-2.81999 H 29.000036 c -2.30088,0 -4.426685,-1.78864 -6.035291,-4.54701 -0.22257,-0.38165 -0.430898,-0.78059 -0.627351,-1.18959 h 42.662511 c 0.463046,-0.008 0.463046,-0.69876 0,-0.70693 H 22.016483 c -0.968009,-2.24904 -1.539144,-4.74534 -1.598869,-6.79287 h 44.582291 c 0.479674,0.008 0.479674,-0.71539 0,-0.70693 H 20.417614 c 0.05967,-2.04759 0.630801,-4.54421 1.598869,-6.79338 h 42.983422 c 0.463432,-0.008 0.463432,-0.69914 0,-0.70694 H 22.337394 c 0.196453,-0.409 0.404781,-0.80742 0.627351,-1.18907 1.608606,-2.75837 3.734411,-4.54701 6.035291,-4.54701 h 35.999869 c 3.708371,0 6.583786,-2.70606 8.472869,-5.94538 1.889082,-3.23932 2.937288,-7.14799 2.937288,-10.46499 0,-3.317 -1.048206,-7.22516 -2.937288,-10.46448 -1.889083,-3.23932 -4.764498,-5.94537 -8.472869,-5.94537 H 29.000036 c -1.467506,0 -2.620505,-0.57076 -3.707267,-1.66243 -0.97744,-0.98185 -1.840355,-2.40622 -2.540929,-4.07417 h 42.248065 c 0.479287,0.008 0.479287,-0.715 0,-0.70694 H 22.470202 c -0.788213,-2.08679 -1.331402,-4.47666 -1.66088,-6.79286 h 44.190583 c 0.479287,0.008 0.479287,-0.715 0,-0.70694 H 20.715271 c -0.206383,-1.6561 -0.30489,-3.25339 -0.30489,-4.64674 z"
         style="color:#000000;font-style:normal;font-variant:normal;font-weight:normal;font-stretch:normal;font-size:medium;line-height:normal;font-family:sans-serif;font-variant-ligatures:normal;font-variant-position:normal;font-variant-caps:normal;font-variant-numeric:normal;font-variant-alternates:normal;font-feature-settings:normal;text-indent:0;text-align:start;text-decoration:none;text-decoration-line:none;text-decoration-style:solid;text-decoration-color:#000000;letter-spacing:normal;word-spacing:normal;text-transform:none;writing-mode:lr-tb;direction:ltr;text-orientation:mixed;dominant-baseline:auto;baseline-shift:baseline;text-anchor:start;white-space:normal;shape-padding:0;clip-rule:nonzero;display:inline;overflow:visible;visibility:visible;opacity:1;isolation:auto;mix-blend-mode:normal;color-interpolation:sRGB;color-interpolation-filters:linearRGB;solid-color:#000000;solid-opacity:1;vector-effect:none;fill:#000000;fill-opacity:1;fill-rule:nonzero;stroke:none;stroke-width:0.70555556;stroke-linecap:round;stroke-linejoin:miter;stroke-miterlimit:4;stroke-dasharray:none;stroke-dashoffset:0;stroke-opacity:1;color-rendering:auto;image-rendering:auto;shape-rendering:auto;text-rendering:auto;enable-background:accumulate"
         inkscape:label="Dna"
         sodipodi:nodetypes="cccssccccccccccccccssssssccsccccccccccccccsssssssccccccccccc" />
    </g>
    <g
       id="g1595"
       style="display:inline;fill:#000000;fill-opacity:1;stroke:#008000"
       inkscape:label="Snake">
      <path
         inkscape:connector-curvature="0"
         id="path864"
         d="m 74.999811,111.11734 c -2.243579,0 -4.205406,1.27737 -5.19658,3.13934 -4.061852,-0.76876 -9.961349,-1.56097 -16.80931,-1.81539 -0.04682,-0.002 -0.09374,-0.002 -0.14056,0 -1.813804,0.0872 -1.780273,2.77853 0.03514,2.8205 6.595385,0.24504 12.317558,1.00668 16.228468,1.73736 v 0.001 c 0,3.23251 2.65032,5.88284 5.882843,5.88284 3.232526,0 5.882846,-2.65033 5.882846,-5.88284 0,-3.23252 -2.65032,-5.88285 -5.882846,-5.88285 z m -32.021301,1.49603 c -0.03257,-4.6e-4 -0.06515,2.1e-4 -0.09767,0.002 -5.592101,0.24263 -10.271196,0.94246 -14.525212,3.129 -0.0073,0.004 -0.0145,0.008 -0.0217,0.0114 -5.741035,3.07251 -10.744046,9.49866 -10.744046,16.24397 0,6.74531 5.003011,13.17198 10.744046,16.24449 5.877105,3.14533 12.617511,1.54838 18.972485,0.13281 6.354977,-1.41558 12.324395,-2.64977 17.027385,-0.13281 4.855374,2.59851 9.256283,8.48256 9.256283,13.75575 0,5.27319 -4.400909,11.15723 -9.256283,13.75575 -3.320556,1.77711 -7.423256,1.84952 -11.171928,1.25573 -1.883257,-0.32887 -2.334058,2.51847 -0.441317,2.78743 4.087174,0.64741 8.817617,0.65421 12.945464,-1.55494 5.741035,-3.07251 10.744046,-9.49866 10.744046,-16.24397 0,-6.74531 -5.003011,-13.17146 -10.744046,-16.24397 -5.877105,-3.14533 -12.617511,-1.54839 -18.972485,-0.13281 -6.354976,1.41557 -12.324394,2.64977 -17.027384,0.13281 -4.855374,-2.59851 -9.255765,-8.48308 -9.255765,-13.75627 0,-5.26887 4.393231,-11.14624 9.24388,-13.748 3.720909,-1.91008 7.927501,-2.5812 13.347504,-2.81636 1.851371,-0.0448 1.828598,-2.8078 -0.02326,-2.82205 z m 32.021301,1.32602 c 1.707282,0 3.060795,1.35351 3.060795,3.06079 0,1.70728 -1.353513,3.06028 -3.060795,3.06028 -1.707282,0 -3.060276,-1.353 -3.060276,-3.06028 0,-1.70728 1.352994,-3.06079 3.060276,-3.06079 z m -22.142317,3.24218 c -0.457994,0.0121 -0.457994,0.69328 0,0.70538 8.058573,0.39508 13.978474,1.32395 13.978474,1.32395 0.472023,0.0831 0.584322,-0.63145 0.109556,-0.69712 0,0 -5.957099,-0.93531 -14.052888,-1.33221 -0.01171,-5.8e-4 -0.02343,-5.8e-4 -0.03514,0 z m -9.848493,0.26716 c -0.005,7e-5 -0.01,2.5e-4 -0.01497,5.3e-4 -4.115594,0.17318 -6.545067,0.32085 -9.687267,1.34359 -5.493628,1.7881 -10.98746,7.24273 -11.193631,13.19558 -0.0156,0.47032 0.689787,0.49362 0.705384,0.0233 0.191413,-5.52671 5.487379,-10.84817 10.706841,-12.54703 3.060181,-0.99604 5.387649,-1.13756 9.498126,-1.31052 0.46014,-0.0192 0.446072,-0.70502 -0.01447,-0.70538 z M 22.77561,146.5529 c -0.298757,0.009 -0.451931,0.36183 -0.254249,0.58601 3.070392,3.5557 6.240627,4.90827 10.230385,5.55057 4.507396,0.72565 9.023651,-0.43151 13.486513,-1.53531 4.462867,-1.10381 8.870818,-2.1546 13.164055,-1.33997 2.789047,0.52922 5.609048,1.88161 7.52719,3.93568 2.10752,2.25685 3.67435,4.63824 3.677811,8.34574 -0.01262,0.48271 0.718008,0.48271 0.705385,0 -0.0036,-3.90919 -1.707968,-6.51381 -3.867465,-8.82634 -2.047116,-2.19219 -4.993264,-3.5942 -7.912179,-4.14806 -4.488244,-0.85163 -8.999115,0.24322 -13.46481,1.34772 -4.465696,1.1045 -8.88773,2.21843 -13.204881,1.52342 -3.897249,-0.62742 -6.835618,-1.87138 -9.808702,-5.3144 -0.06918,-0.0819 -0.171864,-0.12794 -0.279053,-0.12506 z m -2.365229,50.44705 c 0,-2.96251 1.077065,-6.9935 2.819982,-10.5916 1.742916,-3.5981 4.178215,-6.76505 6.511747,-8.20725 3.623503,-2.23944 8.350621,-3.00716 12.800769,-1.69706 1.824769,0.56804 2.638392,-2.19627 0.796851,-2.70733 -1.312489,-0.38638 -2.641108,-0.61993 -3.964617,-0.71261 -0.496316,-0.0348 -0.991798,-0.0495 -1.48518,-0.045 v 4e-5 c -3.453678,0.0317 -6.80524,1.0125 -9.631971,2.75952 -3.104679,1.9188 -5.668933,5.46199 -7.566462,9.37927 -1.89753,3.91729 -3.10162,8.20706 -3.10162,11.82202 z m 49.968525,-19.57813 c -0.09178,0.005 -0.177997,0.0456 -0.240295,0.11317 -2.12684,2.23215 -7.08153,3.88874 -9.341548,4.36355 -1.755876,0.36891 -5.562174,0.32099 -7.773686,-0.20515 -0.467612,-0.12475 -0.637422,0.58771 -0.163814,0.6873 2.371979,0.56432 6.125231,0.61826 8.081676,0.20722 2.369648,-0.49785 7.335928,-2.0761 9.708968,-4.56665 0.225752,-0.22995 0.05045,-0.61728 -0.271301,-0.59944 z m -32.394406,1.5384 c -0.790712,-0.002 -1.422188,0.0344 -1.838129,0.0791 -2.653662,0.2835 -5.298585,1.10409 -7.279143,2.93315 -1.963756,1.81353 -4.874461,6.36301 -5.195548,10.21902 -0.0443,0.4746 0.671548,0.5319 0.703315,0.0563 0.294608,-3.53801 3.194664,-8.11732 4.970756,-9.75755 1.827051,-1.68728 4.315256,-2.47469 6.875034,-2.74815 1.015651,-0.10851 3.627602,-0.17596 6.655924,0.39481 0.462373,0.0876 0.593631,-0.60594 0.131258,-0.6935 -1.554936,-0.29307 -2.993872,-0.42426 -4.181658,-0.46664 -0.296944,-0.0106 -0.578236,-0.0158 -0.841809,-0.0165 z"
         style="color:#000000;font-style:normal;font-variant:normal;font-weight:normal;font-stretch:normal;font-size:medium;line-height:normal;font-family:sans-serif;font-variant-ligatures:normal;font-variant-position:normal;font-variant-caps:normal;font-variant-numeric:normal;font-variant-alternates:normal;font-feature-settings:normal;text-indent:0;text-align:start;text-decoration:none;text-decoration-line:none;text-decoration-style:solid;text-decoration-color:#000000;letter-spacing:normal;word-spacing:normal;text-transform:none;writing-mode:lr-tb;direction:ltr;text-orientation:mixed;dominant-baseline:auto;baseline-shift:baseline;text-anchor:start;white-space:normal;shape-padding:0;clip-rule:nonzero;display:inline;overflow:visible;visibility:visible;opacity:1;isolation:auto;mix-blend-mode:normal;color-interpolation:sRGB;color-interpolation-filters:linearRGB;solid-color:#000000;solid-opacity:1;vector-effect:none;fill:#000000;fill-opacity:1;fill-rule:nonzero;stroke:none;stroke-width:2.82222223;stroke-linecap:round;stroke-linejoin:round;stroke-miterlimit:4;stroke-dasharray:none;stroke-dashoffset:0;stroke-opacity:1;color-rendering:auto;image-rendering:auto;shape-rendering:auto;text-rendering:auto;enable-background:accumulate"
         inkscape:label="Snake"
         sodipodi:nodetypes="ccccccsssccccccsscssscccsscssccccssssscccccccccsccccccccccccccccsccccsscccccsscccccccscccccccccccccc" />
    </g>
    <g
       id="g890"
       inkscape:label="Rod"
       style="display:inline;fill:#000000;fill-opacity:1">
      <path
         style="color:#000000;font-style:normal;font-variant:normal;font-weight:normal;font-stretch:normal;font-size:medium;line-height:normal;font-family:sans-serif;font-variant-ligatures:normal;font-variant-position:normal;font-variant-caps:normal;font-variant-numeric:normal;font-variant-alternates:normal;font-feature-settings:normal;text-indent:0;text-align:start;text-decoration:none;text-decoration-line:none;text-decoration-style:solid;text-decoration-color:#000000;letter-spacing:normal;word-spacing:normal;text-transform:none;writing-mode:lr-tb;direction:ltr;text-orientation:mixed;dominant-baseline:auto;baseline-shift:baseline;text-anchor:start;white-space:normal;shape-padding:0;clip-rule:nonzero;display:inline;overflow:visible;visibility:visible;opacity:1;isolation:auto;mix-blend-mode:normal;color-interpolation:sRGB;color-interpolation-filters:linearRGB;solid-color:#000000;solid-opacity:1;vector-effect:none;fill:#000000;fill-opacity:1;fill-rule:nonzero;stroke:none;stroke-width:10.66666698;stroke-linecap:round;stroke-linejoin:miter;stroke-miterlimit:4;stroke-dasharray:none;stroke-dashoffset:0;stroke-opacity:1;color-rendering:auto;image-rendering:auto;shape-rendering:auto;text-rendering:auto;enable-background:accumulate"
         d="m 225.10352,39.832031 c -12.21742,0 -22.23438,10.015009 -22.23438,22.232422 0,10.381969 7.23412,19.176684 16.9043,21.585938 V 232.53516 c -0.12825,3.03156 2.29483,5.55931 5.3291,5.55931 3.03427,0 5.45735,-2.52775 5.3291,-5.55931 V 83.652344 c 9.67057,-2.408975 16.90625,-11.205643 16.90625,-21.587891 0,-12.217413 -10.01696,-22.232422 -22.23437,-22.232422 z m 0,10.666016 c 6.45271,0 11.5664,5.113687 11.5664,11.566406 0,6.226973 -4.76627,11.201596 -11.57354,11.215019 -6.80726,0.01342 -11.56122,-4.995947 -11.56122,-11.215019 0,-6.452719 5.11564,-11.566406 11.56836,-11.566406 z m -0.082,222.468753 c -2.94219,0.047 -5.2905,2.46789 -5.24804,5.41015 v 142.31641 c -0.12825,3.03156 2.29483,5.55931 5.3291,5.55931 3.03427,0 5.45735,-2.52775 5.3291,-5.55931 V 278.37695 c 0.0433,-3.0057 -2.40446,-5.45346 -5.41016,-5.41015 z"
         transform="matrix(0.26458333,0,0,0.26458333,-12.058439,80.691804)"
         id="path1520"
         inkscape:connector-curvature="0"
         sodipodi:nodetypes="ssccsccsssscsscccsccc"
         inkscape:label="Rod" />
    </g>
  </g>
</svg>
