<?xml version="1.0" encoding="UTF-8" standalone="no"?>
<!-- Created with Inkscape (http://www.inkscape.org/) -->

<svg
   xmlns:dc="http://purl.org/dc/elements/1.1/"
   xmlns:cc="http://creativecommons.org/ns#"
   xmlns:rdf="http://www.w3.org/1999/02/22-rdf-syntax-ns#"
   xmlns:svg="http://www.w3.org/2000/svg"
   xmlns="http://www.w3.org/2000/svg"
   xmlns:sodipodi="http://sodipodi.sourceforge.net/DTD/sodipodi-0.dtd"
   xmlns:inkscape="http://www.inkscape.org/namespaces/inkscape"
   width="12in"
   height="6in"
   id="svg2"
   sodipodi:version="0.32"
   inkscape:version="0.92.2 5c3e80d, 2017-08-06"
   sodipodi:docname="formal_russian.svg"
   inkscape:output_extension="org.inkscape.output.svg.inkscape"
   version="1.0"
   inkscape:export-filename="/home/danila/Documents/Identity/Rod_of_Asclepius.png"
   inkscape:export-xdpi="70.031807"
   inkscape:export-ydpi="70.031807"
   viewBox="0 0 2880.0001 1440">
  <defs
     id="defs4">
    <inkscape:path-effect
       effect="simplify"
       id="path-effect4542"
       is_visible="true"
       steps="1"
       threshold="0.00741464"
       smooth_angles="360"
       helper_size="0"
       simplify_individual_paths="false"
       simplify_just_coalesce="false"
       simplifyindividualpaths="false"
       simplifyJustCoalesce="false" />
    <inkscape:path-effect
       effect="simplify"
       id="path-effect4538"
       is_visible="true"
       steps="1"
       threshold="0.00741464"
       smooth_angles="360"
       helper_size="0"
       simplify_individual_paths="false"
       simplify_just_coalesce="false"
       simplifyindividualpaths="false"
       simplifyJustCoalesce="false" />
    <inkscape:path-effect
       effect="spiro"
       id="path-effect4534"
       is_visible="true" />
    <inkscape:perspective
       sodipodi:type="inkscape:persp3d"
       inkscape:vp_x="0 : 1403.1497 : 1"
       inkscape:vp_y="0 : 2666.6671 : 0"
       inkscape:vp_z="1984.2523 : 1403.1497 : 1"
       inkscape:persp3d-origin="992.12604 : 935.43301 : 1"
       id="perspective10" />
    <inkscape:perspective
       id="perspective2390"
       inkscape:persp3d-origin="992.12604 : 935.43301 : 1"
       inkscape:vp_z="1984.2523 : 1403.1497 : 1"
       inkscape:vp_y="0 : 2666.6671 : 0"
       inkscape:vp_x="0 : 1403.1497 : 1"
       sodipodi:type="inkscape:persp3d" />
    <inkscape:path-effect
       simplifyJustCoalesce="false"
       simplifyindividualpaths="false"
       simplify_just_coalesce="false"
       simplify_individual_paths="false"
       helper_size="0"
       smooth_angles="360"
       threshold="0.00741464"
       steps="1"
       is_visible="true"
       id="path-effect4542-7"
       effect="simplify" />
    <inkscape:path-effect
       simplifyJustCoalesce="false"
       simplifyindividualpaths="false"
       simplify_just_coalesce="false"
       simplify_individual_paths="false"
       helper_size="0"
       smooth_angles="360"
       threshold="0.00741464"
       steps="1"
       is_visible="true"
       id="path-effect4538-5"
       effect="simplify" />
    <inkscape:path-effect
       is_visible="true"
       id="path-effect4534-3"
       effect="spiro" />
    <inkscape:perspective
       id="perspective10-5"
       inkscape:persp3d-origin="396.85039 : 374.17322 : 1"
       inkscape:vp_z="793.70078 : 561.25983 : 1"
       inkscape:vp_y="0 : 1066.6667 : 0"
       inkscape:vp_x="0 : 561.25983 : 1"
       sodipodi:type="inkscape:persp3d" />
    <inkscape:perspective
       sodipodi:type="inkscape:persp3d"
       inkscape:vp_x="0 : 561.25983 : 1"
       inkscape:vp_y="0 : 1066.6667 : 0"
       inkscape:vp_z="793.70078 : 561.25983 : 1"
       inkscape:persp3d-origin="396.85039 : 374.17322 : 1"
       id="perspective2390-6" />
  </defs>
  <sodipodi:namedview
     id="base"
     pagecolor="#ffffff"
     bordercolor="#000000"
     borderopacity="1"
     gridtolerance="10000"
     guidetolerance="10"
     objecttolerance="10"
     inkscape:pageopacity="0"
     inkscape:pageshadow="2"
     inkscape:zoom="0.7"
     inkscape:cx="334.08151"
     inkscape:cy="221.31093"
     inkscape:document-units="px"
     inkscape:current-layer="g844"
     showgrid="false"
     inkscape:window-width="1920"
     inkscape:window-height="1024"
     inkscape:window-x="0"
     inkscape:window-y="30"
     showguides="false"
     inkscape:guide-bbox="true"
     inkscape:snap-bbox="true"
     inkscape:snap-smooth-nodes="true"
     inkscape:window-maximized="1"
     fit-margin-top="1.5"
     units="in"
     fit-margin-left="2.5"
     fit-margin-bottom="1.5"
     fit-margin-right="2.5"
     inkscape:object-paths="false"
     inkscape:pagecheckerboard="false"
     showborder="true"
     inkscape:showpageshadow="false"
     scale-x="2.5"
     inkscape:snap-nodes="false">
    <inkscape:grid
       type="xygrid"
       id="grid4591"
       originx="1048.9553"
       originy="-1014.5105" />
    <sodipodi:guide
       position="5470.5449,708.43258"
       orientation="1,0"
       id="guide4564"
       inkscape:locked="false" />
    <sodipodi:guide
       position="1440,720.00001"
       orientation="1,0"
       id="guide848"
       inkscape:locked="false"
       inkscape:label=""
       inkscape:color="rgb(0,0,255)" />
    <sodipodi:guide
       position="540.00001,161.62441"
       orientation="1,0"
       id="guide850"
       inkscape:locked="false"
       inkscape:label=""
       inkscape:color="rgb(0,0,255)" />
    <sodipodi:guide
       position="2340,479.82246"
       orientation="1,0"
       id="guide852"
       inkscape:locked="false"
       inkscape:label=""
       inkscape:color="rgb(0,0,255)" />
    <sodipodi:guide
       position="1440,720.00001"
       orientation="0,1"
       id="guide854"
       inkscape:locked="false"
       inkscape:label=""
       inkscape:color="rgb(0,0,255)" />
    <sodipodi:guide
       position="2444.5692,1128"
       orientation="0,1"
       id="guide856"
       inkscape:locked="false"
       inkscape:label=""
       inkscape:color="rgb(0,0,255)" />
    <sodipodi:guide
       position="1440,360.00001"
       orientation="0,1"
       id="guide858"
       inkscape:locked="false"
       inkscape:label=""
       inkscape:color="rgb(0,0,255)" />
    <sodipodi:guide
       position="250,814.28573"
       orientation="0,1"
       id="guide896"
       inkscape:locked="false" />
    <sodipodi:guide
       position="253.57143,414.28572"
       orientation="0,1"
       id="guide898"
       inkscape:locked="false" />
    <sodipodi:guide
       position="1032.1429,1082.1429"
       orientation="0,1"
       id="guide840"
       inkscape:locked="false" />
  </sodipodi:namedview>
  <metadata
     id="metadata7">
    <rdf:RDF>
      <cc:Work
         rdf:about="">
        <dc:format>image/svg+xml</dc:format>
        <dc:type
           rdf:resource="http://purl.org/dc/dcmitype/StillImage" />
        <dc:title />
      </cc:Work>
    </rdf:RDF>
  </metadata>
  <g
     inkscape:label="Layer 1"
     inkscape:groupmode="layer"
     id="layer1"
     transform="translate(560.79515,262.87063)">
    <g
       id="g844"
       inkscape:label="Logo"
       transform="matrix(1.0077808,0,0,1.0130129,-60.497883,-14.766034)">
      <path
         style="color:#000000;font-style:normal;font-variant:normal;font-weight:normal;font-stretch:normal;font-size:medium;line-height:normal;font-family:sans-serif;font-variant-ligatures:normal;font-variant-position:normal;font-variant-caps:normal;font-variant-numeric:normal;font-variant-alternates:normal;font-feature-settings:normal;text-indent:0;text-align:start;text-decoration:none;text-decoration-line:none;text-decoration-style:solid;text-decoration-color:#000000;letter-spacing:normal;word-spacing:normal;text-transform:none;writing-mode:lr-tb;direction:ltr;text-orientation:mixed;dominant-baseline:auto;baseline-shift:baseline;text-anchor:start;white-space:normal;shape-padding:0;clip-rule:nonzero;display:inline;overflow:visible;visibility:visible;opacity:1;isolation:auto;mix-blend-mode:normal;color-interpolation:sRGB;color-interpolation-filters:linearRGB;solid-color:#000000;solid-opacity:1;vector-effect:none;fill:#000000;fill-opacity:1;fill-rule:nonzero;stroke:none;stroke-width:14.39184952;stroke-linecap:round;stroke-linejoin:round;stroke-miterlimit:4;stroke-dasharray:none;stroke-dashoffset:0;stroke-opacity:1;color-rendering:auto;image-rendering:auto;shape-rendering:auto;text-rendering:auto;enable-background:accumulate"
         d="m 197.34218,61.653977 c -1.23731,0 -8.3724,3.429864 -15.85444,7.622399 -9.18531,5.146687 -17.29011,6.89442 -24.9537,5.380773 -6.49358,-1.282491 -11.3503,-0.657024 -11.3503,1.461492 0,2.036397 3.63627,3.723925 8.08047,3.751236 4.44418,0.0256 12.75511,1.036549 18.46905,2.241372 6.4613,1.362811 10.39066,0.577119 10.39066,-2.079601 0,-2.349234 -2.39869,-3.105839 -5.33064,-1.679893 -3.22797,1.569793 -4.08176,0.999387 -2.16223,-1.444723 1.74347,-2.219896 6.22097,-3.114788 9.94895,-1.989178 3.89467,1.176198 6.80762,-0.04936 6.84818,-2.882732 0.0545,-3.804475 1.09275,-3.686094 4.54647,0.519381 6.34672,7.728024 5.66451,10.988713 -1.82829,8.726303 -3.5458,-1.07078 -9.36858,1.335061 -12.93976,5.347188 -7.238,8.131723 -16.97792,8.229943 -29.7855,0.300773 -7.6664,-4.746356 -7.95489,-4.694893 -2.81327,0.4941 5.88524,5.939576 3.50916,10.607826 -5.34752,10.509375 -2.75118,-0.03137 -2.23022,-1.438678 1.15826,-3.128882 4.7473,-2.368034 3.3894,-4.788431 -5.92455,-10.553434 -7.03625,-4.355459 -10.0932,-8.451965 -7.31533,-9.80315 2.62465,-1.276424 4.80353,-0.181078 4.84239,2.435182 0.0529,3.55272 1.14312,3.420014 4.31183,-0.521619 8.42206,-10.476481 -1.34364,-14.027194 -15.45709,-5.620441 -6.31636,3.76217 -7.44232,6.521816 -4.02864,9.87648 2.60557,2.560276 6.06279,8.067066 7.68314,12.237871 2.5016,6.439005 0.10318,8.253191 -15.89675,12.025471 -27.585032,6.50368 -72.823183,35.36344 -73.914223,51.4832 -2.881236,42.56959 26.428812,68.93394 75.231033,84.97963 3.88335,1.27691 7.59401,2.67393 10.71831,3.98283 2.41813,-2.69162 3.61738,-6.38064 -0.0294,-8.97044 -1.60767,-2.0469 -11.66824,-6.81542 -22.35607,-10.59775 -10.687824,-3.78231 -33.284129,-11.45082 -39.633,-17.0406 -6.348801,-5.58956 -9.141094,-9.08096 -6.203511,-7.75686 3.553751,1.60181 4.533192,-0.0256 2.925268,-4.86363 -1.329124,-3.9996 -3.809457,-7.27129 -5.512378,-7.27129 -1.702922,0 -3.413634,-3.30699 -3.800346,-7.34691 -0.408833,-4.27103 1.314515,-6.36247 4.115272,-5.00035 2.64925,1.28854 0.964323,-2.29239 -3.74326,-7.95671 -5.62982,-6.7738 -1.417026,-17.92182 2.857631,-15.8483 11.635526,-1.57494 -1.951624,-8.59 5.060072,-13.05374 2.491556,-1.21177 3.959152,-0.23482 3.261363,2.17 2.570067,0.99962 5.897931,-1.14755 7.571079,-3.33051 1.837637,-2.33982 13.88459,-3.33677 16.188424,-2.2163 4.983622,2.42377 29.802396,-7.19854 29.802396,-11.55464 0,-1.66716 2.59796,-2.56272 5.7724,-1.98918 3.17441,0.57377 5.77026,-0.83739 5.77026,-3.13719 0,-2.29977 3.11712,-3.24255 6.92641,-2.09231 4.44995,1.34378 7.04128,-0.14094 7.2498,-4.15293 0.27076,-5.20913 0.9825,-5.03795 4.29282,1.02426 2.18254,3.99669 4.11431,5.33041 4.29278,2.96464 0.20173,-2.67194 5.13441,-3.62681 13.02222,-2.52113 12.2738,1.72065 12.39068,1.59021 3.46425,-3.88369 -8.65998,-5.31051 -8.68514,-5.51034 -0.39735,-3.21928 6.68241,1.84731 8.0072,1.18648 5.42995,-2.71467 -1.87469,-2.83754 -0.1382,-1.98673 3.85954,1.89248 7.11483,6.90409 7.26879,6.90497 7.26879,0.0985 0,-3.12957 0.18549,-4.65842 1.21115,-4.46217 1.0256,0.19677 2.89004,2.11944 6.24793,5.8919 5.64983,6.3475 6.16496,9.40007 2.11785,12.58494 -4.04703,3.18459 -6.16852,3.15774 -8.7378,-0.11418 -2.23508,-2.84583 -5.71354,-3.16427 -10.19623,-0.93365 -5.67995,2.82657 -5.72257,3.39586 -0.26216,3.44221 10.15337,0.0874 1.78837,4.72063 -9.94468,5.50923 -5.7468,0.38622 -16.29766,2.5869 -23.44669,4.89092 -7.14903,2.30404 -14.68739,4.1887 -16.75063,4.1887 -2.0633,0 -6.31824,2.43473 -9.45646,5.41033 -3.13824,2.97558 -7.33128,4.62015 -9.31697,3.65456 -3.698133,-1.79853 -7.376723,3.65343 -13.804221,20.45524 -2.866651,7.49371 -1.311849,11.51771 7.262484,18.79413 6.000807,5.0928 15.161377,10.32004 20.356537,11.61775 5.19516,1.29749 8.16664,3.98775 6.60513,5.97579 -1.58047,2.01248 0.92189,3.09735 5.66456,2.46651 2.15599,-2.97807 3.767,-6.12732 -0.28954,-10.29051 -3.64242,-1.08667 -8.35647,-4.0927 -14.42141,-8.86526 -14.1313,-11.12004 -14.49218,-23.91307 -0.9448,-33.50898 10.86504,-8.57858 23.45137,-12.08385 35.26195,-15.68649 20.40929,-4.07235 40.42869,-10.7215 57.82302,-6.86111 17.71241,3.99739 84.48622,4.23124 87.5684,0.30705 4.15728,-5.29353 -3.94149,-11.02297 -17.9322,-12.68586 -7.5964,-0.90297 -1.44808,-0.91881 13.66473,-0.0337 15.11282,0.88504 31.46701,3.28978 36.34205,5.34297 5.89742,2.48374 7.89484,2.50051 5.96895,0.0494 -1.59206,-2.02703 -0.28395,-4.51589 2.90626,-5.52806 3.19027,-1.01214 -3.03024,-1.96814 -13.82326,-2.12589 -14.5393,-0.21268 -19.62307,-1.75579 -19.62307,-5.95275 0,-3.11571 -2.06301,-4.66112 -4.58242,-3.43593 -2.51942,1.2254 -8.23237,0.38178 -12.69665,-1.87574 -7.67535,-3.88098 -7.67667,-3.99736 -0.0362,-2.1279 4.44418,1.08734 8.07834,0.39228 8.07834,-1.5434 0,-1.935712 -2.46048,-3.51983 -5.468,-3.51983 -3.00751,0 -14.57815,-3.469262 -25.71251,-7.710792 -14.36962,-5.47385 -25.46639,-7.160501 -38.2422,-5.811992 -9.8994,1.044807 -17.72758,0.837155 -17.39531,-0.462544 0.97156,-3.801153 -6.31305,-22.347768 -8.77801,-22.347768 z m 43.24312,25.529221 c 2.2591,-0.0256 0.21424,1.327034 -5.36232,4.808799 -6.44857,4.026474 -7.26267,5.800827 -2.69492,5.881401 3.59766,0.06274 5.33502,1.065613 3.85951,2.226842 -1.47552,1.16095 -6.96903,0.30566 -12.20842,-1.900787 -7.47539,-3.148375 -9.02695,-2.988819 -7.20751,0.742049 1.5769,3.233818 -2.51848,5.022498 -12.80239,5.593358 l -15.12103,0.83896 14.95196,-7.245991 c 8.22251,-3.985299 20.68889,-8.293054 27.70358,-9.573723 4.62091,-0.843683 7.52603,-1.35566 8.88154,-1.370908 z m 8.67862,12.202048 c 1.63816,0.03783 3.20829,0.683644 4.11316,1.835664 1.44777,1.84351 7.30654,2.44815 13.01793,1.34154 5.71142,-1.10655 9.21912,-0.99246 7.79514,0.25651 -1.42398,1.24916 -7.65822,2.94158 -13.85285,3.75975 -6.19461,0.81812 -10.82449,3.11587 -10.28924,5.10551 0.53534,1.98941 -1.54346,3.55118 -4.61829,3.4715 -14.35505,-0.37214 -21.75156,1.33486 -21.75156,5.02139 0,2.21231 3.05051,3.10226 6.77848,1.97665 3.72796,-1.12584 8.03948,-0.4442 9.57905,1.51589 1.65298,2.10486 12.58524,2.58329 26.69748,1.16701 13.14404,-1.31898 22.56266,-1.26367 20.93143,0.12295 -5.07532,4.31804 -44.48091,6.35375 -47.54224,2.45599 -1.58798,-2.02186 -5.77745,-2.80375 -9.31063,-1.73698 -7.34791,2.21897 -18.72923,-11.57949 -12.17882,-14.76523 2.31724,-1.12695 7.85691,-0.94994 12.31198,0.39521 6.00295,1.81285 7.11165,1.18782 4.27804,-2.42017 -2.8174,-3.58721 -1.73988,-4.23998 4.09835,-2.47703 4.38192,1.32321 6.75209,0.89916 5.30103,-0.94838 -1.44309,-1.83744 -0.65538,-4.29724 1.75008,-5.467162 0.90206,-0.4386 1.90859,-0.634394 2.89148,-0.611811 z m -115.35438,7.092474 c 1.22874,0.0962 2.03968,0.87473 2.03968,2.1975 0,2.1163 -2.07667,3.84588 -4.61622,3.84588 -2.53953,0 -4.61829,-0.72099 -4.61829,-1.60248 0,-0.88124 2.07876,-2.61061 4.61829,-3.84586 0.95234,-0.463 1.83931,-0.65234 2.57654,-0.59504 z m 69.76303,11.28743 c 0.84238,-0.0337 2.06498,0.17232 3.60587,0.63712 3.94118,1.19027 7.16526,2.8082 7.16526,3.59366 0,2.94271 -8.79723,1.28877 -11.50878,-2.1637 -1.01105,-1.2872 -0.66635,-2.01045 0.73765,-2.06708 z m -111.587853,5.6565 c 3.809295,0 6.926412,1.54073 6.926412,3.42114 0,4.58166 -7.211171,7.86092 -10.900102,4.95805 -5.199956,-4.0918 -3.166598,-8.37919 3.97369,-8.37919 z M 192.30325,139.0448 c -16.16254,0.65121 -34.68121,5.38393 -40.47,7.16188 -4.4967,1.38117 -7.93509,2.21496 -12.47051,3.94902 0.92275,4.17885 1.2048,10.35766 1.2048,18.79839 0,11.42798 -0.73369,19.09804 -2.71819,23.38455 0.47345,8.35969 0.6874,16.65969 0.353,24.0319 -0.005,0.0851 -0.009,0.16332 -0.0139,0.24625 0.0503,1.36726 0.0698,2.89569 0.0698,4.60493 0,6.90807 -1.48995,12.32758 -3.71154,15.43833 -1.35048,5.54971 -1.36103,7.80566 -1.1308,10.54942 0.1841,2.19549 0.59803,4.91643 0.6404,9.15526 1.18038,8.77507 2.67387,25.0882 3.87222,43.28036 l 3.11127,47.23586 -17.5517,8.8735 c -54.860229,27.74086 -75.385963,62.57489 -60.961811,103.45621 7.147476,20.25763 20.92005,33.32751 56.005301,52.09938 4.91202,2.7277 10.56347,6.21015 15.08507,8.58769 -3.41855,0.30933 -6.73433,-0.82742 -10.25539,-1.30376 -3.97675,-0.53793 -7.28787,3.18374 -7.28787,7.17667 0,3.99271 3.28719,7.495 7.28787,7.17852 11.63747,-0.92108 22.66999,-2.91823 36.82184,-1.59372 l 0.0162,-0.0969 c 0,0 0.79584,0.15225 1.00821,0.19146 0.0257,0 0.0519,0 0.0784,0 0.009,0 0.0162,0 0.0288,0.0277 1.35718,0.25951 5.31324,1.0168 10.55134,1.91112 6.23134,1.06386 13.60635,2.10165 15.95166,2.12403 2.72918,0.0277 5.12268,-0.76999 6.69183,-2.01654 1.56909,-1.24678 2.50707,-2.80935 2.56175,-5.49022 h 0.0116 c -0.11941,-3.88914 -3.3392,-6.99514 -7.2773,-6.95592 -16.14189,2.05736 -26.03772,1.45046 -37.37981,1.46131 -9.18932,-4.14772 -22.20175,-11.27756 -28.79209,-14.25854 -30.686288,-13.88116 -52.311778,-46.3042 -52.323371,-66.02597 -0.0046,-8.77223 18.858078,-40.17155 26.278998,-43.74305 3.320883,-1.59787 6.038703,-4.55577 6.038703,-6.57277 0,-2.017 -2.07881,-2.65688 -4.618315,-1.42163 -2.539553,1.23502 -4.616201,0.46319 -4.616201,-1.71574 0,-2.17939 3.114984,-4.9034 6.924276,-6.05376 3.80932,-1.15036 6.94,-3.9588 6.956,-6.24314 0.0257,-3.6693 6.42625,-7.51945 37.34816,-22.46331 4.29654,-2.07651 10.82066,-5.74143 14.4996,-8.14388 3.67891,-2.40292 8.05603,-3.29354 9.727,-1.97894 1.67099,1.31529 3.03942,0.20991 3.03942,-2.45366 0,-2.66472 1.28555,-3.82985 2.85765,-2.59275 1.5721,1.23709 5.5112,0.28234 8.7526,-2.12173 3.24151,-2.40268 12.34351,-8.43937 20.22762,-13.41335 7.88408,-4.97375 14.33478,-10.90456 14.33474,-13.17968 0,-2.27512 3.14594,-6.19078 6.98982,-8.70118 8.56342,-5.59249 8.3193,-39.71399 -0.30224,-42.31743 -3.21988,-0.97212 -4.57567,-4.99322 -3.14086,-9.3108 1.93924,-5.8355 1.01622,-6.88549 -3.97367,-4.5188 -5.30269,2.51484 -5.25896,1.87975 0.24293,-3.45067 2.50849,-2.43004 4.20016,-3.99872 6.3959,-3.91725 4.19181,0.15432 14.54792,6.32042 31.59266,23.96702 9.36872,9.69928 10.7585,19.2858 2.30813,15.91746 -3.17446,-1.26524 -2.01117,0.11649 2.58497,3.07004 5.4066,3.47484 6.60303,6.2251 3.38818,7.78841 -2.73294,1.32927 -3.86363,3.82484 -2.51104,5.54704 1.35264,1.72222 0.34897,4.15941 -2.23198,5.41459 -2.58096,1.25516 -4.6923,5.45501 -4.6923,9.33399 0,3.87898 -1.85317,7.0528 -4.1174,7.0528 -2.26421,0 -5.41961,4.08751 -7.01306,9.0834 -1.59346,4.99613 -10.30332,9.0841 -14.06422,9.0841 -3.7609,0 -6.83976,1.94665 -6.83976,4.32718 -10.87991,-2.80497 -3.79014,6.44959 -17.93004,6.57323 -5.37528,0 -9.80429,2.04191 -9.84327,4.53986 -0.051,3.27901 -1.19494,3.14637 -4.11313,-0.47957 -7.77566,-7.13445 -8.51922,13.8348 -14.18895,6.96423 -2.56179,-3.26194 -6.16972,-2.2276 -13.34767,3.83538 -6.81989,5.76058 -9.87913,6.70679 -9.97642,3.08247 -1.38413,-6.38223 -8.16921,7.25556 -15.5078,7.48993 -3.2755,0 -8.32229,4.08797 -11.21502,9.0841 -6.32861,10.9297 -4.10069,11.53406 7.23711,1.95771 4.72704,-3.99293 17.15293,-7.99094 28.25101,-9.08825 l 19.81336,-1.95748 -30.99243,16.3528 c -17.04504,8.99437 -32.2936,16.35304 -33.88599,16.35304 -4.2853,0 -15.62723,14.68505 -21.749403,28.15976 -2.950936,6.49481 -3.531723,11.8088 -1.291468,11.8088 2.240302,0 3.732894,1.22418 3.31634,2.72285 2.331401,36.35278 41.228261,38.36239 50.740181,47.82041 2.4316,2.46243 6.70885,0.0507 8.43134,0.90839 1.7861,0.88855 2.34894,4.09904 4.55068,5.96126 3.83401,3.24256 8.72704,6.19078 13.69223,7.49638 6.81432,1.79163 15.32037,1.66661 18.65079,8.29312 4.49298,4.76823 3.37101,2.83197 5.67304,4.2792 5.70443,2.67119 13.95762,4.64597 17.55807,8.22762 0.46133,0.45926 0.87668,1.41102 1.71628,1.93026 3.5563,2.20038 12.0627,6.36055 13.63934,7.18959 6.89409,3.62363 20.39915,9.41234 27.01667,15.17961 6.61747,5.76703 7.13894,6.95407 5.01353,9.89122 -1.84809,2.554 -9.23801,2.4991 -13.97121,2.18908 l -24.22658,1.21287 c -0.72993,0.26527 -2.06914,0.37577 -4.28438,0.26527 l -3.12187,0.10611 -4.95862,0.24821 -0.005,-0.0807 -19.50263,0.6558 -71.232,-3.55765 c -4.0131,-0.0392 -7.28785,3.18396 -7.28785,7.17667 0,3.99224 3.27475,7.21865 7.28785,7.17851 l 71.1959,-3.07647 51.22634,3.07624 c 4.41747,5.08563 5.24715,10.17195 -0.51152,13.37576 -12.63405,6.84265 -21.70039,12.64521 -28.2066,15.39136 -0.12498,-0.0277 -1.57157,0.53632 -3.18105,1.15913 -12.98498,6.66689 -31.68516,13.87262 -49.23317,20.93672 -14.65407,5.9435 -33.70497,13.10472 -42.55614,16.40748 -11.25933,4.20146 -18.68716,9.55121 -32.209874,17.93637 -13.522687,8.3854 -24.877625,20.34528 -24.877625,37.18458 v 30.58228 c 0,6.21707 2.964594,11.93797 7.368147,17.0153 4.403577,5.07755 10.326108,9.65755 16.968387,13.82971 13.284585,8.34411 20.832685,15.02806 33.562585,19.37046 31.90265,10.88219 89.52647,41.04765 93.21602,36.42751 1.49572,-1.87328 2.1479,-8.49034 2.25317,-15.83356 -1.94926,-1.36927 -6.50352,-3.39619 -9.80611,-0.93538 -0.40285,1.01473 1.6277,2.83543 0.93091,3.92328 -2.50253,3.90735 -52.064,-16.8303 -84.38944,-27.85689 -12.34973,-4.21277 -19.41026,-13.31094 -31.916081,-21.16601 -6.252923,-3.92766 -11.657388,-8.18171 -15.35775,-12.44823 -3.700362,-4.26674 11.200953,5.0019 9.832666,1.31853 -1.031078,-2.77591 -11.699519,-10.32489 -6.54596,-9.89353 3.05544,0.25674 1.762372,-4.07713 4.081487,-4.36316 1.316162,-0.16378 10.573977,3.76456 12.096364,6.57738 1.522433,2.81282 -3.491749,3.52928 -3.491749,6.13772 0,3.99294 3.274765,7.21912 7.287873,7.17875 l 20.75178,-0.96098 c 0.039,0.0277 0.0856,0.0346 0.12475,0.0507 9.90176,-0.48303 19.12204,-1.66015 30.23991,-1.6064 2.56249,0.0277 5.24176,0.0992 8.0382,0.26827 18.59361,0.55154 55.87214,2.24998 55.87214,2.24998 4.01311,0.0392 7.28785,-3.18628 7.28785,-7.17852 0,-3.99293 -3.27474,-7.21727 -7.28785,-7.17667 l -63.71798,4.87595 -34.62362,-0.83873 C 105.96925,734.67722 99.035,724.5062 89.013151,716.02738 c -0.801644,-4.86234 -1.833023,-5.21573 1.52394,-7.31761 0.452726,-0.28257 0.921172,-0.56561 1.388691,-0.84749 12.393898,-9.63102 20.803878,-14.75702 30.935318,-19.25881 20.18608,-8.96946 35.2991,-14.96878 52.19226,-22.02596 1.69729,-0.76007 3.39601,-1.50906 5.1256,-2.24375 0.0522,0 0.11547,0 0.17112,0.0277 l 42.48855,-18.74788 c 9.47999,-4.6402 19.39701,-10.58116 30.59502,-17.32255 6.58389,-3.96318 12.53974,-8.18632 17.02331,-12.76332 4.48358,-4.57723 7.68523,-9.67093 7.68523,-15.39021 v -28.59043 c 0,-9.41834 -6.09715,-17.3244 -13.46817,-23.74838 -7.37102,-6.42353 -16.32101,-11.57213 -23.43609,-15.31202 -10.98439,-5.77349 -66.10612,-36.29856 -115.93142,-61.35763 -20.5619,-19.60275 -20.02023,-46.30674 1.37176,-62.43441 l 9.88973,-7.45624 c 7.03122,-5.84477 14.4066,-8.24307 19.57027,-9.89953 5.04579,-1.61862 8.17452,-3.87391 13.71968,-6.62352 7.43896,-3.68891 14.17128,-6.1075 21.36049,-8.5983 l 18.60643,-8.11435 c 24.82362,-10.82775 53.45005,-28.31247 62.43926,-41.81486 8.39343,-12.60716 8.38399,-42.15102 -0.0162,-57.87109 -3.60128,-6.73893 -12.43139,-16.53061 -19.62308,-21.76126 -17.30817,-12.5887 -58.93203,-29.26992 -62.85988,-26.1791 -1.71282,1.34807 -1.77842,-17.0502 -0.14561,-40.88317 1.26605,-18.4824 2.19965,-32.67452 2.68222,-40.42714 z m -24.03215,9.81143 c 2.5395,0 4.61828,4.08776 4.61828,9.08387 0,4.99587 2.0767,9.08366 4.61623,9.08366 5.82999,0 6.10035,17.01935 0.31492,19.83293 -2.36667,1.15112 -5.2007,-1.6139 -6.29653,-6.14409 -1.09582,-4.53022 -0.98844,3.20743 0.23891,17.19612 1.22727,13.98868 4.28231,26.45634 6.78906,27.7055 2.53549,1.26367 3.19099,7.17367 1.47531,13.3209 -3.96112,14.19189 1.98713,42.24292 6.71082,31.64607 2.96953,-6.66174 4.16531,-6.37059 17.75464,4.32319 8.01327,6.30567 14.56937,15.18076 14.56934,19.72147 0,7.88694 -20.70037,28.6352 -28.56801,28.6352 -2.06441,0 -3.75383,-9.08779 -3.75383,-20.19696 0,-11.46978 -1.84703,-19.30052 -4.27591,-18.11916 -2.35251,1.14418 -5.59871,-7.34379 -7.2118,-18.8615 -4.20614,-30.03328 -5.86109,-34.12508 -6.26271,-15.48871 -0.19361,8.99282 2.40319,28.61206 5.77026,43.60012 3.36708,14.98783 4.6348,28.06694 2.81748,29.06621 -1.81731,0.99904 -4.66086,4.26951 -6.31977,7.26686 -1.65899,2.99759 -2.22206,-2.34178 -1.25131,-11.86554 0.97077,-9.52422 -0.0612,-18.20506 -2.29329,-19.29058 -2.23214,-1.08556 -4.05825,7.02067 -4.05825,18.01197 0,10.99129 -2.07873,20.99462 -4.61829,22.2301 -5.11391,2.48711 -6.6352,-12.68189 -4.82757,-48.1442 0.63669,-12.49004 -0.61413,-22.7094 -2.77942,-22.70958 -2.16534,0 -3.93564,-23.29839 -3.93564,-51.77551 0,-28.47707 0.65698,-47.28105 1.46052,-41.78545 0.80359,5.49556 3.2616,9.99219 5.4638,9.99219 2.20216,0 4.98743,4.49663 6.18874,9.99221 1.20134,5.4956 2.0377,1.81665 1.85793,-8.17535 -0.5218,-29.00139 0.87055,-38.15194 5.80618,-38.15194 z M 156.39874,207.64 c -1.08742,0 -1.77774,1.99342 -1.61483,5.10551 0.22143,4.23281 1.31602,5.09391 2.79002,2.1953 1.3338,-2.62292 1.16857,-5.75695 -0.36566,-6.96424 -0.28768,-0.22652 -0.55858,-0.33478 -0.80953,-0.33657 z m 9.23451,3.6335 c -1.0874,0 -1.77774,1.99342 -1.61483,5.10555 0.22167,4.23279 1.31607,5.09389 2.79002,2.19526 1.33385,-2.62292 1.16864,-5.75695 -0.36566,-6.96424 -0.28766,-0.22652 -0.55855,-0.33477 -0.80953,-0.33657 z m 24.59653,15.69906 c 1.70158,-0.0337 5.23587,0.66235 11.09664,1.98493 8.45172,1.90747 16.22114,3.46744 17.26636,3.46744 1.04524,0 -1.86069,3.27033 -6.4572,7.26703 -8.06819,7.0155 -8.06093,7.52482 0.2008,14.7086 4.70672,4.09267 8.96925,9.40678 9.47123,11.80907 0.50199,2.40208 2.39296,8.8639 4.20194,14.3595 3.93186,11.94492 -0.3294,13.52415 -4.90154,1.81687 -4.00337,-10.25114 -17.88256,-20.89299 -27.24914,-20.89299 -8.45789,0 -9.70217,-14.67861 -1.77334,-20.91781 4.04856,-3.18593 3.95365,-5.52577 -0.39103,-9.64512 -2.81272,-2.66724 -3.65252,-3.91524 -1.46474,-3.95752 z m 18.40988,10.22784 c -1.24793,0.0424 -3.35778,0.4585 -5.73859,1.1773 -3.8093,1.15046 -6.92642,3.75324 -6.92642,5.78267 0,2.12659 2.93432,1.77459 6.92642,-0.83268 3.80931,-2.48775 6.92641,-5.09075 6.92641,-5.78246 0,-0.25965 -0.43912,-0.37014 -1.18782,-0.34483 z m -61.27674,45.5197 c 0.29911,-0.0805 0.64102,0.38961 1.00395,1.48256 1.16139,3.49722 1.16139,9.22017 0,12.71736 -1.16137,3.49725 -2.11152,0.63578 -2.11152,-6.35868 0,-4.80878 0.44945,-7.66265 1.10757,-7.84124 z m 46.50654,81.72031 c 3.69761,0 6.72353,1.36281 6.72353,3.02826 0,1.66522 -1.95603,3.02803 -4.34566,3.02803 -2.38971,0 -5.41559,-1.36281 -6.72355,-3.02803 -1.3079,-1.66545 0.6481,-3.02826 4.34568,-3.02826 z m -80.66519,17.47595 c -1.33513,-0.0323 -2.95138,0.32063 -4.72613,1.18381 -2.74991,1.33743 -3.69246,4.09743 -2.09462,6.13172 1.94905,2.48157 4.53189,2.42021 7.84795,-0.19146 4.44476,-3.49745 2.97814,-7.03388 -1.0272,-7.12592 z m 75.65375,4.1574 c -5.03751,1.81885 -9.83571,3.71405 -14.96884,6.24914 1.02438,6.93792 -0.73948,19.3061 -0.72501,21.25667 0.0209,2.80981 -2.16364,11.19359 3.0183,18.85513 9.83721,9.73391 8.1149,0.97483 11.67155,1.46131 z m -33.7951,14.68943 c -4.73942,1.67376 -9.86924,4.013 -14.74481,8.67581 0.67799,3.50276 2.47732,7.42834 3.59953,14.75264 4.17193,2.10465 7.2922,12.77485 15.76994,6.60921 -1.61483,-6.87172 -6.37612,-17.51216 -5.468,-23.92485 0.23002,-1.62393 0.42843,-3.83953 0.84334,-6.11281 z m -5.60538,39.72266 c -1.93665,0.06 -3.61311,1.37873 -5.19113,2.76115 0.13055,2.75768 0.17877,5.54997 0.11014,8.22138 -0.086,18.53289 3.38771,19.71186 10.58937,2.71894 0.37589,-3.43171 0.79432,-6.40415 1.24705,-8.93024 -2.62171,-3.63932 -4.81858,-4.83282 -6.7552,-4.77123 z m 33.48435,4.98552 c -1.72998,-0.0692 -3.17831,0.93953 -4.53797,2.33625 -0.009,2.97982 -0.55624,4.60721 -1.65922,4.0709 -2.12035,-1.03134 -3.85532,-0.23967 -3.85532,1.76003 0,1.99831 2.0767,4.64204 4.61623,5.87706 0.44319,0.21453 2.75609,6.73724 3.13457,7.02743 l 6.74039,-4.02892 c 0.0322,-4.27989 0.10666,-9.26772 0.2008,-14.61839 -1.77824,-1.67029 -3.29392,-2.37223 -4.63948,-2.42436 z m 16.47589,95.10035 c -3.1074,2.28596 -6.90234,3.41095 -10.81551,3.52213 9.25591,4.31034 18.12226,8.5471 26.21342,12.78454 0.40399,0.20991 1.54706,0.84172 2.61037,1.43178 l 12.03721,-0.60113 c -4.43543,-2.90808 -7.39827,-5.65516 -8.29182,-6.12319 -7.07147,-3.70367 -14.40389,-6.64013 -21.75367,-11.01413 z m 39.29271,3.47761 c -0.61703,-0.0277 -1.12522,0.0461 -1.48378,0.18915 -1.86699,0.22837 -0.49008,2.06221 -1.53029,2.75215 -1.71719,3.03449 16.02525,13.95013 13.73661,4.04576 -1.07477,-3.24371 -6.40339,-6.88925 -10.72254,-6.98521 z m 7.57954,56.06094 c 1.39222,15.23566 -39.53559,11.04873 0,0 z m -116.09628,7.60364 c -4.01313,-0.0392 -13.84649,2.63958 -13.84649,6.63206 0,3.99247 3.27474,7.21865 7.28785,7.17851 l 42.94719,-2.15517 c 15.9825,-1.7501 15.11486,-3.3655 20.76657,-8.39415 l -10.67605,0.26827 z m 110.64727,17.39799 c 3.41679,-0.14071 6.4994,2.0426 -1.57045,6.80667 -12.55637,7.55866 -13.3009,4.54263 -24.34497,9.45779 -40.82857,18.17096 -42.09889,20.38311 -86.31707,39.69336 -15.93056,6.95708 -29.645143,13.87378 -41.911514,21.55493 -5.632602,3.52721 -8.691311,11.90153 -14.201602,11.69346 -2.469783,-4.48865 -0.0046,-8.97707 0,-13.46594 0.02087,-13.66594 8.983722,-23.34564 21.480989,-31.0953 12.497287,-7.7492 17.405557,-15.47348 28.874547,-19.75268 18.85711,-7.03666 61.73784,-20.10331 66.53337,-19.50495 1.85597,0.26251 -1.15761,4.30273 -3.91872,6.49735 -2.57934,2.04975 4.01995,1.50075 5.55043,0.77183 8.64923,-4.12073 10.63136,-2.37016 13.63725,-3.23426 4.93076,-1.41725 11.03234,-5.73197 15.03861,-6.40276 3.39049,-0.56792 6.02854,2.95098 10.05885,1.40248 7.28194,-2.79805 8.43283,-4.31287 11.09028,-4.42198 z m -17.39743,29.63583 c -4.36011,-0.40345 -16.11998,5.21526 -17.58973,7.76096 4.16282,0.93353 5.20158,2.07674 10.54497,2.07974 4.01311,0.0392 7.28782,-3.18397 7.28782,-7.17667 0,-1.01219 -0.0689,-1.8982 -0.24292,-2.66403 z m -7.04476,38.54923 c 0,0 -30.01224,2.35193 -57.52291,3.13091 -12.01463,0.34048 -23.31999,0.0877 -31.79133,-0.2738 -7.03595,0.70562 -16.36291,2.74499 -17.52383,8.47397 l 49.29828,-0.95083 57.53979,3.97402 c 4.01311,0.0392 7.28782,-3.18559 7.28782,-7.17852 0,-3.99224 -3.27471,-7.21681 -7.28782,-7.17667 z m -73.52744,63.79883 c 19.37072,6.12666 42.83786,12.75663 56.07929,21.02969 1.7966,1.12245 3.30377,3.64946 0.33183,3.67968 -3.01057,0.0323 -9.02412,-1.33144 -14.88638,-2.3803 -5.9262,1.04725 -7.2879,3.18419 -7.2879,7.17667 0,3.99247 3.27476,7.21888 7.2879,7.17874 0,0 10.74718,-2.62205 16.20952,-2.44766 3.01528,0.0969 8.07655,1.63155 10.22163,2.13234 2.65247,0.61912 5.34188,1.27884 7.71688,0.10841 3.00027,-1.47745 5.07479,-4.2792 5.14247,-6.97276 0,-3.7671 -2.91567,-6.84773 -6.01331,-8.75769 -3.85664,1.11645 -39.52794,-12.81845 -58.05556,-20.80248 -7.87288,-3.3369 -10.91334,-1.34897 -16.74637,0.0554 z"
         id="path4589-0"
         inkscape:connector-curvature="0"
         inkscape:label="Main"
         sodipodi:nodetypes="sscsccsccscccssscccsccsccssccccsccsscsccccsscsccsccccsssscscccscsscscsccccccccssccccscscsscscsccsccccccscccsccccssccccscccscccsssscsccsscsssscccscccsccccccsccsssccccccccccccscsscscccscsccsccsscccccccccsssscccccccccscccscsccccccccscssccccccccscccccccsssssssccccssssscssccccccscccccccccccscssssccccsccccscsccsssccscscccsscsscccscscscssscssccccccccccccscsccsssscscscsscscscssscsccccccccccccccccccccccccccsccccccccccccccccccccscccccscsssccsccscscsscccsccsccccsccsccsccssccccc" />
      <text
         inkscape:label="Logo Text"
         id="text846"
         y="371.13284"
         x="440.3378"
         style="font-style:normal;font-variant:normal;font-weight:normal;font-stretch:normal;font-size:373.33334351px;line-height:1;font-family:P052;-inkscape-font-specification:P052;letter-spacing:0px;word-spacing:0px;fill:#000000;fill-opacity:1;stroke:none"
         xml:space="preserve"><tspan
           style="font-style:normal;font-variant:normal;font-weight:normal;font-stretch:normal;font-family:'EB Garamond';-inkscape-font-specification:'EB Garamond'"
           id="tspan850"
           y="371.13284"
           x="440.3378"
           sodipodi:role="line">ИХБФМ</tspan><tspan
           style="font-style:normal;font-variant:normal;font-weight:normal;font-stretch:normal;font-family:'EB Garamond';-inkscape-font-specification:'EB Garamond'"
           id="tspan838"
           y="761.50787"
           x="440.3378"
           sodipodi:role="line">СО РАН</tspan></text>
    </g>
  </g>
</svg>
