<?xml version="1.0" encoding="UTF-8" standalone="no"?>
<!-- Created with Inkscape (http://www.inkscape.org/) -->

<svg
   xmlns:dc="http://purl.org/dc/elements/1.1/"
   xmlns:cc="http://creativecommons.org/ns#"
   xmlns:rdf="http://www.w3.org/1999/02/22-rdf-syntax-ns#"
   xmlns:svg="http://www.w3.org/2000/svg"
   xmlns="http://www.w3.org/2000/svg"
   xmlns:xlink="http://www.w3.org/1999/xlink"
   xmlns:sodipodi="http://sodipodi.sourceforge.net/DTD/sodipodi-0.dtd"
   xmlns:inkscape="http://www.inkscape.org/namespaces/inkscape"
   width="22.529919in"
   height="10.376274in"
   viewBox="0 0 572.25992 263.55736"
   version="1.1"
   id="svg846"
   inkscape:version="0.92.2 5c3e80d, 2017-08-06"
   sodipodi:docname="simple_russian.svg"
   inkscape:export-filename="/home/danila/Documents/Identity/hipsters.png"
   inkscape:export-xdpi="96"
   inkscape:export-ydpi="96">
  <defs
     id="defs840">
    <linearGradient
       inkscape:collect="always"
       id="linearGradient1065">
      <stop
         style="stop-color:#af82d0;stop-opacity:1"
         offset="0"
         id="stop1061" />
      <stop
         id="stop1069"
         offset="0.47082123"
         style="stop-color:#2796c9;stop-opacity:1" />
      <stop
         style="stop-color:#2cad69;stop-opacity:1"
         offset="1"
         id="stop1063" />
    </linearGradient>
    <inkscape:path-effect
       simplifyJustCoalesce="false"
       simplifyindividualpaths="false"
       simplify_just_coalesce="false"
       simplify_individual_paths="false"
       helper_size="0"
       smooth_angles="360"
       threshold="0.00741464"
       steps="1"
       is_visible="true"
       id="path-effect4542"
       effect="simplify" />
    <inkscape:path-effect
       simplifyJustCoalesce="false"
       simplifyindividualpaths="false"
       simplify_just_coalesce="false"
       simplify_individual_paths="false"
       helper_size="0"
       smooth_angles="360"
       threshold="0.00741464"
       steps="1"
       is_visible="true"
       id="path-effect4538"
       effect="simplify" />
    <inkscape:path-effect
       is_visible="true"
       id="path-effect4534"
       effect="spiro" />
    <inkscape:perspective
       id="perspective10"
       inkscape:persp3d-origin="396.85041 : 374.17322 : 1"
       inkscape:vp_z="793.70081 : 561.25983 : 1"
       inkscape:vp_y="0 : 1066.6667 : 0"
       inkscape:vp_x="0 : 561.25982 : 1"
       sodipodi:type="inkscape:persp3d" />
    <inkscape:perspective
       sodipodi:type="inkscape:persp3d"
       inkscape:vp_x="0 : 561.25982 : 1"
       inkscape:vp_y="0 : 1066.6667 : 0"
       inkscape:vp_z="793.70081 : 561.25983 : 1"
       inkscape:persp3d-origin="396.85041 : 374.17322 : 1"
       id="perspective2390" />
    <linearGradient
       inkscape:collect="always"
       xlink:href="#linearGradient1065"
       id="linearGradient1067"
       x1="59.558437"
       y1="197.71819"
       x2="59.55864"
       y2="10.538891"
       gradientUnits="userSpaceOnUse"
       gradientTransform="translate(0.3518358,9.461109)" />
    <linearGradient
       inkscape:collect="always"
       xlink:href="#linearGradient1065"
       id="linearGradient864"
       x1="257.70654"
       y1="205.7693"
       x2="257.70654"
       y2="18.724611"
       gradientUnits="userSpaceOnUse" />
  </defs>
  <sodipodi:namedview
     id="base"
     pagecolor="#ffffff"
     bordercolor="#666666"
     borderopacity="1.0"
     inkscape:pageopacity="1"
     inkscape:pageshadow="2"
     inkscape:zoom="0.49497476"
     inkscape:cx="377.28263"
     inkscape:cy="153.70517"
     inkscape:document-units="mm"
     inkscape:current-layer="layer1"
     showgrid="false"
     inkscape:snap-nodes="true"
     inkscape:snap-page="true"
     inkscape:snap-bbox="true"
     inkscape:object-nodes="true"
     showguides="false"
     inkscape:guide-bbox="true"
     inkscape:window-width="1920"
     inkscape:window-height="1024"
     inkscape:window-x="0"
     inkscape:window-y="30"
     inkscape:window-maximized="1"
     inkscape:object-paths="true"
     inkscape:snap-intersection-paths="true"
     inkscape:snap-smooth-nodes="true"
     inkscape:snap-midpoints="true"
     inkscape:snap-global="true"
     fit-margin-top="1.5"
     fit-margin-bottom="1.5"
     fit-margin-left="3"
     fit-margin-right="3"
     inkscape:snap-to-guides="true"
     units="in">
    <sodipodi:guide
       position="96.650745,199.59987"
       orientation="0,1"
       id="guide1425"
       inkscape:locked="false"
       inkscape:label=""
       inkscape:color="rgb(0,0,255)" />
    <sodipodi:guide
       position="115.89415,169.59987"
       orientation="0,1"
       id="guide1427"
       inkscape:locked="false"
       inkscape:label=""
       inkscape:color="rgb(0,0,255)" />
    <sodipodi:guide
       position="109.47969,139.59987"
       orientation="0,1"
       id="guide1429"
       inkscape:locked="false"
       inkscape:label=""
       inkscape:color="rgb(0,0,255)" />
    <sodipodi:guide
       position="100.92705,99.599864"
       orientation="0,1"
       id="guide1431"
       inkscape:locked="false"
       inkscape:label=""
       inkscape:color="rgb(0,0,255)" />
    <sodipodi:guide
       position="122.84316,69.599866"
       orientation="0,1"
       id="guide1433"
       inkscape:locked="false"
       inkscape:label=""
       inkscape:color="rgb(0,0,255)" />
    <sodipodi:guide
       position="112.68692,39.599864"
       orientation="0,1"
       id="guide1435"
       inkscape:locked="false"
       inkscape:label=""
       inkscape:color="rgb(0,0,255)" />
    <sodipodi:guide
       position="77.698471,113.1442"
       orientation="1,0"
       id="guide1437"
       inkscape:locked="false"
       inkscape:label=""
       inkscape:color="rgb(0,0,255)" />
    <sodipodi:guide
       position="133.69847,111.54058"
       orientation="1,0"
       id="guide1439"
       inkscape:locked="false"
       inkscape:label=""
       inkscape:color="rgb(0,0,255)" />
    <sodipodi:guide
       position="87.698471,82.675474"
       orientation="1,0"
       id="guide1441"
       inkscape:locked="false"
       inkscape:label=""
       inkscape:color="rgb(0,0,255)" />
    <sodipodi:guide
       position="123.69847,80.002779"
       orientation="1,0"
       id="guide1443"
       inkscape:locked="false"
       inkscape:label=""
       inkscape:color="rgb(0,0,255)" />
    <sodipodi:guide
       position="106.19847,236.08819"
       orientation="1,0"
       id="guide1445"
       inkscape:locked="false"
       inkscape:label=""
       inkscape:color="rgb(0,0,255)" />
    <sodipodi:guide
       position="189.66055,184.59987"
       orientation="0,1"
       id="guide1447"
       inkscape:locked="false"
       inkscape:label=""
       inkscape:color="rgb(0,0,255)" />
    <sodipodi:guide
       position="250.06346,154.59987"
       orientation="0,1"
       id="guide1449"
       inkscape:locked="false"
       inkscape:label=""
       inkscape:color="rgb(0,0,255)" />
    <sodipodi:guide
       position="241.51084,119.59986"
       orientation="0,1"
       id="guide1451"
       inkscape:locked="false"
       inkscape:label=""
       inkscape:color="rgb(0,0,255)" />
    <sodipodi:guide
       position="237.23451,84.599865"
       orientation="0,1"
       id="guide1453"
       inkscape:locked="false"
       inkscape:label=""
       inkscape:color="rgb(0,0,255)" />
    <sodipodi:guide
       position="260.75424,54.599865"
       orientation="0,1"
       id="guide1455"
       inkscape:locked="false"
       inkscape:label=""
       inkscape:color="rgb(0,0,255)" />
    <sodipodi:guide
       position="100.65382,92.099865"
       orientation="0,1"
       id="guide1467"
       inkscape:locked="false"
       inkscape:label=""
       inkscape:color="rgb(0,0,255)" />
    <sodipodi:guide
       position="106.19847,77.099867"
       orientation="0,1"
       id="guide1469"
       inkscape:locked="false"
       inkscape:label=""
       inkscape:color="rgb(0,0,255)" />
    <sodipodi:guide
       position="113.883,107.09986"
       orientation="0,1"
       id="guide1471"
       inkscape:locked="false"
       inkscape:label=""
       inkscape:color="rgb(0,0,255)" />
    <sodipodi:guide
       position="118.41871,114.59986"
       orientation="0,1"
       id="guide1492"
       inkscape:locked="false"
       inkscape:label=""
       inkscape:color="rgb(0,0,255)" />
    <sodipodi:guide
       position="110.94967,62.099866"
       orientation="0,1"
       id="guide1508"
       inkscape:locked="false"
       inkscape:label=""
       inkscape:color="rgb(0,0,255)" />
    <sodipodi:guide
       position="129.79217,47.099865"
       orientation="0,1"
       id="guide1510"
       inkscape:locked="false"
       inkscape:label=""
       inkscape:color="rgb(0,0,255)" />
    <sodipodi:guide
       position="123.69847,124.59987"
       orientation="0,1"
       id="guide1518"
       inkscape:locked="false"
       inkscape:label=""
       inkscape:color="rgb(0,0,255)" />
    <sodipodi:guide
       position="101.64003,197.31133"
       orientation="1,0"
       id="guide1567"
       inkscape:locked="false"
       inkscape:label=""
       inkscape:color="rgb(0,0,255)" />
    <sodipodi:guide
       position="111.64004,202.74771"
       orientation="1,0"
       id="guide1569"
       inkscape:locked="false"
       inkscape:label=""
       inkscape:color="rgb(0,0,255)" />
    <sodipodi:guide
       position="129.22632,147.63261"
       orientation="1,0"
       id="guide1577"
       inkscape:locked="false" />
    <sodipodi:guide
       position="287.58202,226.64456"
       orientation="0,1"
       id="guide856"
       inkscape:locked="false" />
  </sodipodi:namedview>
  <metadata
     id="metadata843">
    <rdf:RDF>
      <cc:Work
         rdf:about="">
        <dc:format>image/svg+xml</dc:format>
        <dc:type
           rdf:resource="http://purl.org/dc/dcmitype/StillImage" />
        <dc:title />
      </cc:Work>
    </rdf:RDF>
  </metadata>
  <g
     inkscape:groupmode="layer"
     id="layer2"
     inkscape:label="Layer 2"
     transform="translate(46.64003,27.649303)"
     style="display:inline"
     sodipodi:insensitive="true">
    <path
       transform="translate(-0.3518358,-9.461109)"
       style="color:#000000;font-style:normal;font-variant:normal;font-weight:normal;font-stretch:normal;font-size:medium;line-height:normal;font-family:sans-serif;font-variant-ligatures:normal;font-variant-position:normal;font-variant-caps:normal;font-variant-numeric:normal;font-variant-alternates:normal;font-feature-settings:normal;text-indent:0;text-align:start;text-decoration:none;text-decoration-line:none;text-decoration-style:solid;text-decoration-color:#000000;letter-spacing:normal;word-spacing:normal;text-transform:none;writing-mode:lr-tb;direction:ltr;text-orientation:mixed;dominant-baseline:auto;baseline-shift:baseline;text-anchor:start;white-space:normal;shape-padding:0;clip-rule:nonzero;display:inline;overflow:visible;visibility:visible;opacity:1;isolation:auto;mix-blend-mode:normal;color-interpolation:sRGB;color-interpolation-filters:linearRGB;solid-color:#000000;solid-opacity:1;vector-effect:none;fill:url(#linearGradient1067);fill-opacity:1;fill-rule:nonzero;stroke:none;stroke-width:0.17638889;stroke-linecap:round;stroke-linejoin:miter;stroke-miterlimit:4;stroke-dasharray:none;stroke-dashoffset:0;stroke-opacity:1;color-rendering:auto;image-rendering:auto;shape-rendering:auto;text-rendering:auto;enable-background:accumulate"
       d="m 59.910474,20 c -3.232526,0 -5.882845,2.649804 -5.882845,5.882328 0,2.746891 1.914025,5.073827 4.472595,5.711277 v 39.39243 c -0.03393,0.80209 0.607433,1.47122 1.41025,1.47122 0.802817,0 1.443666,-0.66913 1.409733,-1.47122 v -39.39192 c 2.558671,-0.63737 4.473112,-2.964816 4.473112,-5.711787 C 65.793319,22.649804 63.142997,20 59.910474,20 Z m 0,2.82205 c 1.70728,0 3.060278,1.352996 3.060278,3.060278 0,1.647551 -1.260738,2.963707 -3.061828,2.967257 -1.801088,0.004 -3.059245,-1.321796 -3.059245,-2.967257 0,-1.707282 1.353513,-3.060278 3.060795,-3.060278 z m 27.499612,17.064585 c -2.243576,0 -4.205406,1.27738 -5.19658,3.13935 -4.061852,-0.76876 -9.961351,-1.56098 -16.80931,-1.8154 a 1.4112522,1.4112522 0 0 0 -0.14056,0 1.4112522,1.4112522 0 0 0 0.03514,2.8205 c 6.595385,0.24504 12.317558,1.00668 16.228468,1.73736 v 10e-4 c 0,3.23252 2.65032,5.88284 5.882843,5.88284 3.232526,0 5.882847,-2.65032 5.882847,-5.88284 0,-3.23252 -2.650321,-5.88285 -5.882847,-5.88285 z m -32.0213,1.49603 a 1.4112522,1.4112522 0 0 0 -0.09767,0.002 c -5.592101,0.24263 -10.271196,0.94247 -14.525212,3.12901 a 1.4112522,1.4112522 0 0 0 -0.0217,0.0114 c -5.741033,3.0725 -10.744047,9.49866 -10.744047,16.24397 0,6.74531 5.003013,13.17197 10.744047,16.24448 5.877105,3.14534 12.617512,1.54838 18.972485,0.13281 6.354979,-1.41558 12.324394,-2.64976 17.027384,-0.13281 4.855374,2.59852 9.256283,8.48256 9.256283,13.75575 0,5.27319 -4.400909,11.157235 -9.256283,13.755755 -3.320555,1.77711 -7.423256,1.84953 -11.171928,1.25574 a 1.4112522,1.4112522 0 1 0 -0.441317,2.78743 c 4.087177,0.64741 8.817618,0.6542 12.945464,-1.55495 5.741035,-3.07251 10.744047,-9.498665 10.744047,-16.243975 0,-6.74531 -5.003012,-13.17146 -10.744047,-16.24397 -5.877105,-3.14533 -12.617511,-1.54838 -18.972485,-0.1328 -6.354976,1.41557 -12.324394,2.64976 -17.027384,0.1328 -4.855374,-2.59851 -9.255766,-8.48307 -9.255766,-13.75626 0,-5.26887 4.393231,-11.14624 9.24388,-13.748 3.720909,-1.91008 7.927503,-2.58121 13.347506,-2.81637 a 1.4112522,1.4112522 0 0 0 -0.02325,-2.82205 z m 32.0213,1.32602 c 1.707282,0 3.060795,1.35352 3.060795,3.0608 0,1.70728 -1.353513,3.06028 -3.060795,3.06028 -1.707277,0 -3.060276,-1.353 -3.060276,-3.06028 0,-1.70728 1.352999,-3.0608 3.060276,-3.0608 z m -22.142317,3.24218 a 0.35281306,0.35281306 0 0 0 0,0.70538 c 8.058573,0.39508 13.978474,1.32395 13.978474,1.32395 a 0.35289804,0.35289804 0 1 0 0.109556,-0.69711 c 0,0 -5.957101,-0.93532 -14.052888,-1.33222 a 0.35281306,0.35281306 0 0 0 -0.03514,0 z m -9.848494,0.26717 a 0.35284425,0.35284425 0 0 0 -0.01499,5.3e-4 c -4.115594,0.17318 -6.545064,0.32084 -9.687264,1.34358 -5.493628,1.7881 -10.98746,7.24273 -11.193631,13.19558 a 0.35288447,0.35288447 0 1 0 0.705383,0.0233 c 0.191413,-5.52673 5.487377,-10.84819 10.70684,-12.54705 3.06018,-0.99604 5.38765,-1.13756 9.498128,-1.31052 a 0.35284425,0.35284425 0 0 0 -0.01447,-0.70538 z m -20.23339,29.10417 a 0.35281306,0.35281306 0 0 0 -0.254248,0.58601 c 3.070392,3.5557 6.240625,4.90826 10.230383,5.55056 4.507396,0.72565 9.023652,-0.43151 13.486515,-1.53531 4.462866,-1.10381 8.870819,-2.1546 13.164054,-1.33997 2.789047,0.52922 5.609048,1.88161 7.52719,3.93568 2.10752,2.25685 3.67435,4.63825 3.677811,8.34575 a 0.35281306,0.35281306 0 1 0 0.705385,0 c -0.0036,-3.90919 -1.70797,-6.51381 -3.867465,-8.82634 -2.047118,-2.19219 -4.993264,-3.59421 -7.912179,-4.14807 -4.488244,-0.85163 -8.999118,0.24322 -13.464811,1.34773 -4.465697,1.1045 -8.887728,2.21843 -13.204879,1.52342 -3.897249,-0.62742 -6.835619,-1.87139 -9.808703,-5.31441 a 0.35281306,0.35281306 0 0 0 -0.279053,-0.12505 z m 24.702885,6.36136 c -0.778454,0.0124 -1.39978,0.65297 -1.388546,1.43144 v 37.654555 c -0.03393,0.8021 0.607433,1.47123 1.41025,1.47123 0.802818,0 1.443666,-0.66913 1.409733,-1.47123 V 83.115005 c 0.01146,-0.79525 -0.636179,-1.4429 -1.431437,-1.43144 z m -9.588562,20.124875 c -3.453678,0.0317 -6.805239,1.0125 -9.63197,2.75952 -3.104679,1.9188 -5.668933,5.462 -7.566463,9.37928 -1.880625,3.88239 -3.078331,8.12976 -3.099553,11.72434 a 1.4112522,1.4112522 0 0 0 -0.0021,0.0977 c 0,3.88748 0.636789,8.99177 2.298567,13.30255 0.830889,2.1554 1.917432,4.12196 3.404444,5.61568 1.487008,1.49372 3.447873,2.49184 5.707145,2.49184 h 35.999865 c 2.300883,0 4.426686,1.78864 6.035292,4.54701 0.22257,0.38166 0.430895,0.7806 0.627351,1.18959 H 41.410311 a 0.35352,0.35352 0 1 0 0,0.70693 h 42.983422 c 0.968034,2.24906 1.539142,4.74532 1.598869,6.79287 H 41.410311 a 0.35352,0.35352 0 0 0 0,0.70693 h 44.582291 c -0.05967,2.04762 -0.630782,4.54418 -1.598869,6.79338 H 41.410311 a 0.35352,0.35352 0 1 0 0,0.70694 h 42.662512 c -0.196456,0.409 -0.404781,0.80741 -0.627351,1.18907 -1.608606,2.75837 -3.734409,4.54701 -6.035292,4.54701 H 41.410311 c -3.70837,0 -6.583785,2.70606 -8.472867,5.94538 -1.889083,3.23932 -2.937289,7.14798 -2.937289,10.46499 0,3.317 1.048206,7.22516 2.937289,10.46448 1.889082,3.23932 4.764497,5.94537 8.472867,5.94537 h 45.999775 a 1.4112522,1.4112522 0 1 0 0,-2.81998 H 41.410311 c -2.300879,0 -4.426684,-1.78864 -6.03529,-4.54701 -0.22257,-0.38165 -0.430899,-0.78059 -0.627352,-1.18959 H 77.41018 a 0.35352,0.35352 0 0 0 0,-0.70694 H 34.426758 c -0.968009,-2.24904 -1.539143,-4.74533 -1.598868,-6.79286 h 44.58229 a 0.35352,0.35352 0 1 0 0,-0.70694 H 32.82789 c 0.05967,-2.04759 0.6308,-4.54421 1.598868,-6.79338 H 77.41018 a 0.35352,0.35352 0 0 0 0,-0.70693 H 34.747669 c 0.196453,-0.40901 0.404782,-0.80743 0.627352,-1.18908 1.608606,-2.75837 3.734411,-4.54701 6.03529,-4.54701 H 77.41018 c 3.708371,0 6.583784,-2.70605 8.472869,-5.94537 1.88908,-3.23932 2.937288,-7.148 2.937288,-10.46499 0,-3.31701 -1.048208,-7.22516 -2.937288,-10.46448 -1.889085,-3.23932 -4.764498,-5.94538 -8.472869,-5.94538 H 41.410311 c -1.467505,0 -2.620505,-0.57076 -3.707267,-1.66243 -0.97744,-0.98185 -1.840356,-2.40622 -2.54093,-4.07417 H 77.41018 a 0.35352,0.35352 0 1 0 0,-0.70693 H 34.880478 c -0.788213,-2.08679 -1.331403,-4.47667 -1.660881,-6.79287 H 77.41018 a 0.35352,0.35352 0 1 0 0,-0.70693 H 33.125546 c -0.204582,-1.64165 -0.30267,-3.22431 -0.304374,-4.60902 a 1.4112522,1.4112522 0 0 0 -5.29e-4,-0.0377 c 0,-2.96251 1.077065,-6.9935 2.819982,-10.5916 1.742916,-3.5981 4.178216,-6.76505 6.511748,-8.20725 3.623502,-2.23944 8.35062,-3.00715 12.800768,-1.69705 a 1.4112522,1.4112522 0 1 0 0.796851,-2.70733 c -1.312489,-0.38638 -2.641107,-0.61994 -3.964616,-0.71262 -0.496316,-0.0348 -0.991799,-0.0495 -1.48518,-0.045 z m 32.488973,4.38268 a 0.35281306,0.35281306 0 0 0 -0.240295,0.11317 c -2.126845,2.23215 -7.08153,3.88875 -9.341548,4.36356 -1.755878,0.36891 -5.562174,0.32098 -7.773686,-0.20516 a 0.35340237,0.35340237 0 1 0 -0.163814,0.6873 c 2.371979,0.56432 6.125234,0.61826 8.081676,0.20722 2.369648,-0.49785 7.335928,-2.07609 9.708968,-4.56664 a 0.35281306,0.35281306 0 0 0 -0.271301,-0.59945 z m -32.394405,1.53841 c -0.790712,-0.002 -1.42219,0.0344 -1.838131,0.0791 -2.653662,0.2835 -5.298584,1.1041 -7.279142,2.93316 -1.963756,1.81353 -4.874461,6.363 -5.195548,10.21901 a 0.35281306,0.35281306 0 1 0 0.703316,0.0563 c 0.294608,-3.53801 3.194664,-8.11732 4.970756,-9.75754 1.827051,-1.68728 4.315254,-2.4747 6.875032,-2.74816 1.015651,-0.10851 3.627603,-0.17596 6.655925,0.39481 a 0.35290612,0.35290612 0 1 0 0.131258,-0.6935 c -1.554936,-0.29307 -2.993871,-0.42425 -4.181657,-0.46664 -0.296944,-0.0106 -0.578236,-0.0158 -0.841809,-0.0165 z"
       id="path1516-9"
       inkscape:connector-curvature="0"
       inkscape:label="Singleton" />
  </g>
  <g
     inkscape:groupmode="layer"
     id="layer1"
     inkscape:label="Text"
     transform="translate(46.288194,18.188194)">
    <text
       xml:space="preserve"
       style="font-style:normal;font-variant:normal;font-weight:300;font-stretch:normal;font-size:95.91062927px;line-height:1;font-family:Montserrat;-inkscape-font-specification:'Montserrat Light';letter-spacing:0px;word-spacing:0px;fill:url(#linearGradient864);fill-opacity:1;stroke:none;stroke-width:0.17638889;stroke-miterlimit:4;stroke-dasharray:none;stroke-opacity:1;"
       x="104.21326"
       y="101.79536"
       id="text852"><tspan
         sodipodi:role="line"
         x="104.21326"
         y="101.79536"
         style="font-style:normal;font-variant:normal;font-weight:300;font-stretch:normal;line-height:1;font-family:Montserrat;-inkscape-font-specification:'Montserrat Light';fill:url(#linearGradient864);fill-opacity:1;stroke:none;stroke-width:0.17638889;stroke-miterlimit:4;stroke-dasharray:none;stroke-opacity:1;"
         id="tspan854">ИХБФМ</tspan><tspan
         sodipodi:role="line"
         x="104.21326"
         y="197.70599"
         style="font-style:normal;font-variant:normal;font-weight:300;font-stretch:normal;line-height:1;font-family:Montserrat;-inkscape-font-specification:'Montserrat Light';fill:url(#linearGradient864);fill-opacity:1;stroke:none;stroke-width:0.17638889;stroke-miterlimit:4;stroke-dasharray:none;stroke-opacity:1;"
         id="tspan860">СО РАН</tspan></text>
  </g>
</svg>
