<?xml version="1.0" encoding="UTF-8" standalone="no"?>
<!-- Created with Inkscape (http://www.inkscape.org/) -->

<svg
   xmlns:dc="http://purl.org/dc/elements/1.1/"
   xmlns:cc="http://creativecommons.org/ns#"
   xmlns:rdf="http://www.w3.org/1999/02/22-rdf-syntax-ns#"
   xmlns:svg="http://www.w3.org/2000/svg"
   xmlns="http://www.w3.org/2000/svg"
   xmlns:sodipodi="http://sodipodi.sourceforge.net/DTD/sodipodi-0.dtd"
   xmlns:inkscape="http://www.inkscape.org/namespaces/inkscape"
   width="22.529919in"
   height="10.376274in"
   viewBox="0 0 572.25992 263.55736"
   version="1.1"
   id="svg846"
   inkscape:version="0.92.2 5c3e80d, 2017-08-06"
   sodipodi:docname="simple_russian_ds.svg"
   inkscape:export-filename="/home/danila/Documents/Identity/hipsters.png"
   inkscape:export-xdpi="96"
   inkscape:export-ydpi="96">
  <defs
     id="defs840">
    <inkscape:path-effect
       simplifyJustCoalesce="false"
       simplifyindividualpaths="false"
       simplify_just_coalesce="false"
       simplify_individual_paths="false"
       helper_size="0"
       smooth_angles="360"
       threshold="0.00741464"
       steps="1"
       is_visible="true"
       id="path-effect4542"
       effect="simplify" />
    <inkscape:path-effect
       simplifyJustCoalesce="false"
       simplifyindividualpaths="false"
       simplify_just_coalesce="false"
       simplify_individual_paths="false"
       helper_size="0"
       smooth_angles="360"
       threshold="0.00741464"
       steps="1"
       is_visible="true"
       id="path-effect4538"
       effect="simplify" />
    <inkscape:path-effect
       is_visible="true"
       id="path-effect4534"
       effect="spiro" />
    <inkscape:perspective
       id="perspective10"
       inkscape:persp3d-origin="396.85041 : 374.17322 : 1"
       inkscape:vp_z="793.70081 : 561.25983 : 1"
       inkscape:vp_y="0 : 1066.6667 : 0"
       inkscape:vp_x="0 : 561.25982 : 1"
       sodipodi:type="inkscape:persp3d" />
    <inkscape:perspective
       sodipodi:type="inkscape:persp3d"
       inkscape:vp_x="0 : 561.25982 : 1"
       inkscape:vp_y="0 : 1066.6667 : 0"
       inkscape:vp_z="793.70081 : 561.25983 : 1"
       inkscape:persp3d-origin="396.85041 : 374.17322 : 1"
       id="perspective2390" />
  </defs>
  <sodipodi:namedview
     id="base"
     pagecolor="#ffffff"
     bordercolor="#666666"
     borderopacity="1.0"
     inkscape:pageopacity="1"
     inkscape:pageshadow="2"
     inkscape:zoom="0.24748738"
     inkscape:cx="-167.46667"
     inkscape:cy="466.83061"
     inkscape:document-units="mm"
     inkscape:current-layer="layer1"
     showgrid="false"
     inkscape:snap-nodes="true"
     inkscape:snap-page="true"
     inkscape:snap-bbox="true"
     inkscape:object-nodes="true"
     showguides="false"
     inkscape:guide-bbox="true"
     inkscape:window-width="1920"
     inkscape:window-height="1024"
     inkscape:window-x="0"
     inkscape:window-y="30"
     inkscape:window-maximized="1"
     inkscape:object-paths="true"
     inkscape:snap-intersection-paths="true"
     inkscape:snap-smooth-nodes="true"
     inkscape:snap-midpoints="true"
     inkscape:snap-global="true"
     fit-margin-top="1.5"
     fit-margin-bottom="1.5"
     fit-margin-left="3"
     fit-margin-right="3"
     inkscape:snap-to-guides="true"
     units="in">
    <sodipodi:guide
       position="96.650745,199.59987"
       orientation="0,1"
       id="guide1425"
       inkscape:locked="false"
       inkscape:label=""
       inkscape:color="rgb(0,0,255)" />
    <sodipodi:guide
       position="115.89415,169.59987"
       orientation="0,1"
       id="guide1427"
       inkscape:locked="false"
       inkscape:label=""
       inkscape:color="rgb(0,0,255)" />
    <sodipodi:guide
       position="109.47969,139.59987"
       orientation="0,1"
       id="guide1429"
       inkscape:locked="false"
       inkscape:label=""
       inkscape:color="rgb(0,0,255)" />
    <sodipodi:guide
       position="100.92705,99.599864"
       orientation="0,1"
       id="guide1431"
       inkscape:locked="false"
       inkscape:label=""
       inkscape:color="rgb(0,0,255)" />
    <sodipodi:guide
       position="122.84316,69.599866"
       orientation="0,1"
       id="guide1433"
       inkscape:locked="false"
       inkscape:label=""
       inkscape:color="rgb(0,0,255)" />
    <sodipodi:guide
       position="112.68692,39.599864"
       orientation="0,1"
       id="guide1435"
       inkscape:locked="false"
       inkscape:label=""
       inkscape:color="rgb(0,0,255)" />
    <sodipodi:guide
       position="77.698471,113.1442"
       orientation="1,0"
       id="guide1437"
       inkscape:locked="false"
       inkscape:label=""
       inkscape:color="rgb(0,0,255)" />
    <sodipodi:guide
       position="133.69847,111.54058"
       orientation="1,0"
       id="guide1439"
       inkscape:locked="false"
       inkscape:label=""
       inkscape:color="rgb(0,0,255)" />
    <sodipodi:guide
       position="87.698471,82.675474"
       orientation="1,0"
       id="guide1441"
       inkscape:locked="false"
       inkscape:label=""
       inkscape:color="rgb(0,0,255)" />
    <sodipodi:guide
       position="123.69847,80.002779"
       orientation="1,0"
       id="guide1443"
       inkscape:locked="false"
       inkscape:label=""
       inkscape:color="rgb(0,0,255)" />
    <sodipodi:guide
       position="106.19847,236.08819"
       orientation="1,0"
       id="guide1445"
       inkscape:locked="false"
       inkscape:label=""
       inkscape:color="rgb(0,0,255)" />
    <sodipodi:guide
       position="189.66055,184.59987"
       orientation="0,1"
       id="guide1447"
       inkscape:locked="false"
       inkscape:label=""
       inkscape:color="rgb(0,0,255)" />
    <sodipodi:guide
       position="250.06346,154.59987"
       orientation="0,1"
       id="guide1449"
       inkscape:locked="false"
       inkscape:label=""
       inkscape:color="rgb(0,0,255)" />
    <sodipodi:guide
       position="241.51084,119.59986"
       orientation="0,1"
       id="guide1451"
       inkscape:locked="false"
       inkscape:label=""
       inkscape:color="rgb(0,0,255)" />
    <sodipodi:guide
       position="237.23451,84.599865"
       orientation="0,1"
       id="guide1453"
       inkscape:locked="false"
       inkscape:label=""
       inkscape:color="rgb(0,0,255)" />
    <sodipodi:guide
       position="260.75424,54.599865"
       orientation="0,1"
       id="guide1455"
       inkscape:locked="false"
       inkscape:label=""
       inkscape:color="rgb(0,0,255)" />
    <sodipodi:guide
       position="100.65382,92.099865"
       orientation="0,1"
       id="guide1467"
       inkscape:locked="false"
       inkscape:label=""
       inkscape:color="rgb(0,0,255)" />
    <sodipodi:guide
       position="106.19847,77.099867"
       orientation="0,1"
       id="guide1469"
       inkscape:locked="false"
       inkscape:label=""
       inkscape:color="rgb(0,0,255)" />
    <sodipodi:guide
       position="113.883,107.09986"
       orientation="0,1"
       id="guide1471"
       inkscape:locked="false"
       inkscape:label=""
       inkscape:color="rgb(0,0,255)" />
    <sodipodi:guide
       position="118.41871,114.59986"
       orientation="0,1"
       id="guide1492"
       inkscape:locked="false"
       inkscape:label=""
       inkscape:color="rgb(0,0,255)" />
    <sodipodi:guide
       position="110.94967,62.099866"
       orientation="0,1"
       id="guide1508"
       inkscape:locked="false"
       inkscape:label=""
       inkscape:color="rgb(0,0,255)" />
    <sodipodi:guide
       position="129.79217,47.099865"
       orientation="0,1"
       id="guide1510"
       inkscape:locked="false"
       inkscape:label=""
       inkscape:color="rgb(0,0,255)" />
    <sodipodi:guide
       position="123.69847,124.59987"
       orientation="0,1"
       id="guide1518"
       inkscape:locked="false"
       inkscape:label=""
       inkscape:color="rgb(0,0,255)" />
    <sodipodi:guide
       position="101.64003,197.31133"
       orientation="1,0"
       id="guide1567"
       inkscape:locked="false"
       inkscape:label=""
       inkscape:color="rgb(0,0,255)" />
    <sodipodi:guide
       position="111.64004,202.74771"
       orientation="1,0"
       id="guide1569"
       inkscape:locked="false"
       inkscape:label=""
       inkscape:color="rgb(0,0,255)" />
    <sodipodi:guide
       position="129.22632,147.63261"
       orientation="1,0"
       id="guide1577"
       inkscape:locked="false" />
    <sodipodi:guide
       position="287.58202,226.64456"
       orientation="0,1"
       id="guide856"
       inkscape:locked="false" />
  </sodipodi:namedview>
  <metadata
     id="metadata843">
    <rdf:RDF>
      <cc:Work
         rdf:about="">
        <dc:format>image/svg+xml</dc:format>
        <dc:type
           rdf:resource="http://purl.org/dc/dcmitype/StillImage" />
        <dc:title />
      </cc:Work>
    </rdf:RDF>
  </metadata>
  <g
     inkscape:groupmode="layer"
     id="layer2"
     inkscape:label="Logo"
     transform="translate(46.64003,27.649303)"
     style="display:inline"
     sodipodi:insensitive="true">
    <path
       style="color:#000000;font-style:normal;font-variant:normal;font-weight:normal;font-stretch:normal;font-size:medium;line-height:normal;font-family:sans-serif;font-variant-ligatures:normal;font-variant-position:normal;font-variant-caps:normal;font-variant-numeric:normal;font-variant-alternates:normal;font-feature-settings:normal;text-indent:0;text-align:start;text-decoration:none;text-decoration-line:none;text-decoration-style:solid;text-decoration-color:#000000;letter-spacing:normal;word-spacing:normal;text-transform:none;writing-mode:lr-tb;direction:ltr;text-orientation:mixed;dominant-baseline:auto;baseline-shift:baseline;text-anchor:start;white-space:normal;shape-padding:0;clip-rule:nonzero;display:inline;overflow:visible;visibility:visible;opacity:1;isolation:auto;mix-blend-mode:normal;color-interpolation:sRGB;color-interpolation-filters:linearRGB;solid-color:#000000;solid-opacity:1;vector-effect:none;fill:#ff6600;fill-opacity:1;fill-rule:nonzero;stroke:none;stroke-width:0.70555556;stroke-linecap:round;stroke-linejoin:miter;stroke-miterlimit:4;stroke-dasharray:none;stroke-dashoffset:0;stroke-opacity:1;color-rendering:auto;image-rendering:auto;shape-rendering:auto;text-rendering:auto;enable-background:accumulate"
       d="m 59.558638,10.538892 c -3.232523,0 -5.882847,2.649804 -5.882847,5.882328 0,2.746754 1.914226,5.073687 4.472596,5.711277 v 39.392431 c -0.07361,1.952549 2.894106,1.952549 2.820501,0 V 22.132497 c 2.55837,-0.63759 4.472596,-2.964523 4.472596,-5.711277 0,-3.232524 -2.650323,-5.882328 -5.882846,-5.882328 z m 0,2.822049 c 1.707282,0 3.060279,1.352997 3.060279,3.060279 0,1.647553 -1.261076,2.963757 -2.883546,3.054077 -0.06576,-0.009 -0.132069,-0.0133 -0.198437,-0.0129 -0.05395,0.001 -0.107778,0.006 -0.161232,0.0129 -1.619491,-0.0933 -2.877859,-1.408614 -2.877859,-3.054077 0,-1.707282 1.353513,-3.060279 3.060795,-3.060279 z m 27.500135,17.064587 c -2.24373,0 -4.20599,1.277179 -5.1971,3.139349 -4.06185,-0.76876 -9.96084,-1.56097 -16.808798,-1.81539 -0.04682,-0.002 -0.09373,-0.002 -0.140558,0 -1.81801,0.0832 -1.784379,2.7826 0.03514,2.8205 6.595686,0.24506 12.317546,1.00664 16.228466,1.73736 v 10e-4 c 0,3.232519 2.65032,5.882839 5.88285,5.882839 3.23252,0 5.88284,-2.65032 5.88284,-5.882839 0,-3.23253 -2.65032,-5.88285 -5.88284,-5.88285 z m -32.021822,1.496039 c -0.03259,2e-4 -0.06517,0.002 -0.09767,0.004 -5.592096,0.24261 -10.27122,0.9404 -14.525212,3.12693 -0.0073,0.004 -0.0145,0.008 -0.0217,0.0114 -5.740999,3.072488 -10.744047,9.499238 -10.744047,16.244489 0,6.74525 5.003045,13.17148 10.744049,16.243969 5.877057,3.145301 12.618024,1.548392 18.973001,0.132811 6.354977,-1.415569 12.324351,-2.6498 17.027381,-0.132811 4.85541,2.598532 9.25577,8.482502 9.25577,13.755751 0,5.273252 -4.40036,11.15722 -9.25577,13.755751 -3.32058,1.777119 -7.42324,1.850041 -11.171924,1.25625 -1.891705,-0.341209 -2.345891,2.526964 -0.441317,2.786904 4.087161,0.64742 8.817131,0.65421 12.944941,-1.554935 5.74101,-3.07249 10.74457,-9.498719 10.74457,-16.24397 0,-6.74525 -5.00356,-13.171479 -10.74457,-16.243969 -5.87705,-3.145301 -12.617503,-1.548389 -18.97248,-0.13281 -6.354978,1.415571 -12.324348,2.649799 -17.027385,0.13281 -4.855409,-2.598531 -9.255767,-8.482499 -9.255767,-13.755751 0,-5.268929 4.393199,-11.14674 9.243881,-13.74852 3.720934,-1.91009 7.928012,-2.5812 13.348023,-2.81636 1.857966,-0.0387 1.834592,-2.81463 -0.02376,-2.82205 z m 32.021822,1.32602 c 1.70728,0 3.06027,1.35351 3.06027,3.06079 0,1.70728 -1.35299,3.060279 -3.06027,3.060279 -1.70729,0 -3.0608,-1.352999 -3.0608,-3.060279 0,-1.70728 1.35351,-3.06079 3.0608,-3.06079 z m -22.142839,3.24218 c -0.457993,0.0121 -0.457993,0.69328 0,0.70538 8.058569,0.395081 13.978479,1.323951 13.978479,1.323951 0.47203,0.0831 0.58434,-0.631471 0.10955,-0.697122 0,0 -5.9571,-0.935309 -14.052889,-1.332209 -0.01172,-5.82e-4 -0.02342,-5.82e-4 -0.03514,0 z m -9.848495,0.26716 c -0.0048,8e-5 -0.0097,2.5e-4 -0.01447,5.29e-4 -4.115591,0.17318 -6.54558,0.320851 -9.687779,1.343592 -5.493629,1.788099 -10.986945,7.24272 -11.193116,13.195578 -0.03189,0.485032 0.704793,0.509281 0.704865,0.0232 0.191414,-5.526709 5.48738,-10.848171 10.706842,-12.547031 3.060181,-0.99604 5.387649,-1.13756 9.498128,-1.310518 0.46014,-0.01921 0.446072,-0.705022 -0.01447,-0.705382 z m -20.233391,29.10417 c -0.298517,0.009 -0.451275,0.362022 -0.253731,0.58601 3.070392,3.555701 6.240627,4.908262 10.230385,5.550562 4.507397,0.725649 9.023133,-0.431501 13.485998,-1.535301 4.462864,-1.10381 8.870813,-2.1546 13.164053,-1.339971 2.78905,0.529222 5.60957,1.88161 7.52771,3.935671 2.10752,2.25687 3.67435,4.638249 3.67781,8.34575 -0.0229,0.49226 0.72775,0.49226 0.70486,0 -0.004,-3.90919 -1.70796,-6.51382 -3.86746,-8.826331 -2.04712,-2.1922 -4.99275,-3.594208 -7.91166,-4.148069 -4.48825,-0.85163 -8.999118,0.243219 -13.464813,1.347719 -4.465693,1.104501 -8.888246,2.218431 -13.205394,1.523421 -3.897252,-0.62742 -6.835619,-1.87138 -9.808706,-5.3144 -0.06918,-0.0819 -0.171863,-0.127939 -0.279052,-0.125061 z m 24.702886,6.36137 c -0.778457,0.01241 -1.399783,0.652959 -1.388547,1.43144 v 37.654033 c -0.07361,1.95254 2.894106,1.95254 2.820501,0 V 73.653907 c 0.01148,-0.795469 -0.636492,-1.443191 -1.431954,-1.43144 z m -9.588563,20.124872 c -3.453667,0.0317 -6.805256,1.01251 -9.631969,2.759519 -5.682854,3.512194 -10.668084,9.306892 -10.668084,21.201292 0,4.66526 -0.138054,11.77332 4.408516,16.63309 2.710346,2.89706 7.041788,4.77697 13.486001,4.77697 h 24.170098 c 5.35472,0 8.54438,1.14912 10.4805,2.70112 3.36984,2.70129 3.45508,7.0837 3.45508,10.88874 0,3.84639 -0.12646,8.30015 -3.66024,11.00398 -1.47442,1.14576 0.22256,3.36493 1.71463,2.24224 4.6871,-3.58627 4.76612,-9.34961 4.76612,-13.24622 0,-3.82798 -0.009,-9.48352 -4.50981,-13.09171 -2.58612,-2.07304 -6.48628,-3.31813 -12.24628,-3.31813 H 47.542835 c -5.911199,0 -9.306198,-1.61958 -11.425661,-3.88505 -3.547031,-3.79136 -3.647901,-10.00035 -3.648356,-14.67093 1.37e-4,-0.0114 1.37e-4,-0.0227 0,-0.0341 0,-11.14954 4.138155,-15.58905 9.33173,-18.798852 3.623532,-2.23947 8.350589,-3.007172 12.800769,-1.697061 1.805202,0.532159 2.602569,-2.175169 0.797367,-2.707331 -1.312479,-0.386389 -2.641632,-0.619929 -3.96513,-0.712618 -0.496314,-0.0348 -0.991802,-0.0495 -1.485183,-0.045 z m 32.488972,4.911839 c -0.0918,0.005 -0.178,0.0456 -0.24029,0.113181 -2.12684,2.232153 -7.08153,3.888731 -9.34155,4.363551 -1.75588,0.36889 -5.56218,0.32099 -7.773688,-0.20515 -0.448958,-0.0944 -0.607089,0.56904 -0.163814,0.68729 2.371982,0.56432 6.125752,0.61827 8.082192,0.20723 2.36965,-0.49785 7.33593,-2.0761 9.70897,-4.566652 0.226,-0.230129 0.0502,-0.617831 -0.27182,-0.59945 z m -32.394402,1.00924 c -0.790716,-0.0021 -1.421675,0.0344 -1.837616,0.0791 -2.65366,0.283504 -5.299099,1.104094 -7.279659,2.933152 -1.963753,1.81353 -4.873942,6.36301 -5.19503,10.21902 -0.05878,0.48626 0.683421,0.54571 0.7028,0.0563 0.294608,-3.538 3.194663,-8.11731 4.970756,-9.75754 1.827051,-1.68728 4.315256,-2.474688 6.875031,-2.748148 1.015653,-0.10851 3.62812,-0.17597 6.65644,0.3948 0.463961,0.0896 0.595463,-0.60797 0.130741,-0.69349 -1.554935,-0.293074 -2.993871,-0.424263 -4.181654,-0.466644 -0.296948,-0.01061 -0.578239,-0.0158 -0.841809,-0.01651 z m 36.994122,16.608292 c -0.77846,0.0124 -1.39978,0.65296 -1.38855,1.43144 0,4.69761 -0.0945,10.96383 -3.70313,14.76189 -1.33032,1.3654 0.75258,3.34259 2.04691,1.94302 4.61573,-4.85808 4.47673,-12.01638 4.47673,-16.70491 0.0115,-0.79547 -0.6365,-1.44319 -1.43196,-1.43144 z m -45.978589,6.07818 c -0.479287,-0.008 -0.479287,0.71499 0,0.70694 h 36.000389 c 0.47929,0.008 0.47929,-0.715 0,-0.70694 z m 0,7.4998 c -0.479287,-0.008 -0.479287,0.71499 0,0.70694 h 36.000389 c 0.47929,0.008 0.47929,-0.715 0,-0.70694 z m -6.239928,9.58598 c -0.31813,0.0132 -0.62245,0.13357 -0.863514,0.34157 -4.308659,3.62283 -4.306714,9.15593 -4.306714,12.92583 0,3.78955 0.05921,9.32877 4.390947,12.94546 2.581834,2.15566 6.518236,3.46491 12.365136,3.46491 h 24.169582 c 8.02793,0 11.55288,2.09004 13.29118,4.63279 1.73831,2.54274 1.78335,5.94597 1.78335,8.95707 0,1.91727 -0.007,4.01573 -0.4749,5.92367 -0.46833,1.90794 -1.33745,3.59581 -3.17345,4.95732 -1.57188,1.11034 0.15915,3.44749 1.67948,2.26756 2.41616,-1.79172 3.65644,-4.19862 4.23437,-6.55308 0.57793,-2.35445 0.55501,-4.68646 0.55501,-6.59547 0,-2.99815 0.0861,-7.09583 -2.27583,-10.55077 -2.36192,-3.45494 -7.08073,-5.85959 -15.61921,-5.85959 H 46.404401 c -5.428445,0 -8.625408,-1.19797 -10.556978,-2.81069 -3.240733,-2.70578 -3.378605,-7.03847 -3.378605,-10.77918 0,-3.74732 0.09036,-8.06479 3.302641,-10.76575 1.048244,-0.85889 0.401098,-2.55781 -0.952913,-2.50165 z m 6.239928,5.41413 c -0.463046,0.008 -0.463046,0.69876 0,0.70693 h 36.000389 c 0.46304,-0.008 0.46304,-0.69876 0,-0.70693 z m 0,7.4998 c -0.479287,-0.008 -0.479287,0.715 0,0.70694 h 36.000389 c 0.47929,0.008 0.47929,-0.715 0,-0.70694 z m 0,7.4998 c -0.470907,8e-4 -0.470907,0.70672 0,0.70745 h 36.000389 c 0.47091,-7.9e-4 0.47091,-0.70672 0,-0.70745 z m -6.038906,10.82466 c -0.367135,-0.003 -0.721009,0.13709 -0.986504,0.39068 -2.75654,2.55716 -4.369205,6.39831 -4.384746,11.63443 -2e-6,0.001 -2e-6,0.003 0,0.004 0,3.76424 -0.0542,9.39625 4.586285,12.9961 2.751634,2.13458 6.951535,3.41426 13.308232,3.41426 h 24.085868 c 1.95257,0.0736 1.95257,-2.89413 0,-2.8205 H 47.542835 c -5.976604,0 -9.498172,-1.2106 -11.578106,-2.82411 -3.50652,-2.72017 -3.495919,-6.98258 -3.495911,-10.76214 v -0.002 -0.002 c 0.01469,-4.68108 1.33544,-7.57683 3.484542,-9.57048 0.954985,-0.86209 0.352704,-2.44795 -0.933792,-2.45876 z m 6.038906,4.17546 c -0.479674,-0.008 -0.479674,0.7154 0,0.70693 h 36.000389 c 0.47967,0.008 0.47967,-0.71539 0,-0.70693 z m 0,7.50033 c -0.463046,0.008 -0.463046,0.69875 0,0.70692 h 36.000389 c 0.46304,-0.008 0.46304,-0.69876 0,-0.70692 z m 0,7.49979 c -0.479674,-0.008 -0.479674,0.71539 0,0.70693 h 36.000389 c 0.47967,0.008 0.47967,-0.71539 0,-0.70693 z"
       id="path1498"
       inkscape:connector-curvature="0"
       sodipodi:nodetypes="ssccccsssscccssccccccsssccccccssccssccsssccsccccsssssccccccccsccccccccccccccccscccccccccccscsscsccsssssccscccccccscccccccccccccccccccccccccccccccccccscsscscccsscsssscccccccccccccccccccccssccscccccccccccccccccaccca"
       sodipodi:insensitive="true" />
  </g>
  <g
     inkscape:groupmode="layer"
     id="layer1"
     inkscape:label="Text"
     transform="translate(46.288194,18.188194)"
     style="display:inline"
     sodipodi:insensitive="true">
    <text
       xml:space="preserve"
       style="font-style:normal;font-variant:normal;font-weight:300;font-stretch:normal;font-size:95.91062927px;line-height:1;font-family:Montserrat;-inkscape-font-specification:'Montserrat Light';letter-spacing:0px;word-spacing:0px;fill:#000000;fill-opacity:1;stroke:none;stroke-width:0.17638889;stroke-miterlimit:4;stroke-dasharray:none;stroke-opacity:1"
       x="104.21326"
       y="101.79536"
       id="text852"
       sodipodi:insensitive="true"><tspan
         sodipodi:role="line"
         x="104.21326"
         y="101.79536"
         style="font-style:normal;font-variant:normal;font-weight:300;font-stretch:normal;line-height:1;font-family:Montserrat;-inkscape-font-specification:'Montserrat Light';fill:#000000;fill-opacity:1;stroke:none;stroke-width:0.17638889;stroke-miterlimit:4;stroke-dasharray:none;stroke-opacity:1"
         id="tspan854">ИХБФМ</tspan><tspan
         sodipodi:role="line"
         x="104.21326"
         y="197.70599"
         style="font-style:normal;font-variant:normal;font-weight:300;font-stretch:normal;line-height:1;font-family:Montserrat;-inkscape-font-specification:'Montserrat Light';fill:#000000;fill-opacity:1;stroke:none;stroke-width:0.17638889;stroke-miterlimit:4;stroke-dasharray:none;stroke-opacity:1"
         id="tspan862">СО РАН</tspan></text>
  </g>
</svg>
