<?xml version="1.0" encoding="UTF-8" standalone="no"?>
<!-- Created with Inkscape (http://www.inkscape.org/) -->

<svg
   xmlns:dc="http://purl.org/dc/elements/1.1/"
   xmlns:cc="http://creativecommons.org/ns#"
   xmlns:rdf="http://www.w3.org/1999/02/22-rdf-syntax-ns#"
   xmlns:svg="http://www.w3.org/2000/svg"
   xmlns="http://www.w3.org/2000/svg"
   xmlns:xlink="http://www.w3.org/1999/xlink"
   xmlns:sodipodi="http://sodipodi.sourceforge.net/DTD/sodipodi-0.dtd"
   xmlns:inkscape="http://www.inkscape.org/namespaces/inkscape"
   width="22.529919in"
   height="10.376274in"
   viewBox="0 0 572.25992 263.55736"
   version="1.1"
   id="svg846"
   inkscape:version="0.92.2 5c3e80d, 2017-08-06"
   sodipodi:docname="simple_english_ds.svg"
   inkscape:export-filename="/home/danila/Documents/Identity/hipsters.png"
   inkscape:export-xdpi="96"
   inkscape:export-ydpi="96">
  <defs
     id="defs840">
    <linearGradient
       inkscape:collect="always"
       id="linearGradient1065">
      <stop
         style="stop-color:#af82d0;stop-opacity:1"
         offset="0"
         id="stop1061" />
      <stop
         id="stop1069"
         offset="0.47082123"
         style="stop-color:#2796c9;stop-opacity:1" />
      <stop
         style="stop-color:#2cad69;stop-opacity:1"
         offset="1"
         id="stop1063" />
    </linearGradient>
    <inkscape:path-effect
       simplifyJustCoalesce="false"
       simplifyindividualpaths="false"
       simplify_just_coalesce="false"
       simplify_individual_paths="false"
       helper_size="0"
       smooth_angles="360"
       threshold="0.00741464"
       steps="1"
       is_visible="true"
       id="path-effect4542"
       effect="simplify" />
    <inkscape:path-effect
       simplifyJustCoalesce="false"
       simplifyindividualpaths="false"
       simplify_just_coalesce="false"
       simplify_individual_paths="false"
       helper_size="0"
       smooth_angles="360"
       threshold="0.00741464"
       steps="1"
       is_visible="true"
       id="path-effect4538"
       effect="simplify" />
    <inkscape:path-effect
       is_visible="true"
       id="path-effect4534"
       effect="spiro" />
    <inkscape:perspective
       id="perspective10"
       inkscape:persp3d-origin="396.85041 : 374.17322 : 1"
       inkscape:vp_z="793.70081 : 561.25983 : 1"
       inkscape:vp_y="0 : 1066.6667 : 0"
       inkscape:vp_x="0 : 561.25982 : 1"
       sodipodi:type="inkscape:persp3d" />
    <inkscape:perspective
       sodipodi:type="inkscape:persp3d"
       inkscape:vp_x="0 : 561.25982 : 1"
       inkscape:vp_y="0 : 1066.6667 : 0"
       inkscape:vp_z="793.70081 : 561.25983 : 1"
       inkscape:persp3d-origin="396.85041 : 374.17322 : 1"
       id="perspective2390" />
    <linearGradient
       inkscape:collect="always"
       xlink:href="#linearGradient1065"
       id="linearGradient864"
       x1="257.70654"
       y1="205.7693"
       x2="257.70654"
       y2="18.724611"
       gradientUnits="userSpaceOnUse" />
    <linearGradient
       gradientTransform="translate(46.542293,27.653053)"
       inkscape:collect="always"
       xlink:href="#linearGradient1065"
       id="linearGradient966-3"
       x1="233.02551"
       y1="197.72871"
       x2="233.02551"
       y2="10.455561"
       gradientUnits="userSpaceOnUse" />
  </defs>
  <sodipodi:namedview
     id="base"
     pagecolor="#ffffff"
     bordercolor="#666666"
     borderopacity="1.0"
     inkscape:pageopacity="1"
     inkscape:pageshadow="2"
     inkscape:zoom="0.49497476"
     inkscape:cx="884.9826"
     inkscape:cy="550.26182"
     inkscape:document-units="mm"
     inkscape:current-layer="layer3"
     showgrid="false"
     inkscape:snap-nodes="true"
     inkscape:snap-page="true"
     inkscape:snap-bbox="true"
     inkscape:object-nodes="true"
     showguides="false"
     inkscape:guide-bbox="true"
     inkscape:window-width="1920"
     inkscape:window-height="1024"
     inkscape:window-x="0"
     inkscape:window-y="30"
     inkscape:window-maximized="1"
     inkscape:object-paths="true"
     inkscape:snap-intersection-paths="true"
     inkscape:snap-smooth-nodes="true"
     inkscape:snap-midpoints="true"
     inkscape:snap-global="true"
     fit-margin-top="1.5"
     fit-margin-bottom="1.5"
     fit-margin-left="3"
     fit-margin-right="3"
     inkscape:snap-to-guides="true"
     units="in">
    <sodipodi:guide
       position="96.650745,199.59987"
       orientation="0,1"
       id="guide1425"
       inkscape:locked="false"
       inkscape:label=""
       inkscape:color="rgb(0,0,255)" />
    <sodipodi:guide
       position="115.89415,169.59987"
       orientation="0,1"
       id="guide1427"
       inkscape:locked="false"
       inkscape:label=""
       inkscape:color="rgb(0,0,255)" />
    <sodipodi:guide
       position="109.47969,139.59987"
       orientation="0,1"
       id="guide1429"
       inkscape:locked="false"
       inkscape:label=""
       inkscape:color="rgb(0,0,255)" />
    <sodipodi:guide
       position="100.92705,99.599864"
       orientation="0,1"
       id="guide1431"
       inkscape:locked="false"
       inkscape:label=""
       inkscape:color="rgb(0,0,255)" />
    <sodipodi:guide
       position="122.84316,69.599866"
       orientation="0,1"
       id="guide1433"
       inkscape:locked="false"
       inkscape:label=""
       inkscape:color="rgb(0,0,255)" />
    <sodipodi:guide
       position="112.68692,39.599864"
       orientation="0,1"
       id="guide1435"
       inkscape:locked="false"
       inkscape:label=""
       inkscape:color="rgb(0,0,255)" />
    <sodipodi:guide
       position="77.698471,113.1442"
       orientation="1,0"
       id="guide1437"
       inkscape:locked="false"
       inkscape:label=""
       inkscape:color="rgb(0,0,255)" />
    <sodipodi:guide
       position="133.69847,111.54058"
       orientation="1,0"
       id="guide1439"
       inkscape:locked="false"
       inkscape:label=""
       inkscape:color="rgb(0,0,255)" />
    <sodipodi:guide
       position="87.698471,82.675474"
       orientation="1,0"
       id="guide1441"
       inkscape:locked="false"
       inkscape:label=""
       inkscape:color="rgb(0,0,255)" />
    <sodipodi:guide
       position="123.69847,80.002779"
       orientation="1,0"
       id="guide1443"
       inkscape:locked="false"
       inkscape:label=""
       inkscape:color="rgb(0,0,255)" />
    <sodipodi:guide
       position="106.19847,236.08819"
       orientation="1,0"
       id="guide1445"
       inkscape:locked="false"
       inkscape:label=""
       inkscape:color="rgb(0,0,255)" />
    <sodipodi:guide
       position="189.66055,184.59987"
       orientation="0,1"
       id="guide1447"
       inkscape:locked="false"
       inkscape:label=""
       inkscape:color="rgb(0,0,255)" />
    <sodipodi:guide
       position="250.06346,154.59987"
       orientation="0,1"
       id="guide1449"
       inkscape:locked="false"
       inkscape:label=""
       inkscape:color="rgb(0,0,255)" />
    <sodipodi:guide
       position="241.51084,119.59986"
       orientation="0,1"
       id="guide1451"
       inkscape:locked="false"
       inkscape:label=""
       inkscape:color="rgb(0,0,255)" />
    <sodipodi:guide
       position="237.23451,84.599865"
       orientation="0,1"
       id="guide1453"
       inkscape:locked="false"
       inkscape:label=""
       inkscape:color="rgb(0,0,255)" />
    <sodipodi:guide
       position="260.75424,54.599865"
       orientation="0,1"
       id="guide1455"
       inkscape:locked="false"
       inkscape:label=""
       inkscape:color="rgb(0,0,255)" />
    <sodipodi:guide
       position="100.65382,92.099865"
       orientation="0,1"
       id="guide1467"
       inkscape:locked="false"
       inkscape:label=""
       inkscape:color="rgb(0,0,255)" />
    <sodipodi:guide
       position="106.19847,77.099867"
       orientation="0,1"
       id="guide1469"
       inkscape:locked="false"
       inkscape:label=""
       inkscape:color="rgb(0,0,255)" />
    <sodipodi:guide
       position="113.883,107.09986"
       orientation="0,1"
       id="guide1471"
       inkscape:locked="false"
       inkscape:label=""
       inkscape:color="rgb(0,0,255)" />
    <sodipodi:guide
       position="118.41871,114.59986"
       orientation="0,1"
       id="guide1492"
       inkscape:locked="false"
       inkscape:label=""
       inkscape:color="rgb(0,0,255)" />
    <sodipodi:guide
       position="110.94967,62.099866"
       orientation="0,1"
       id="guide1508"
       inkscape:locked="false"
       inkscape:label=""
       inkscape:color="rgb(0,0,255)" />
    <sodipodi:guide
       position="129.79217,47.099865"
       orientation="0,1"
       id="guide1510"
       inkscape:locked="false"
       inkscape:label=""
       inkscape:color="rgb(0,0,255)" />
    <sodipodi:guide
       position="123.69847,124.59987"
       orientation="0,1"
       id="guide1518"
       inkscape:locked="false"
       inkscape:label=""
       inkscape:color="rgb(0,0,255)" />
    <sodipodi:guide
       position="101.64003,197.31133"
       orientation="1,0"
       id="guide1567"
       inkscape:locked="false"
       inkscape:label=""
       inkscape:color="rgb(0,0,255)" />
    <sodipodi:guide
       position="111.64004,202.74771"
       orientation="1,0"
       id="guide1569"
       inkscape:locked="false"
       inkscape:label=""
       inkscape:color="rgb(0,0,255)" />
    <sodipodi:guide
       position="129.22632,147.63261"
       orientation="1,0"
       id="guide1577"
       inkscape:locked="false" />
    <sodipodi:guide
       position="287.58202,226.64456"
       orientation="0,1"
       id="guide856"
       inkscape:locked="false" />
  </sodipodi:namedview>
  <metadata
     id="metadata843">
    <rdf:RDF>
      <cc:Work
         rdf:about="">
        <dc:format>image/svg+xml</dc:format>
        <dc:type
           rdf:resource="http://purl.org/dc/dcmitype/StillImage" />
        <dc:title></dc:title>
      </cc:Work>
    </rdf:RDF>
  </metadata>
  <g
     inkscape:groupmode="layer"
     id="layer2"
     inkscape:label="Logo"
     transform="translate(46.64003,27.649303)"
     style="display:none"
     sodipodi:insensitive="true">
    <path
       style="color:#000000;font-style:normal;font-variant:normal;font-weight:normal;font-stretch:normal;font-size:medium;line-height:normal;font-family:sans-serif;font-variant-ligatures:normal;font-variant-position:normal;font-variant-caps:normal;font-variant-numeric:normal;font-variant-alternates:normal;font-feature-settings:normal;text-indent:0;text-align:start;text-decoration:none;text-decoration-line:none;text-decoration-style:solid;text-decoration-color:#000000;letter-spacing:normal;word-spacing:normal;text-transform:none;writing-mode:lr-tb;direction:ltr;text-orientation:mixed;dominant-baseline:auto;baseline-shift:baseline;text-anchor:start;white-space:normal;shape-padding:0;clip-rule:nonzero;display:inline;overflow:visible;visibility:visible;opacity:1;isolation:auto;mix-blend-mode:normal;color-interpolation:sRGB;color-interpolation-filters:linearRGB;solid-color:#000000;solid-opacity:1;vector-effect:none;fill:#ff0000;fill-opacity:1;fill-rule:nonzero;stroke:none;stroke-width:0.70555556;stroke-linecap:round;stroke-linejoin:miter;stroke-miterlimit:4;stroke-dasharray:none;stroke-dashoffset:0;stroke-opacity:1;color-rendering:auto;image-rendering:auto;shape-rendering:auto;text-rendering:auto;enable-background:accumulate"
       d="m 59.558638,10.538892 c -3.232523,0 -5.882847,2.649804 -5.882847,5.882328 0,2.746754 1.914226,5.073687 4.472596,5.711277 v 39.392431 c -0.07361,1.952549 2.894106,1.952549 2.820501,0 V 22.132497 c 2.55837,-0.63759 4.472596,-2.964523 4.472596,-5.711277 0,-3.232524 -2.650323,-5.882328 -5.882846,-5.882328 z m 0,2.822049 c 1.707282,0 3.060279,1.352997 3.060279,3.060279 0,1.647553 -1.261076,2.963757 -2.883546,3.054077 -0.06576,-0.009 -0.132069,-0.0133 -0.198437,-0.0129 -0.05395,0.001 -0.107778,0.006 -0.161232,0.0129 -1.619491,-0.0933 -2.877859,-1.408614 -2.877859,-3.054077 0,-1.707282 1.353513,-3.060279 3.060795,-3.060279 z m 27.500135,17.064587 c -2.24373,0 -4.20599,1.277179 -5.1971,3.139349 -4.06185,-0.76876 -9.96084,-1.56097 -16.808798,-1.81539 -0.04682,-0.002 -0.09373,-0.002 -0.140558,0 -1.81801,0.0832 -1.784379,2.7826 0.03514,2.8205 6.595686,0.24506 12.317546,1.00664 16.228466,1.73736 v 10e-4 c 0,3.232519 2.65032,5.882839 5.88285,5.882839 3.23252,0 5.88284,-2.65032 5.88284,-5.882839 0,-3.23253 -2.65032,-5.88285 -5.88284,-5.88285 z m -32.021822,1.496039 c -0.03259,2e-4 -0.06517,0.002 -0.09767,0.004 -5.592096,0.24261 -10.27122,0.9404 -14.525212,3.12693 -0.0073,0.004 -0.0145,0.008 -0.0217,0.0114 -5.740999,3.072488 -10.744047,9.499238 -10.744047,16.244489 0,6.74525 5.003045,13.17148 10.744049,16.243969 5.877057,3.145301 12.618024,1.548392 18.973001,0.132811 6.354977,-1.415569 12.324351,-2.6498 17.027381,-0.132811 4.85541,2.598532 9.25577,8.482502 9.25577,13.755751 0,5.273252 -4.40036,11.15722 -9.25577,13.755751 -3.32058,1.777119 -7.42324,1.850041 -11.171924,1.25625 -1.891705,-0.341209 -2.345891,2.526964 -0.441317,2.786904 4.087161,0.64742 8.817131,0.65421 12.944941,-1.554935 5.74101,-3.07249 10.74457,-9.498719 10.74457,-16.24397 0,-6.74525 -5.00356,-13.171479 -10.74457,-16.243969 -5.87705,-3.145301 -12.617503,-1.548389 -18.97248,-0.13281 -6.354978,1.415571 -12.324348,2.649799 -17.027385,0.13281 -4.855409,-2.598531 -9.255767,-8.482499 -9.255767,-13.755751 0,-5.268929 4.393199,-11.14674 9.243881,-13.74852 3.720934,-1.91009 7.928012,-2.5812 13.348023,-2.81636 1.857966,-0.0387 1.834592,-2.81463 -0.02376,-2.82205 z m 32.021822,1.32602 c 1.70728,0 3.06027,1.35351 3.06027,3.06079 0,1.70728 -1.35299,3.060279 -3.06027,3.060279 -1.70729,0 -3.0608,-1.352999 -3.0608,-3.060279 0,-1.70728 1.35351,-3.06079 3.0608,-3.06079 z m -22.142839,3.24218 c -0.457993,0.0121 -0.457993,0.69328 0,0.70538 8.058569,0.395081 13.978479,1.323951 13.978479,1.323951 0.47203,0.0831 0.58434,-0.631471 0.10955,-0.697122 0,0 -5.9571,-0.935309 -14.052889,-1.332209 -0.01172,-5.82e-4 -0.02342,-5.82e-4 -0.03514,0 z m -9.848495,0.26716 c -0.0048,8e-5 -0.0097,2.5e-4 -0.01447,5.29e-4 -4.115591,0.17318 -6.54558,0.320851 -9.687779,1.343592 -5.493629,1.788099 -10.986945,7.24272 -11.193116,13.195578 -0.03189,0.485032 0.704793,0.509281 0.704865,0.0232 0.191414,-5.526709 5.48738,-10.848171 10.706842,-12.547031 3.060181,-0.99604 5.387649,-1.13756 9.498128,-1.310518 0.46014,-0.01921 0.446072,-0.705022 -0.01447,-0.705382 z m -20.233391,29.10417 c -0.298517,0.009 -0.451275,0.362022 -0.253731,0.58601 3.070392,3.555701 6.240627,4.908262 10.230385,5.550562 4.507397,0.725649 9.023133,-0.431501 13.485998,-1.535301 4.462864,-1.10381 8.870813,-2.1546 13.164053,-1.339971 2.78905,0.529222 5.60957,1.88161 7.52771,3.935671 2.10752,2.25687 3.67435,4.638249 3.67781,8.34575 -0.0229,0.49226 0.72775,0.49226 0.70486,0 -0.004,-3.90919 -1.70796,-6.51382 -3.86746,-8.826331 -2.04712,-2.1922 -4.99275,-3.594208 -7.91166,-4.148069 -4.48825,-0.85163 -8.999118,0.243219 -13.464813,1.347719 -4.465693,1.104501 -8.888246,2.218431 -13.205394,1.523421 -3.897252,-0.62742 -6.835619,-1.87138 -9.808706,-5.3144 -0.06918,-0.0819 -0.171863,-0.127939 -0.279052,-0.125061 z m 24.702886,6.36137 c -0.778457,0.01241 -1.399783,0.652959 -1.388547,1.43144 v 37.654033 c -0.07361,1.95254 2.894106,1.95254 2.820501,0 V 73.653907 c 0.01148,-0.795469 -0.636492,-1.443191 -1.431954,-1.43144 z m -9.588563,20.124872 c -3.453667,0.0317 -6.805256,1.01251 -9.631969,2.759519 -5.682854,3.512194 -10.668084,9.306892 -10.668084,21.201292 0,4.66526 -0.138054,11.77332 4.408516,16.63309 2.710346,2.89706 7.041788,4.77697 13.486001,4.77697 h 24.170098 c 5.35472,0 8.54438,1.14912 10.4805,2.70112 3.36984,2.70129 3.45508,7.0837 3.45508,10.88874 0,3.84639 -0.12646,8.30015 -3.66024,11.00398 -1.47442,1.14576 0.22256,3.36493 1.71463,2.24224 4.6871,-3.58627 4.76612,-9.34961 4.76612,-13.24622 0,-3.82798 -0.009,-9.48352 -4.50981,-13.09171 -2.58612,-2.07304 -6.48628,-3.31813 -12.24628,-3.31813 H 47.542835 c -5.911199,0 -9.306198,-1.61958 -11.425661,-3.88505 -3.547031,-3.79136 -3.647901,-10.00035 -3.648356,-14.67093 1.37e-4,-0.0114 1.37e-4,-0.0227 0,-0.0341 0,-11.14954 4.138155,-15.58905 9.33173,-18.798852 3.623532,-2.23947 8.350589,-3.007172 12.800769,-1.697061 1.805202,0.532159 2.602569,-2.175169 0.797367,-2.707331 -1.312479,-0.386389 -2.641632,-0.619929 -3.96513,-0.712618 -0.496314,-0.0348 -0.991802,-0.0495 -1.485183,-0.045 z m 32.488972,4.911839 c -0.0918,0.005 -0.178,0.0456 -0.24029,0.113181 -2.12684,2.232153 -7.08153,3.888731 -9.34155,4.363551 -1.75588,0.36889 -5.56218,0.32099 -7.773688,-0.20515 -0.448958,-0.0944 -0.607089,0.56904 -0.163814,0.68729 2.371982,0.56432 6.125752,0.61827 8.082192,0.20723 2.36965,-0.49785 7.33593,-2.0761 9.70897,-4.566652 0.226,-0.230129 0.0502,-0.617831 -0.27182,-0.59945 z m -32.394402,1.00924 c -0.790716,-0.0021 -1.421675,0.0344 -1.837616,0.0791 -2.65366,0.283504 -5.299099,1.104094 -7.279659,2.933152 -1.963753,1.81353 -4.873942,6.36301 -5.19503,10.21902 -0.05878,0.48626 0.683421,0.54571 0.7028,0.0563 0.294608,-3.538 3.194663,-8.11731 4.970756,-9.75754 1.827051,-1.68728 4.315256,-2.474688 6.875031,-2.748148 1.015653,-0.10851 3.62812,-0.17597 6.65644,0.3948 0.463961,0.0896 0.595463,-0.60797 0.130741,-0.69349 -1.554935,-0.293074 -2.993871,-0.424263 -4.181654,-0.466644 -0.296948,-0.01061 -0.578239,-0.0158 -0.841809,-0.01651 z m 36.994122,16.608292 c -0.77846,0.0124 -1.39978,0.65296 -1.38855,1.43144 0,4.69761 -0.0945,10.96383 -3.70313,14.76189 -1.33032,1.3654 0.75258,3.34259 2.04691,1.94302 4.61573,-4.85808 4.47673,-12.01638 4.47673,-16.70491 0.0115,-0.79547 -0.6365,-1.44319 -1.43196,-1.43144 z m -45.978589,6.07818 c -0.479287,-0.008 -0.479287,0.71499 0,0.70694 h 36.000389 c 0.47929,0.008 0.47929,-0.715 0,-0.70694 z m 0,7.4998 c -0.479287,-0.008 -0.479287,0.71499 0,0.70694 h 36.000389 c 0.47929,0.008 0.47929,-0.715 0,-0.70694 z m -6.239928,9.58598 c -0.31813,0.0132 -0.62245,0.13357 -0.863514,0.34157 -4.308659,3.62283 -4.306714,9.15593 -4.306714,12.92583 0,3.78955 0.05921,9.32877 4.390947,12.94546 2.581834,2.15566 6.518236,3.46491 12.365136,3.46491 h 24.169582 c 8.02793,0 11.55288,2.09004 13.29118,4.63279 1.73831,2.54274 1.78335,5.94597 1.78335,8.95707 0,1.91727 -0.007,4.01573 -0.4749,5.92367 -0.46833,1.90794 -1.33745,3.59581 -3.17345,4.95732 -1.57188,1.11034 0.15915,3.44749 1.67948,2.26756 2.41616,-1.79172 3.65644,-4.19862 4.23437,-6.55308 0.57793,-2.35445 0.55501,-4.68646 0.55501,-6.59547 0,-2.99815 0.0861,-7.09583 -2.27583,-10.55077 -2.36192,-3.45494 -7.08073,-5.85959 -15.61921,-5.85959 H 46.404401 c -5.428445,0 -8.625408,-1.19797 -10.556978,-2.81069 -3.240733,-2.70578 -3.378605,-7.03847 -3.378605,-10.77918 0,-3.74732 0.09036,-8.06479 3.302641,-10.76575 1.048244,-0.85889 0.401098,-2.55781 -0.952913,-2.50165 z m 6.239928,5.41413 c -0.463046,0.008 -0.463046,0.69876 0,0.70693 h 36.000389 c 0.46304,-0.008 0.46304,-0.69876 0,-0.70693 z m 0,7.4998 c -0.479287,-0.008 -0.479287,0.715 0,0.70694 h 36.000389 c 0.47929,0.008 0.47929,-0.715 0,-0.70694 z m 0,7.4998 c -0.470907,8e-4 -0.470907,0.70672 0,0.70745 h 36.000389 c 0.47091,-7.9e-4 0.47091,-0.70672 0,-0.70745 z m -6.038906,10.82466 c -0.367135,-0.003 -0.721009,0.13709 -0.986504,0.39068 -2.75654,2.55716 -4.369205,6.39831 -4.384746,11.63443 -2e-6,0.001 -2e-6,0.003 0,0.004 0,3.76424 -0.0542,9.39625 4.586285,12.9961 2.751634,2.13458 6.951535,3.41426 13.308232,3.41426 h 24.085868 c 1.95257,0.0736 1.95257,-2.89413 0,-2.8205 H 47.542835 c -5.976604,0 -9.498172,-1.2106 -11.578106,-2.82411 -3.50652,-2.72017 -3.495919,-6.98258 -3.495911,-10.76214 v -0.002 -0.002 c 0.01469,-4.68108 1.33544,-7.57683 3.484542,-9.57048 0.954985,-0.86209 0.352704,-2.44795 -0.933792,-2.45876 z m 6.038906,4.17546 c -0.479674,-0.008 -0.479674,0.7154 0,0.70693 h 36.000389 c 0.47967,0.008 0.47967,-0.71539 0,-0.70693 z m 0,7.50033 c -0.463046,0.008 -0.463046,0.69875 0,0.70692 h 36.000389 c 0.46304,-0.008 0.46304,-0.69876 0,-0.70692 z m 0,7.49979 c -0.479674,-0.008 -0.479674,0.71539 0,0.70693 h 36.000389 c 0.47967,0.008 0.47967,-0.71539 0,-0.70693 z"
       id="path1498"
       inkscape:connector-curvature="0"
       sodipodi:nodetypes="ssccccsssscccssccccccsssccccccssccssccsssccsccccsssssccccccccsccccccccccccccccscccccccccccscsscsccsssssccscccccccscccccccccccccccccccccccccccccccccccscsscscccsscsssscccccccccccccccccccccssccscccccccccccccccccaccca" />
  </g>
  <g
     inkscape:groupmode="layer"
     id="layer1"
     inkscape:label="Text"
     transform="translate(46.288194,18.188194)"
     sodipodi:insensitive="true"
     style="display:none">
    <text
       xml:space="preserve"
       style="font-style:normal;font-variant:normal;font-weight:300;font-stretch:normal;font-size:95.91062927px;line-height:1;font-family:Montserrat;-inkscape-font-specification:'Montserrat Light';letter-spacing:0px;word-spacing:0px;fill:url(#linearGradient864);fill-opacity:1;stroke:none;stroke-width:0.17638889;stroke-miterlimit:4;stroke-dasharray:none;stroke-opacity:1"
       x="104.21326"
       y="101.79536"
       id="text852"><tspan
         sodipodi:role="line"
         id="tspan850"
         x="104.21326"
         y="101.79536"
         style="font-style:normal;font-variant:normal;font-weight:300;font-stretch:normal;line-height:1;font-family:Montserrat;-inkscape-font-specification:'Montserrat Light';fill:url(#linearGradient864);fill-opacity:1;stroke:none;stroke-width:0.17638889;stroke-miterlimit:4;stroke-dasharray:none;stroke-opacity:1">ICBFM</tspan><tspan
         sodipodi:role="line"
         x="104.21326"
         y="197.70599"
         style="font-style:normal;font-variant:normal;font-weight:300;font-stretch:normal;line-height:1;font-family:Montserrat;-inkscape-font-specification:'Montserrat Light';fill:url(#linearGradient864);fill-opacity:1;stroke:none;stroke-width:0.17638889;stroke-miterlimit:4;stroke-dasharray:none;stroke-opacity:1"
         id="tspan854">SB RAS</tspan></text>
  </g>
  <g
     inkscape:groupmode="layer"
     id="layer3"
     inkscape:label="All">
    <path
       style="color:#000000;font-style:normal;font-variant:normal;font-weight:normal;font-stretch:normal;font-size:medium;line-height:normal;font-family:sans-serif;font-variant-ligatures:normal;font-variant-position:normal;font-variant-caps:normal;font-variant-numeric:normal;font-variant-alternates:normal;font-feature-settings:normal;text-indent:0;text-align:start;text-decoration:none;text-decoration-line:none;text-decoration-style:solid;text-decoration-color:#000000;letter-spacing:normal;word-spacing:normal;text-transform:none;writing-mode:lr-tb;direction:ltr;text-orientation:mixed;dominant-baseline:auto;baseline-shift:baseline;text-anchor:start;white-space:normal;shape-padding:0;clip-rule:nonzero;display:inline;overflow:visible;visibility:visible;opacity:1;isolation:auto;mix-blend-mode:normal;color-interpolation:sRGB;color-interpolation-filters:linearRGB;solid-color:#000000;solid-opacity:1;vector-effect:none;fill:url(#linearGradient966-3);fill-opacity:1;fill-rule:nonzero;stroke:none;stroke-width:0.17638889;stroke-linecap:round;stroke-linejoin:miter;stroke-miterlimit:4;stroke-dasharray:none;stroke-dashoffset:0;stroke-opacity:1;color-rendering:auto;image-rendering:auto;shape-rendering:auto;text-rendering:auto;enable-background:accumulate"
       d="m 106.10099,38.192184 c -3.23252,0 -5.88284,2.649802 -5.88284,5.882328 0,2.746753 1.91422,5.07369 4.47259,5.711277 v 39.392429 c -0.0736,1.952548 2.89411,1.952548 2.8205,0 V 49.785789 c 2.55837,-0.637587 4.4726,-2.964524 4.4726,-5.711277 0,-3.232526 -2.65032,-5.882328 -5.88285,-5.882328 z m 0,2.822049 c 1.70728,0 3.06028,1.352997 3.06028,3.060279 0,1.647552 -1.26107,2.963757 -2.88354,3.054077 -0.0658,-0.009 -0.13207,-0.01331 -0.19844,-0.01291 -0.054,0.0011 -0.10778,0.006 -0.16123,0.01291 -1.61949,-0.0933 -2.87786,-1.408615 -2.87786,-3.054077 0,-1.707282 1.35351,-3.060279 3.06079,-3.060279 z m 112.67943,11.355895 c -6.58586,0 -12.53217,1.470874 -17.83922,4.412133 -5.24312,2.941265 -9.39935,7.001479 -12.46849,12.180652 -3.0052,5.179176 -4.50774,10.997801 -4.50774,17.455783 0,6.457983 1.50254,12.276604 4.50774,17.455784 3.06914,5.17917 7.22537,9.23939 12.46849,12.18065 5.30705,2.94126 11.25336,4.41162 17.83922,4.41162 4.79553,0 9.2393,-0.79928 13.33148,-2.39779 4.15613,-1.59851 7.67294,-3.93198 10.55026,-7.00112 l -3.06906,-3.16518 c -5.43493,5.37099 -12.30871,8.05635 -20.62096,8.05635 -5.62676,0 -10.74161,-1.27884 -15.34532,-3.83646 -4.60371,-2.55761 -8.21654,-6.07443 -10.8381,-10.55026 -2.62155,-4.539767 -3.93257,-9.590777 -3.93257,-15.153594 0,-5.562816 1.31102,-10.582166 3.93257,-15.057995 2.62156,-4.53977 6.23439,-8.088761 10.8381,-10.646379 4.60371,-2.557616 9.71856,-3.836459 15.34532,-3.836459 8.37619,0 15.24996,2.6537 20.62096,7.960754 l 3.06906,-3.165181 c -2.87732,-3.06914 -6.36195,-5.370951 -10.45414,-6.905522 -4.09218,-1.598509 -8.56813,-2.397786 -13.4276,-2.397786 z m -56.67561,0.479557 v 67.137505 h 4.89169 V 52.849685 Z m 97.03438,0 v 67.137505 h 29.92428 c 8.18438,0 14.35487,-1.53471 18.51101,-4.60385 4.15612,-3.06914 6.23373,-7.44856 6.23373,-13.13925 0,-4.603714 -1.27832,-8.344738 -3.83594,-11.222057 -2.49367,-2.877319 -6.13869,-4.763405 -10.93422,-5.65857 3.45278,-1.150928 6.17033,-3.037011 8.15248,-5.658569 2.04608,-2.621556 3.06906,-5.850838 3.06906,-9.687264 0,-5.498875 -2.04595,-9.71895 -6.13813,-12.660209 -4.02825,-3.005199 -9.68701,-4.507736 -16.97622,-4.507736 z m 72.12067,0 v 67.137505 h 4.89117 V 90.350756 h 35.77456 v -4.411617 h -35.77456 v -28.67732 h 39.99498 v -4.412134 z m 60.50586,0 v 67.137505 h 4.79557 V 62.728669 l 28.10164,48.339171 h 2.39779 l 28.10216,-48.530891 0.0956,57.450241 h 4.79558 l -0.0956,-67.137505 h -4.02817 l -30.0204,51.887785 -30.01987,-51.887785 z m -127.73483,4.220417 h 22.92263 c 5.88253,0 10.39012,1.150646 13.5232,3.4525 3.19702,2.237914 4.79558,5.531035 4.79558,9.878983 0,4.411891 -1.59856,7.768849 -4.79558,10.070704 -3.13308,2.237915 -7.64067,3.356901 -13.5232,3.356901 h -22.92263 z m -130.42977,1.008205 v 5.29e-4 c -2.24373,0 -4.20599,1.277173 -5.1971,3.139342 -4.06185,-0.76876 -9.96083,-1.560973 -16.80879,-1.815393 -0.0468,-0.0021 -0.0937,-0.0021 -0.14056,0 -1.81801,0.0832 -1.78438,2.782599 0.0351,2.8205 6.59569,0.24506 12.31755,1.006642 16.22847,1.73736 v 5.29e-4 c 0,3.232518 2.65031,5.882844 5.88284,5.882844 3.23252,0 5.88285,-2.650326 5.88285,-5.882844 0,-3.232531 -2.65033,-5.882846 -5.88285,-5.882846 z m -32.02181,1.496034 v 5.29e-4 c -0.0326,2.01e-4 -0.0652,0.0016 -0.0977,0.0036 -5.5921,0.24261 -10.271221,0.940412 -14.525213,3.126942 -0.0073,0.004 -0.0145,0.008 -0.0217,0.01138 -5.741001,3.072489 -10.744049,9.499236 -10.744049,16.244486 0,6.74525 5.003043,13.171481 10.744049,16.24397 5.877057,3.145301 12.618024,1.548389 18.973003,0.132808 6.35498,-1.415569 12.32436,-2.649797 17.02739,-0.132808 4.85541,2.598532 9.25576,8.482502 9.25576,13.755752 0,5.27325 -4.40035,11.15722 -9.25576,13.75575 -3.32058,1.77712 -7.42325,1.85004 -11.17193,1.25625 -1.89171,-0.34121 -2.34589,2.52697 -0.44132,2.78691 4.08716,0.64742 8.81714,0.6542 12.94495,-1.55494 5.74101,-3.07249 10.74456,-9.49872 10.74456,-16.24397 0,-6.74525 -5.00355,-13.171482 -10.74456,-16.243972 -5.87705,-3.145301 -12.61751,-1.548388 -18.97249,-0.132809 -6.354979,1.415571 -12.324349,2.649798 -17.027386,0.132809 -4.855409,-2.598531 -9.255766,-8.482498 -9.255766,-13.75575 0,-5.268927 4.393198,-11.146736 9.24388,-13.748513 3.720934,-1.910093 7.928012,-2.581206 13.348022,-2.816368 1.85797,-0.0387 1.83459,-2.814629 -0.0238,-2.822048 z m 32.02181,1.326533 c 1.70728,0 3.06028,1.353516 3.06028,3.060795 0,1.70728 -1.353,3.060279 -3.06028,3.060279 -1.70729,0 -3.06079,-1.352999 -3.06079,-3.060279 0,-1.707279 1.3535,-3.060795 3.06079,-3.060795 z m -22.14283,3.24218 c -0.45799,0.01209 -0.45799,0.693283 0,0.705382 8.05857,0.395081 13.97847,1.323951 13.97847,1.323951 0.47203,0.0831 0.58435,-0.631465 0.10956,-0.697116 0,0 -5.9571,-0.935318 -14.05289,-1.332217 -0.0117,-5.29e-4 -0.0234,-5.29e-4 -0.0351,0 z m -9.8485,0.26665 v 5.29e-4 c -0.005,8e-5 -0.01,2.38e-4 -0.0145,5.29e-4 -4.115589,0.173181 -6.545578,0.320845 -9.687777,1.343586 -5.493629,1.788099 -10.986945,7.24272 -11.193116,13.195577 -0.03189,0.485032 0.704794,0.508819 0.704866,0.02274 0.191415,-5.526709 5.487379,-10.84818 10.706841,-12.547038 3.060181,-0.996042 5.387649,-1.137557 9.498126,-1.310516 0.46014,-0.01921 0.44607,-0.705022 -0.0145,-0.705381 z m 162.4211,23.639383 h 25.03258 c 6.52193,0 11.44525,1.118987 14.77015,3.356901 3.38884,2.237916 5.08341,5.722552 5.08341,10.454142 0,4.73159 -1.69457,8.24841 -5.08341,10.55026 -3.3249,2.23792 -8.24822,3.3569 -14.77015,3.3569 h -25.03258 z m -182.654486,5.4653 c -0.298516,0.009 -0.451273,0.362023 -0.25373,0.586011 3.070391,3.555701 6.240624,4.908262 10.230381,5.550562 4.5074,0.72565 9.023135,-0.4315 13.485995,-1.535304 4.46287,-1.10381 8.87082,-2.154598 13.16406,-1.339969 2.78905,0.529222 5.60957,1.881613 7.52771,3.935673 2.10752,2.25687 3.67435,4.63825 3.67781,8.34575 -0.0229,0.49226 0.72775,0.49226 0.70486,0 -0.004,-3.90919 -1.70796,-6.51383 -3.86746,-8.82634 -2.04712,-2.192197 -4.99275,-3.594203 -7.91166,-4.148064 -4.48825,-0.85163 -8.99912,0.243221 -13.46482,1.347721 -4.46569,1.104501 -8.88824,2.218433 -13.205388,1.523423 -3.897252,-0.627422 -6.835616,-1.871386 -9.808705,-5.314406 -0.06918,-0.0819 -0.171862,-0.127935 -0.279053,-0.125057 z m 24.702886,6.361373 c -0.77846,0.0124 -1.39978,0.65295 -1.38855,1.43143 v 37.65403 c -0.0736,1.95254 2.89411,1.95254 2.8205,0 v -37.65403 c 0.0115,-0.79547 -0.63649,-1.44319 -1.43195,-1.43143 z m -9.588563,20.12435 v 5.3e-4 c -3.453667,0.0317 -6.805256,1.01251 -9.631969,2.75952 -5.682855,3.51219 -10.668084,9.30689 -10.668084,21.20129 0,4.66526 -0.138052,11.77332 4.408516,16.63309 2.710347,2.89706 7.041788,4.77697 13.486001,4.77697 h 24.170099 c 5.35472,0 8.54438,1.14913 10.4805,2.70113 3.36984,2.70129 3.45508,7.0837 3.45508,10.88874 0,3.84639 -0.12646,8.30015 -3.66024,11.00398 -1.47442,1.14576 0.22256,3.36493 1.71463,2.24224 4.68709,-3.58627 4.76611,-9.34961 4.76611,-13.24622 0,-3.82798 -0.009,-9.48352 -4.5098,-13.09171 -2.58612,-2.07304 -6.48628,-3.31814 -12.24628,-3.31814 H 94.085191 c -5.9112,0 -9.306198,-1.61957 -11.425661,-3.88504 -3.547031,-3.79136 -3.6479,-10.00035 -3.648356,-14.67094 1.38e-4,-0.0114 1.38e-4,-0.0227 0,-0.0341 0,-11.14954 4.138155,-15.58905 9.33173,-18.79885 3.623532,-2.23947 8.350589,-3.00717 12.800766,-1.69706 1.8052,0.53216 2.60257,-2.17516 0.79737,-2.70733 -1.31248,-0.38638 -2.641634,-0.61992 -3.96513,-0.71261 -0.496316,-0.0348 -0.991802,-0.05 -1.485183,-0.0455 z m 32.488973,4.91236 c -0.0918,0.005 -0.17801,0.0456 -0.2403,0.11317 -2.12684,2.23215 -7.08152,3.88874 -9.34154,4.36356 -1.75589,0.36889 -5.56218,0.32098 -7.77369,-0.20515 -0.44896,-0.0944 -0.60709,0.56904 -0.16381,0.68729 2.37198,0.56432 6.12575,0.61827 8.08219,0.20722 2.36965,-0.49785 7.33593,-2.07609 9.70897,-4.56664 0.226,-0.23013 0.0502,-0.61783 -0.27182,-0.59945 z m -32.394403,1.00924 c -0.790718,-0.002 -1.421675,0.0344 -1.837616,0.0791 -2.65366,0.2835 -5.299099,1.10409 -7.279659,2.93315 -1.963753,1.81353 -4.873942,6.363 -5.19503,10.21901 -0.05878,0.48626 0.683419,0.54574 0.7028,0.0563 0.294605,-3.538 3.194661,-8.11731 4.970753,-9.75754 1.827051,-1.68728 4.315259,-2.47469 6.875034,-2.74815 1.015653,-0.10851 3.62812,-0.17597 6.656441,0.3948 0.46396,0.0896 0.59546,-0.60797 0.13074,-0.69349 -1.55494,-0.29308 -2.993874,-0.42426 -4.181654,-0.46664 -0.29695,-0.0106 -0.578239,-0.0158 -0.841809,-0.0165 z M 133.57942,142.53 c -0.77846,0.0124 -1.39978,0.65296 -1.38855,1.43144 0,4.69761 -0.0945,10.96382 -3.70313,14.76189 -1.33032,1.36539 0.75257,3.3426 2.0469,1.94303 4.61573,-4.85808 4.47673,-12.01639 4.47673,-16.70492 0.0115,-0.79547 -0.63649,-1.44319 -1.43195,-1.43144 z m 47.32372,5.75107 c -5.30705,0 -9.75082,0.79927 -13.33148,2.39779 -3.51672,1.59851 -6.13825,3.77212 -7.86464,6.52156 -1.72639,2.6855 -2.5895,5.65891 -2.5895,8.91987 0,4.02825 1.02297,7.25701 3.06906,9.68675 2.11003,2.36579 4.63554,4.1242 7.5768,5.27513 3.0052,1.15093 6.96992,2.33427 11.89333,3.54914 4.34795,1.02304 7.80041,2.01383 10.35802,2.97294 2.55762,0.95911 4.69958,2.33396 6.42597,4.1243 1.72639,1.79033 2.5895,4.18816 2.5895,7.19336 0,3.90036 -1.63021,7.06528 -4.89117,9.49502 -3.26096,2.42973 -8.08828,3.64474 -14.48232,3.64474 -4.41189,0 -8.63196,-0.76761 -12.66021,-2.30218 -3.96431,-1.59851 -7.12975,-3.64446 -9.49554,-6.13813 l -2.20555,3.64474 c 2.49367,2.6855 5.94613,4.89129 10.35802,6.61768 4.47583,1.66245 9.17547,2.49391 14.09888,2.49391 5.30706,0 9.783,-0.79928 13.4276,-2.39779 3.64461,-1.59851 6.32997,-3.74047 8.05636,-6.42596 1.79033,-2.6855 2.68562,-5.65891 2.68562,-8.91987 0,-3.96431 -1.05514,-7.09758 -3.16518,-9.39943 -2.04609,-2.36579 -4.53994,-4.1242 -7.48119,-5.27513 -2.94127,-1.15093 -6.87329,-2.33375 -11.7967,-3.54862 -4.41189,-1.08699 -7.89653,-2.10996 -10.45414,-3.06906 -2.55762,-0.95911 -4.69958,-2.33397 -6.42597,-4.1243 -1.72639,-1.79033 -2.59002,-4.18816 -2.59002,-7.19336 0,-3.9643 1.59855,-7.19307 4.79557,-9.68674 3.19702,-2.49368 7.89666,-3.74035 14.09888,-3.74035 3.13308,0 6.29853,0.47957 9.49555,1.43868 3.26096,0.9591 6.23385,2.36562 8.91935,4.21989 l 1.82263,-3.93257 c -2.62156,-1.85427 -5.72265,-3.32463 -9.30331,-4.41162 -3.58066,-1.08699 -7.22567,-1.63039 -10.93422,-1.63039 z m 292.04056,0 c -5.30704,0 -9.7508,0.79927 -13.33148,2.39779 -3.51671,1.59851 -6.13823,3.77212 -7.86463,6.52156 -1.72638,2.6855 -2.58951,5.65891 -2.58951,8.91987 0,4.02825 1.02299,7.25701 3.06906,9.68675 2.11003,2.36579 4.63556,4.1242 7.5768,5.27513 3.00521,1.15093 6.96941,2.33427 11.89283,3.54914 4.3479,1.02304 7.80092,2.01383 10.35852,2.97294 2.55762,0.95911 4.69958,2.33396 6.42599,4.1243 1.72638,1.79033 2.5895,4.18816 2.5895,7.19336 0,3.90036 -1.6302,7.06528 -4.89119,9.49502 -3.26097,2.42973 -8.08879,3.64474 -14.48282,3.64474 -4.4119,0 -8.63198,-0.76761 -12.66023,-2.30218 -3.96431,-1.59851 -7.12923,-3.64446 -9.49502,-6.13813 l -2.20607,3.64474 c 2.49369,2.6855 5.94667,4.89129 10.35854,6.61768 4.47582,1.66245 9.17549,2.49391 14.09888,2.49391 5.30706,0 9.78299,-0.79928 13.4276,-2.39779 3.64461,-1.59851 6.32995,-3.74047 8.05638,-6.42596 1.79033,-2.6855 2.6856,-5.65891 2.6856,-8.91987 0,-3.96431 -1.05516,-7.09758 -3.16516,-9.39943 -2.0461,-2.36579 -4.53996,-4.1242 -7.4812,-5.27513 -2.94126,-1.15093 -6.87379,-2.33375 -11.79721,-3.54862 -4.4119,-1.08699 -7.89652,-2.10996 -10.45414,-3.06906 -2.55762,-0.95911 -4.69955,-2.33397 -6.42599,-4.1243 -1.72638,-1.79033 -2.5895,-4.18816 -2.5895,-7.19336 0,-3.9643 1.59858,-7.19307 4.79557,-9.68674 3.19704,-2.49368 7.89668,-3.74035 14.09888,-3.74035 3.13309,0 6.29801,0.47957 9.49505,1.43868 3.26096,0.9591 6.23435,2.36562 8.91987,4.21989 l 1.82211,-3.93257 c -2.62157,-1.85427 -5.72265,-3.32463 -9.30331,-4.41162 -3.58066,-1.08699 -7.22513,-1.63039 -10.93372,-1.63039 z m -385.34287,0.32711 c -0.479285,-0.008 -0.479285,0.71499 0,0.70693 h 36.00039 c 0.47929,0.008 0.47929,-0.71499 0,-0.70693 z m 132.94951,0.15245 v 67.1375 h 29.92427 c 8.18437,0 14.35436,-1.53471 18.5105,-4.60385 4.15613,-3.06914 6.23424,-7.44907 6.23424,-13.13977 0,-4.60371 -1.27885,-8.34422 -3.83646,-11.22154 -2.49368,-2.87732 -6.13817,-4.7634 -10.9337,-5.65857 3.45278,-1.15092 6.17033,-3.03752 8.15248,-5.65908 2.0461,-2.62156 3.06906,-5.85033 3.06906,-9.68675 0,-5.49887 -2.04594,-9.71895 -6.13813,-12.66021 -4.02825,-3.0052 -9.68702,-4.50773 -16.97622,-4.50773 z m 96.84731,0 v 67.1375 h 4.89118 v -21.96352 h 19.18229 c 1.98215,0 4.15628,-0.15985 6.52208,-0.47955 l 16.01711,22.44307 h 5.56245 l -16.78399,-23.49831 c 5.05129,-1.47063 8.91948,-3.99613 11.60498,-7.5768 2.74944,-3.6446 4.1243,-8.12054 4.1243,-13.4276 0,-7.09739 -2.39782,-12.62848 -7.19336,-16.59278 -4.79553,-4.02825 -11.41344,-6.04201 -19.85357,-6.04201 z m 88.78477,0 -30.88339,67.1375 h 5.27513 l 8.53591,-18.89445 h 38.93974 l 8.63203,18.89445 h 5.27513 l -30.88338,-67.1375 z m -180.74039,4.21989 h 22.92263 c 5.88252,0 10.39012,1.15117 13.5232,3.45302 3.19703,2.23792 4.79558,5.53052 4.79558,9.87847 0,4.41189 -1.59855,7.76885 -4.79558,10.0707 -3.13308,2.23792 -7.64068,3.3569 -13.5232,3.3569 h -22.92263 z m 96.8468,0.19172 h 19.18229 c 7.16132,0 12.62806,1.59856 16.40055,4.79558 3.77247,3.13308 5.65908,7.60902 5.65908,13.4276 0,5.81858 -1.88661,10.32619 -5.65908,13.52321 -3.77249,3.13307 -9.23923,4.69997 -16.40055,4.69997 h -19.18229 z m 86.29137,0.95912 17.6475,38.74802 h -35.1994 z m -320.97937,1.97662 c -0.479285,-0.008 -0.479285,0.71498 0,0.70694 h 36.00039 c 0.47929,0.008 0.47929,-0.715 0,-0.70694 z m -6.239928,9.58598 c -0.31813,0.0132 -0.622448,0.13358 -0.863513,0.34158 -4.30866,3.62283 -4.306715,9.15593 -4.306715,12.92583 0,3.78955 0.05921,9.32877 4.390948,12.94546 2.581833,2.15566 6.518235,3.4649 12.365135,3.4649 h 24.169583 c 8.02793,0 11.55288,2.09005 13.29118,4.6328 1.73831,2.54274 1.78335,5.94597 1.78335,8.95707 0,1.91727 -0.007,4.01573 -0.4749,5.92367 -0.46833,1.90794 -1.33745,3.59581 -3.17345,4.95732 -1.57188,1.11034 0.15915,3.44749 1.67948,2.26756 2.41616,-1.79172 3.65644,-4.19862 4.23437,-6.55309 0.57793,-2.35444 0.555,-4.68645 0.555,-6.59546 0,-2.99815 0.0861,-7.09583 -2.27583,-10.55077 -2.36192,-3.45494 -7.08072,-5.8596 -15.6192,-5.8596 H 92.946757 c -5.428443,0 -8.625408,-1.19796 -10.556978,-2.81068 -3.240733,-2.70578 -3.378605,-7.03847 -3.378605,-10.77918 0,-3.74732 0.09036,-8.06479 3.302641,-10.76575 1.048244,-0.85889 0.401097,-2.55782 -0.952913,-2.50166 z m 6.239928,5.41414 c -0.463045,0.008 -0.463045,0.69876 0,0.70693 h 36.00039 c 0.46304,-0.008 0.46304,-0.69876 0,-0.70693 z m 0,7.4998 c -0.479285,-0.008 -0.479285,0.71499 0,0.70693 h 36.00039 c 0.47929,0.008 0.47929,-0.71499 0,-0.70693 z m 137.8412,5.35161 h 25.03258 c 6.52192,0 11.44524,1.11898 14.77015,3.3569 3.38884,2.23792 5.08342,5.72307 5.08342,10.45466 0,4.73159 -1.69458,8.24788 -5.08342,10.54974 -3.32491,2.23793 -8.24823,3.3569 -14.77015,3.3569 h -25.03258 z m -137.8412,2.14819 c -0.470906,7.9e-4 -0.470906,0.70672 0,0.70745 h 36.00039 c 0.47091,-7.9e-4 0.47091,-0.70672 0,-0.70745 z m -6.038906,10.82414 v 5.3e-4 c -0.367135,-0.003 -0.721008,0.13709 -0.986504,0.39068 -2.75654,2.55716 -4.369205,6.39831 -4.384746,11.63443 0,0.001 0,0.003 0,0.004 0,3.76425 -0.0542,9.39626 4.586285,12.99611 2.751634,2.13457 6.951535,3.41426 13.308232,3.41426 h 24.085869 c 1.95257,0.0736 1.95257,-2.89413 0,-2.8205 H 94.085191 c -5.976605,0 -9.498172,-1.21061 -11.578106,-2.82411 -3.50652,-2.72018 -3.495919,-6.98258 -3.495911,-10.76214 v -0.002 -0.002 c 0.01469,-4.68109 1.33544,-7.57735 3.484542,-9.57099 0.954984,-0.86209 0.352703,-2.44744 -0.933792,-2.45825 z m 6.038906,4.17598 c -0.479674,-0.008 -0.479674,0.7154 0,0.70693 h 36.00039 c 0.47967,0.008 0.47967,-0.71539 0,-0.70693 z m 0,7.50031 c -0.463045,0.008 -0.463045,0.69877 0,0.70694 h 36.00039 c 0.46304,-0.008 0.46304,-0.69878 0,-0.70694 z m 0,7.49981 c -0.479674,-0.008 -0.479674,0.71539 0,0.70693 h 36.00039 c 0.47967,0.008 0.47967,-0.71539 0,-0.70693 z"
       id="path1498-2"
       inkscape:connector-curvature="0" />
  </g>
</svg>
